<svg width="100" height="100" viewBox="0 0 100 100" fill="none" xmlns="http://www.w3.org/2000/svg">
<path d="M17.9036 35.3177H22.4975V56.5937C20.1409 57.0413 18.4107 57.2204 16.5315 57.2204C10.9233 57.2202 8 54.6836 8 49.8182C8 45.1321 11.1025 42.0879 15.905 42.0879C16.6506 42.0879 17.2174 42.1474 17.9036 42.3265V35.3177ZM17.9036 46.0273C17.3667 45.8484 16.9193 45.7887 16.3526 45.7887C14.0258 45.7887 12.6834 47.2215 12.6834 49.7285C12.6834 52.1762 13.9661 53.5192 16.3227 53.5192C16.8296 53.5192 17.2474 53.4894 17.9036 53.4V46.0273Z" fill="#092E20"/>
<path d="M29.8055 42.4161V53.0714C29.8055 56.7427 29.5371 58.5036 28.7317 60.0259C27.9858 61.4887 27.0013 62.4137 24.973 63.4286L20.7072 61.399C22.7357 60.4439 23.72 59.6084 24.3464 58.3245C25.0028 57.0113 25.2118 55.489 25.2118 51.4896V42.4161H29.8055ZM25.2118 35.3422H29.8055V40.0581H25.2118V35.3422Z" fill="#092E20"/>
<path d="M32.5802 43.4606C34.6089 42.5058 36.5477 42.088 38.6657 42.088C41.0223 42.088 42.5733 42.7145 43.2596 43.9384C43.6471 44.6248 43.7664 45.5202 43.7664 47.4306V56.7726C41.7079 57.071 39.1129 57.2801 37.2039 57.2801C33.3559 57.2801 31.6255 55.9365 31.6255 52.952C31.6255 49.7283 33.9225 48.2361 39.5605 47.7584V46.7436C39.5605 45.9079 39.1429 45.6097 37.9795 45.6097C36.2793 45.6097 34.3701 46.0872 32.58 47.0126L32.5802 43.4606ZM39.7693 50.7733C36.7265 51.0717 35.7422 51.5495 35.7422 52.7433C35.7422 53.6386 36.3091 54.0565 37.5619 54.0565C38.2481 54.0565 38.8743 53.997 39.7693 53.8477V50.7733Z" fill="#092E20"/>
<path d="M46.004 43.1323C48.7183 42.4161 50.9556 42.088 53.2227 42.088C55.5793 42.088 57.2797 42.625 58.2942 43.6697C59.2487 44.6544 59.5468 45.7289 59.5468 48.0275V57.0412H54.9529V48.2066C54.9529 46.4457 54.3563 45.7888 52.7158 45.7888C52.0894 45.7888 51.5227 45.8484 50.5976 46.1171V57.0412H46.004V43.1323Z" fill="#092E20"/>
<path d="M61.3326 59.5486C62.9436 60.3842 64.5544 60.772 66.2545 60.772C69.2671 60.772 70.5499 59.5486 70.5499 56.6234C70.5499 56.5935 70.5499 56.5637 70.5499 56.5338C69.6551 56.9813 68.7601 57.1606 67.5672 57.1606C63.54 57.1606 60.9742 54.5042 60.9742 50.2958C60.9742 45.0721 64.763 42.1176 71.4744 42.1176C73.4434 42.1176 75.2631 42.3263 77.4706 42.774L75.8976 46.0895C74.6745 45.8508 75.7996 46.0576 74.8754 45.968V46.4457L74.9348 48.3855L74.9645 50.8929C74.9943 51.5194 74.9943 52.1464 75.0243 52.7731C75.0243 53.3402 75.0243 53.609 75.0243 54.0268C75.0243 57.9668 74.6962 59.8172 73.7119 61.3393C72.28 63.5781 69.804 64.6823 66.2842 64.6823C64.4943 64.6823 62.9435 64.4137 61.3324 63.7868V59.5486H61.3326ZM70.4606 45.8186C70.401 45.8186 70.3415 45.8186 70.3117 45.8186H69.9834C69.0888 45.7888 68.0448 46.0273 67.3285 46.475C66.2251 47.102 65.658 48.2363 65.658 49.8479C65.658 52.1464 66.7918 53.4596 68.8201 53.4596C69.4465 53.4596 69.9538 53.34 70.5501 53.1611V52.8326V51.5793C70.5501 51.0421 70.5205 50.4448 70.5205 49.8183L70.4909 47.6992L70.4608 46.1769V45.8186H70.4606Z" fill="#092E20"/>
<path d="M84.6021 42.028C89.1958 42.028 92 44.9234 92 49.6093C92 54.4149 89.0769 57.4295 84.4231 57.4295C79.8291 57.4295 76.9952 54.5341 76.9952 49.8781C76.9954 45.0424 79.9189 42.028 84.6021 42.028ZM84.5122 53.7281C86.2725 53.7281 87.3166 52.2655 87.3166 49.7285C87.3166 47.2215 86.3023 45.729 84.5426 45.729C82.7228 45.729 81.6784 47.1918 81.6784 49.7285C81.6786 52.2657 82.7228 53.7281 84.5122 53.7281Z" fill="#092E20"/>
</svg>
