<svg width="100" height="100" viewBox="0 0 100 100" fill="none" xmlns="http://www.w3.org/2000/svg">
<path d="M81.9274 45.3654C80.3094 44.2782 76.0575 43.8138 72.9663 44.6449C72.7996 41.5714 71.2122 38.9815 68.3077 36.7217L67.2325 36.0012L66.516 37.0815C65.1075 39.2158 64.514 42.0593 64.7243 44.6441C64.8902 46.2365 65.4452 48.0268 66.516 49.3257C62.4928 51.6552 58.7846 51.1264 42.3617 51.1264H17.0057C16.9315 54.828 17.5276 61.9489 22.064 67.7457C22.5649 68.386 23.1147 69.0054 23.7108 69.6021C27.3989 73.2889 32.9713 75.9921 41.304 76C54.0161 76.0113 64.9076 69.1526 71.5324 52.5682C73.7125 52.6039 79.4672 52.9585 82.2835 47.5259C82.3524 47.4344 83 46.085 83 46.085L81.9266 45.3645L81.9274 45.3654ZM33.5534 41.98H26.4232V49.0975H33.5534V41.98ZM42.7649 41.98H35.6348V49.0975H42.7649V41.98ZM51.9765 41.98H44.8464V49.0975H51.9765V41.98ZM61.1881 41.98H54.0579V49.0975H61.1881V41.98ZM24.3418 41.98H17.2117V49.0975H24.3418V41.98ZM33.5534 32.9904H26.4232V40.1079H33.5534V32.9904ZM42.7649 32.9904H35.6348V40.1079H42.7649V32.9904ZM51.9765 32.9904H44.8464V40.1079H51.9765V32.9904ZM51.9765 24H44.8464V31.1174H51.9765V24Z" fill="#1D63ED"/>
</svg>
