<svg width="100" height="100" viewBox="0 0 100 100" fill="none" xmlns="http://www.w3.org/2000/svg">
<path opacity="0.263538" d="M96 59.2967C95.998 60.1587 91.1507 60.9853 82.5243 61.5948C73.8978 62.2043 62.1987 62.5467 50 62.5467C37.8013 62.5467 26.1022 62.2043 17.4757 61.5948C8.84927 60.9853 4.00198 60.1587 4 59.2967C3.99902 58.8698 5.18812 58.447 7.4994 58.0526C9.81068 57.6582 13.1989 57.2998 17.4704 56.9979C21.742 56.696 26.8134 56.4565 32.3948 56.2931C37.9763 56.1297 43.9586 56.0457 50 56.0457C56.0414 56.0457 62.0237 56.1297 67.6052 56.2931C73.1866 56.4565 78.258 56.696 82.5296 56.9979C86.8011 57.2998 90.1893 57.6582 92.5006 58.0526C94.8119 58.447 96.001 58.8698 96 59.2967Z" fill="url(#paint0_linear_5562_4249)"/>
<path d="M43.7834 60.6055C42.8929 60.3222 42.8897 60.1971 43.7102 57.7076C44.5295 55.2215 44.154 52.9127 42.6352 51.0978C40.5698 48.63 39.5752 46.5241 39.2582 43.9476C38.9861 41.7357 38.8998 41.5603 37.9987 41.3874C37.3943 41.2715 36.5593 41.5011 34.5693 42.3307C31.6741 43.5376 30.9845 44.0676 30.3014 45.6108C29.9425 46.4215 29.8993 46.9071 30.1029 47.8449C30.3515 48.9899 31.3702 50.8332 31.7559 50.8356C31.8565 50.8363 32.4125 51.2169 32.9914 51.6814C33.9521 52.4522 34.018 52.5861 33.7462 53.2144C33.1555 54.5796 31.7522 56.2348 31.1854 56.2348C30.8674 56.2348 29.5688 55.3258 28.1393 54.1025C25.3316 51.6998 25.2139 51.4589 24.9239 47.5206C24.5779 42.8216 25.7341 40.6285 30.8838 36.2165L34.1137 33.4493L34.32 31.7707C34.5327 30.0404 34.2328 25.9201 33.7288 23.6458C33.431 22.3022 32.4482 21.0224 31.5156 20.7639C30.4996 20.4821 29.904 21.0634 29.131 23.091C28.297 25.2787 27.5 26.0419 26.0492 26.0419C25.1456 26.0419 24.3024 25.4643 23.7201 24.4464C23.3029 23.717 23.0607 19.3353 23.3101 17.0287C23.4301 15.9192 23.437 14.7958 23.3254 14.5324C23.1439 14.1036 21.5806 13.1762 17.895 11.3108C17.225 10.9717 16.4439 10.5151 16.1592 10.2962C15.8745 10.0772 15.1358 9.67469 14.5177 9.40163C13.1175 8.78315 9.46662 6.64978 9.8084 6.64978C10.455 6.64978 13.1952 7.49264 14.654 8.14023C15.5445 8.53556 16.3969 8.85901 16.5483 8.85901C16.6996 8.85901 18.4165 9.41132 20.3635 10.0864C22.3104 10.7614 24.09 11.3137 24.318 11.3137C24.8595 11.3137 24.9444 10.8455 24.7709 8.81653C24.6921 7.89484 24.6955 7.14072 24.7786 7.14072C24.8617 7.14072 25.2205 7.31867 25.5759 7.53616C26.6618 8.20062 28.9976 8.60757 31.7429 8.61063C34.368 8.61374 37.7945 9.13405 39.1041 9.72882C40.9827 10.582 43.1619 13.2469 45.9262 18.0715C47.848 21.4257 49.913 22.846 52.8724 22.8491C54.0688 22.8505 57.2607 22.3576 61.583 21.5042C65.147 20.8006 69.8519 20.6425 71.6781 21.1649C73.9061 21.8022 76.8519 23.5061 79.2876 25.5661C81.5672 27.4941 81.9183 27.9222 83.3187 30.4807C84.9899 33.5341 86.8344 37.8737 88.4747 42.6112C88.7084 43.2862 89.202 44.4218 89.5716 45.1345C90.5579 47.0364 90.5087 47.1524 88.7165 47.1524C86.7714 47.1524 85.8591 46.8459 84.584 45.7637C83.361 44.7259 83.0415 44.0909 81.1273 38.8933C80.1468 36.231 79.1924 34.6334 78.5823 34.6334C78.1643 34.6334 77.3183 37.4863 77.3183 38.8959C77.3183 39.897 77.946 41.2494 79.569 43.7449C82.2056 47.7988 83.5925 53.5295 83.0373 58.0758L82.7975 60.0396L81.0404 60.1127C78.274 60.2278 78.3017 60.2662 78.3017 56.313C78.3017 52.1043 78.0149 51.1928 76.1565 49.4955C75.3846 48.7904 73.6527 46.7874 72.3079 45.0442C70.9631 43.301 69.6753 41.8748 69.446 41.8748C68.9192 41.8748 68.6565 43.3083 68.6285 46.3358C68.6101 48.3296 68.5315 48.6671 67.9429 49.2814C66.3472 50.947 65.2271 53.9798 64.5366 58.5045C64.3837 59.506 64.2527 59.6933 63.6031 59.8391C62.648 60.0534 60.0011 60.0885 59.773 59.8899C59.5763 59.7186 59.921 56.9989 60.703 52.5528C60.9998 50.8651 61.3237 48.6007 61.4229 47.5206C61.5994 45.5979 61.2049 41.9955 60.738 41.2667C60.5439 40.9637 59.5554 40.898 54.9321 40.881C51.8675 40.8698 48.5066 40.769 47.4634 40.6572L45.5668 40.4537V41.2949C45.5668 42.1956 45.7978 42.9895 47.3426 47.3979C47.8867 48.9505 48.6752 51.3174 49.0947 52.6577L49.8575 55.0947L49.2138 57.0762C48.8598 58.166 48.3343 59.472 48.0462 59.9782C47.5379 60.8712 47.4783 60.8982 46.0528 60.8794C45.2446 60.8687 44.2233 60.7455 43.7834 60.6055Z" fill="#499848"/>
<path d="M22.7158 71.724H25.7122V77.9693C25.7122 79.185 25.7882 80.0312 25.9402 80.5079C26.0921 80.9767 26.3346 81.3422 26.6675 81.6044C27.0077 81.8666 27.4238 81.9977 27.916 81.9977C28.4081 81.9977 28.8243 81.8706 29.1645 81.6163C29.5118 81.3541 29.7688 80.9727 29.9353 80.4722C30.0583 80.0987 30.1198 79.3002 30.1198 78.0766V71.724H33.0944V77.2184C33.0944 79.4829 32.9316 81.0323 32.6059 81.8666C32.2078 82.8837 31.6216 83.6663 30.8472 84.2146C30.0728 84.7549 29.0885 85.025 27.8943 85.025C26.5988 85.025 25.5493 84.7072 24.746 84.0715C23.9498 83.4359 23.3889 82.55 23.0632 81.4137C22.8316 80.6271 22.7158 79.1969 22.7158 77.1231V71.724Z" fill="#4D4D4D"/>
<path d="M34.311 71.724H37.2639V73.0469C37.937 72.4272 38.545 71.9981 39.0878 71.7597C39.6378 71.5134 40.1987 71.3903 40.7705 71.3903C41.943 71.3903 42.9381 71.8392 43.756 72.737C44.4435 73.4998 44.7873 74.6281 44.7873 76.1219V84.6913H41.8561V79.0062C41.8561 77.4568 41.791 76.4278 41.6607 75.9193C41.5377 75.4108 41.3169 75.0254 40.9985 74.7632C40.6873 74.493 40.3001 74.358 39.8369 74.358C39.2362 74.358 38.7187 74.5804 38.2844 75.0254C37.8574 75.4624 37.5607 76.0703 37.3942 76.8489C37.3074 77.2542 37.2639 78.1322 37.2639 79.4829V84.6913H34.311V71.724Z" fill="#4D4D4D"/>
<path d="M47.893 66.3845C48.4141 66.3845 48.8592 66.5911 49.2283 67.0042C49.6047 67.4174 49.7929 67.918 49.7929 68.506C49.7929 69.086 49.6083 69.5826 49.2392 69.9958C48.8701 70.401 48.4286 70.6036 47.9147 70.6036C47.3864 70.6036 46.934 70.397 46.5577 69.9838C46.1886 69.5627 46.004 69.0542 46.004 68.4583C46.004 67.8862 46.1886 67.3975 46.5577 66.9923C46.9268 66.5871 47.3719 66.3845 47.893 66.3845ZM46.4057 71.7239H49.3803V84.6912H46.4057V71.7239Z" fill="#4D4D4D"/>
<path d="M63.1468 74.346L60.6825 75.8359C60.2192 75.3035 59.7597 74.934 59.3037 74.7274C58.855 74.5209 58.3266 74.4176 57.7187 74.4176C56.6113 74.4176 55.7139 74.7831 55.0263 75.5141C54.346 76.2371 54.0059 77.1668 54.0059 78.303C54.0059 79.4074 54.3352 80.3093 54.9938 81.0085C55.6524 81.7077 56.5173 82.0573 57.5884 82.0573C58.9129 82.0573 59.9442 81.5607 60.6825 80.5675L63.0165 82.3195C61.75 84.1232 59.9623 85.025 57.6536 85.025C55.5764 85.025 53.948 84.3496 52.7682 82.9989C51.5958 81.6481 51.0095 80.0669 51.0095 78.2553C51.0095 76.9999 51.2954 75.8438 51.8672 74.787C52.4389 73.7303 53.2351 72.8999 54.2555 72.2961C55.2833 71.6922 56.4304 71.3903 57.697 71.3903C58.8695 71.3903 59.9225 71.6485 60.8562 72.165C61.7898 72.6735 62.5533 73.4005 63.1468 74.346Z" fill="#4D4D4D"/>
<path d="M70.4863 71.3903C71.6009 71.3903 72.6467 71.6962 73.6238 72.308C74.608 72.9198 75.3752 73.7501 75.9253 74.7989C76.4753 75.8478 76.7503 76.98 76.7504 78.1957C76.7504 79.4193 76.4717 80.5635 75.9144 81.6282C75.3644 82.693 74.6117 83.5272 73.6563 84.1311C72.701 84.727 71.6479 85.025 70.4972 85.025C68.8036 85.025 67.3561 84.3655 66.1547 83.0465C64.9605 81.7196 64.3634 80.1106 64.3634 78.2195C64.3634 76.1934 65.0401 74.505 66.3935 73.1542C67.5804 71.9782 68.9447 71.3903 70.4863 71.3903ZM70.5297 74.4533C69.6106 74.4533 68.8434 74.8069 68.2282 75.5141C67.6202 76.2133 67.3163 77.1111 67.3163 78.2076C67.3163 79.3359 67.6166 80.2497 68.2173 80.9489C68.8253 81.6481 69.5925 81.9977 70.5189 81.9977C71.4453 81.9977 72.2161 81.6441 72.8313 80.937C73.4464 80.2298 73.754 79.32 73.754 78.2076C73.754 77.0952 73.45 76.1934 72.8421 75.5021C72.2414 74.8029 71.4706 74.4533 70.5297 74.4533Z" fill="#4D4D4D"/>
<path d="M77.967 71.724H80.5074V73.3568C80.7824 72.7132 81.1479 72.2246 81.6039 71.8908C82.0598 71.5571 82.5592 71.3903 83.102 71.3903C83.4856 71.3903 83.8873 71.5015 84.3071 71.724L83.3843 74.5248C83.0369 74.3341 82.751 74.2388 82.5267 74.2388C82.0707 74.2388 81.6835 74.5487 81.365 75.1684C81.0538 75.7882 80.8982 77.0039 80.8982 78.8155L80.9091 79.4472V84.6913H77.967L77.967 71.724Z" fill="#4D4D4D"/>
<path d="M85.5237 71.724H88.4765V73.0469C89.1496 72.4272 89.7576 71.9981 90.3004 71.7597C90.8504 71.5134 91.4113 71.3903 91.9831 71.3903C93.1556 71.3903 94.1507 71.8392 94.9686 72.737C95.6561 73.4998 95.9999 74.6281 95.9999 76.1219V84.6913H93.0687V79.0062C93.0687 77.4568 93.0036 76.4278 92.8733 75.9193C92.7503 75.4108 92.5295 75.0254 92.2111 74.7632C91.8999 74.493 91.5127 74.358 91.0495 74.358C90.4488 74.358 89.9313 74.5804 89.497 75.0254C89.07 75.4624 88.7733 76.0703 88.6068 76.8489C88.52 77.2542 88.4765 78.1322 88.4765 79.4829V84.6913H85.5237V71.724Z" fill="#4D4D4D"/>
<path d="M21.9063 68.5721L22.0843 66.0708C20.6247 66.2272 19.9484 66.2662 19.1652 66.2662C18.8804 66.2662 18.4532 66.2662 17.8836 66.2272C16.4241 65.0547 14.7509 64.5466 12.4726 64.5466C7.9159 64.5466 4.74758 67.4387 4.74758 71.5423C4.74758 72.9884 5.21037 74.2781 6.06474 75.2942C6.74112 76.0759 7.27511 76.4276 8.52107 76.8966L5.99354 79.007C5.63755 79.2806 5.38836 80.1013 5.38836 80.883C5.38836 82.2899 6.02914 82.9934 7.80909 83.5015L4.92557 85.3774C4.39159 85.7292 4 86.7453 4 87.8005C4 91.2007 6.99032 93.3502 11.6894 93.3502C17.9192 93.3502 22.1199 89.7937 22.1199 84.5958C22.1199 81.3129 20.4467 79.7496 16.8512 79.7496H15.9969C12.4726 79.8668 11.191 79.9059 10.7994 79.9059C9.69584 79.9059 9.12625 79.5151 9.12625 78.7335C9.12625 78.1472 9.44664 77.6782 10.1586 77.2093C10.7994 77.2483 11.1554 77.2874 11.5826 77.2874C14.0389 77.2874 16.3173 76.3885 17.7768 74.7862C18.8804 73.5746 19.3432 72.2067 19.3432 70.2526C19.3432 69.6273 19.3076 69.1583 19.1652 68.4158L21.9063 68.5721ZM12.0454 66.5007C13.9321 66.5007 14.9645 68.1813 14.9645 71.2688C14.9645 74.0436 14.0033 75.4896 12.1166 75.4896C10.2654 75.4896 9.12625 73.7309 9.12625 70.7998C9.12625 67.9859 10.123 66.5007 12.0454 66.5007ZM12.7574 83.5406C17.1004 83.5406 18.1684 84.1659 18.1684 86.6672C18.1684 89.3638 15.7833 91.3961 12.615 91.3961C9.44665 91.3961 7.3463 89.7546 7.3463 87.3315C7.3463 85.8855 8.09388 84.5567 9.16185 83.9705C9.73143 83.6969 11.013 83.5406 12.7574 83.5406Z" fill="#4D4D4D"/>
<defs>
<linearGradient id="paint0_linear_5562_4249" x1="71.8185" y1="56.313" x2="11.5177" y2="59.3004" gradientUnits="userSpaceOnUse">
<stop stop-color="#959595"/>
<stop offset="1" stop-color="#CCCCCC"/>
</linearGradient>
</defs>
</svg>
