<svg width="100" height="100" viewBox="0 0 100 100" fill="none" xmlns="http://www.w3.org/2000/svg">
<path d="M16.455 23.8768C16.5002 23.9572 16.5655 24.0175 16.6459 24.0627L20.5154 26.2933C20.6763 26.3887 20.8722 26.3887 21.028 26.2933L24.8975 24.0627C25.0584 23.9723 25.1538 23.8015 25.1538 23.6156V19.1545C25.1538 18.9686 25.0584 18.7978 24.8975 18.7074L21.028 16.4768C20.8672 16.3813 20.6712 16.3813 20.5154 16.4768L16.6459 18.7074C16.4801 18.7978 16.3846 18.9686 16.3846 19.1545V23.6206C16.3846 23.711 16.4047 23.7964 16.455 23.8768Z" fill="#004B1D"/>
<path d="M51.0625 12.5454C52.2049 11.8457 53.6421 11.8455 54.8213 12.5454L83.1973 28.9028C84.3765 29.566 85.0771 30.819 85.0771 32.1821V64.897C85.077 66.26 84.3764 67.5122 83.1973 68.1753L54.8213 84.5327C53.6789 85.2326 52.2417 85.2325 51.0625 84.5327L22.6855 68.1753C22.096 67.8437 21.6168 67.4014 21.2852 66.812C20.9168 66.2226 20.7695 65.5961 20.7695 64.9331V32.1821C20.7695 30.819 21.4694 29.566 22.6855 28.9028L51.0625 12.5454ZM65.96 32.4399C63.9331 32.4399 62.3115 34.0611 62.3115 36.0874V54.2495L47.0547 36.0132L45.9492 34.687C44.7331 33.1765 42.7057 32.4761 40.9736 32.4761C38.5783 32.4761 36.8457 34.0606 36.8457 36.0132V61.0278C36.8457 63.0539 38.4674 64.6751 40.4941 64.6753C42.521 64.6753 44.1426 63.0541 44.1426 61.0278V42.9028L60.5059 62.4282C61.722 63.9386 63.7485 64.6391 65.4805 64.6392C67.8759 64.6392 69.6084 63.0546 69.6084 61.1021V36.0874C69.6084 34.0612 67.9867 32.4401 65.96 32.4399Z" fill="#009639"/>
</svg>
