<svg width="100" height="100" viewBox="0 0 100 100" fill="none" xmlns="http://www.w3.org/2000/svg">
<path d="M19.2332 71.1549H13.3352C13.1037 71.1613 12.9083 71.2449 12.749 71.4055C12.5897 71.5661 12.5067 71.7653 12.5 72.003V80.1496C13.1329 80.1338 13.6597 79.9149 14.0805 79.4927C14.5013 79.0705 14.7198 78.54 14.7359 77.901H19.2332C19.8727 77.8852 20.4055 77.6662 20.8314 77.244C21.2573 76.8218 21.4784 76.2913 21.4947 75.6523V73.4164C21.4784 72.7769 21.2573 72.2442 20.8314 71.8183C20.4055 71.3924 19.8727 71.1712 19.2332 71.1549ZM14.7359 75.935V73.4164H18.6807C18.7037 73.405 18.7958 73.428 18.9569 73.4855C19.1181 73.5431 19.2102 73.7042 19.2332 73.969V75.3696C19.2447 75.3931 19.2217 75.4874 19.1641 75.6523C19.1066 75.8172 18.9454 75.9114 18.6807 75.935H14.7359Z" fill="black"/>
<path d="M31.7717 75.0997V73.4164C31.7559 72.7769 31.5369 72.2442 31.1148 71.8183C30.6926 71.3924 30.162 71.1712 29.523 71.1549H23.6251C23.3879 71.1613 23.1909 71.2449 23.034 71.4055C22.8771 71.5661 22.7957 71.7653 22.7899 72.003V80.1496C23.4232 80.1338 23.9522 79.9149 24.3768 79.4927C24.8013 79.0705 25.0219 78.54 25.0385 77.901V77.3356H27.5956L28.8934 79.1859C29.1017 79.4847 29.363 79.7192 29.6772 79.8894C29.9915 80.0597 30.3427 80.1464 30.7309 80.1496C30.918 80.1494 31.0995 80.1274 31.2754 80.0838C31.4513 80.0402 31.6167 79.9764 31.7717 79.8926L29.9599 77.3099C30.4852 77.1961 30.9156 76.9386 31.2513 76.5373C31.587 76.136 31.7605 75.6568 31.7717 75.0997ZM25.0385 75.3696V73.4164H28.9577C28.9812 73.405 29.0754 73.428 29.2404 73.4855C29.4053 73.5431 29.4995 73.7042 29.523 73.969V74.817C29.5348 74.8401 29.5113 74.9322 29.4524 75.0933C29.3935 75.2545 29.2286 75.3466 28.9577 75.3696H25.0385Z" fill="black"/>
<path d="M39.7878 71.1549H35.3033C34.6643 71.1712 34.1337 71.3924 33.7116 71.8183C33.2894 72.2442 33.0704 72.7769 33.0546 73.4164V77.901C33.0704 78.54 33.2894 79.0705 33.7116 79.4927C34.1337 79.9149 34.6643 80.1338 35.3033 80.1496H39.7878C40.4268 80.1338 40.9574 79.9149 41.3796 79.4927C41.8017 79.0705 42.0207 78.54 42.0365 77.901V73.4164C42.0207 72.7769 41.8017 72.2442 41.3796 71.8183C40.9574 71.3924 40.4268 71.1712 39.7878 71.1549ZM39.7878 77.3356C39.7996 77.3592 39.776 77.4534 39.7172 77.6182C39.6583 77.7832 39.4933 77.8774 39.2224 77.901H35.8687C35.8451 77.9127 35.7509 77.8892 35.586 77.8303C35.4211 77.7714 35.3269 77.6065 35.3033 77.3356V73.969C35.2915 73.9459 35.3151 73.8539 35.374 73.6927C35.4329 73.5316 35.5978 73.4395 35.8687 73.4164H39.2224C39.246 73.405 39.3402 73.428 39.5051 73.4855C39.67 73.5431 39.7643 73.7042 39.7878 73.969V77.3356Z" fill="black"/>
<path d="M53.3678 71.7974C53.1729 71.6025 52.9459 71.4494 52.6868 71.338C52.4276 71.2267 52.1492 71.1699 51.8515 71.1678C51.5348 71.1703 51.2431 71.2328 50.9762 71.3557C50.7093 71.4786 50.4785 71.6473 50.2839 71.8617L48.3436 73.9947L46.3905 71.8617C46.1908 71.6416 45.9605 71.4714 45.6998 71.3509C45.439 71.2304 45.151 71.1694 44.8357 71.1678C44.538 71.1698 44.2596 71.2267 44.0004 71.338C43.7413 71.4494 43.5143 71.6025 43.3194 71.7974L46.8273 75.6523L43.3194 79.5072C43.5143 79.7082 43.7413 79.8651 44.0004 79.9778C44.2596 80.0905 44.538 80.1478 44.8357 80.1497C45.1467 80.1472 45.4369 80.0846 45.7062 79.9617C45.9755 79.8389 46.2079 79.6702 46.4033 79.4558L48.3436 77.3228L50.2839 79.4558C50.4785 79.6702 50.7093 79.8389 50.9762 79.9617C51.2431 80.0846 51.5348 80.1473 51.8515 80.1497C52.1492 80.1477 52.4276 80.0905 52.6868 79.9778C52.9459 79.8651 53.1729 79.7082 53.3678 79.5072L49.8599 75.6523L53.3678 71.7974Z" fill="black"/>
<path d="M65.0587 71.1549H63.6452C63.1829 71.1613 62.7712 71.2866 62.41 71.5308C62.0489 71.7749 61.7753 72.0994 61.5893 72.5041L61.6021 72.4784L60.2786 75.3824L58.9679 72.4784V72.5041C58.7875 72.0994 58.5155 71.7749 58.152 71.5308C57.7885 71.2866 57.3751 71.1613 56.912 71.1549H55.5114C55.2681 71.1613 55.0673 71.2449 54.9091 71.4055C54.7509 71.5661 54.669 71.7653 54.6633 72.003V80.1496C55.2967 80.1338 55.8257 79.9149 56.2503 79.4927C56.6748 79.0705 56.8954 78.54 56.912 77.901V73.5963C56.913 73.5377 56.9305 73.4911 56.965 73.4566C56.9995 73.4221 57.0461 73.4044 57.1048 73.4036C57.1382 73.4046 57.1709 73.4154 57.2027 73.4357C57.2346 73.4561 57.2576 73.4796 57.2718 73.5064L59.7646 79.006C59.8117 79.1043 59.8813 79.184 59.9734 79.2454C60.0655 79.3067 60.1672 79.3382 60.2786 79.3401C60.3892 79.3386 60.4893 79.3093 60.579 79.2518C60.6686 79.1942 60.7398 79.1166 60.7926 79.0189L63.2854 73.5064C63.305 73.4796 63.3301 73.4561 63.3609 73.4357C63.3917 73.4154 63.4265 73.4047 63.4653 73.4036C63.5178 73.4046 63.5606 73.422 63.5938 73.4566C63.627 73.4911 63.6441 73.5377 63.6452 73.5963V77.901C63.6618 78.54 63.8824 79.0705 64.307 79.4927C64.7315 79.9149 65.2605 80.1338 65.8939 80.1496V72.003C65.888 71.7653 65.8066 71.5661 65.6497 71.4055C65.4929 71.2449 65.2958 71.1613 65.0587 71.1549Z" fill="black"/>
<path d="M73.92 71.1549H69.4355C68.7965 71.1712 68.2659 71.3924 67.8438 71.8183C67.4216 72.2442 67.2026 72.7769 67.1868 73.4164V77.901C67.2026 78.54 67.4216 79.0705 67.8438 79.4927C68.2659 79.9149 68.7965 80.1338 69.4355 80.1496H73.92C74.559 80.1338 75.0896 79.9149 75.5118 79.4927C75.9339 79.0705 76.1529 78.54 76.1687 77.901V73.4164C76.1529 72.7769 75.9339 72.2442 75.5118 71.8183C75.0896 71.3924 74.559 71.1712 73.92 71.1549ZM73.92 77.3356C73.9318 77.3592 73.9083 77.4534 73.8494 77.6182C73.7905 77.7832 73.6256 77.8774 73.3547 77.901H70.0009C69.9773 77.9127 69.8831 77.8892 69.7182 77.8303C69.5533 77.7714 69.4591 77.6065 69.4355 77.3356V73.969C69.4237 73.9459 69.4473 73.8539 69.5062 73.6927C69.5651 73.5316 69.73 73.4395 70.0009 73.4164H73.3547C73.3782 73.405 73.4724 73.428 73.6374 73.4855C73.8023 73.5431 73.8965 73.7042 73.92 73.969V77.3356Z" fill="black"/>
<path d="M87.5 71.7974C87.3051 71.6025 87.0781 71.4494 86.819 71.338C86.5598 71.2267 86.2814 71.1699 85.9838 71.1678C85.6671 71.1703 85.3753 71.2328 85.1084 71.3557C84.8415 71.4786 84.6107 71.6473 84.4161 71.8617L82.4758 73.9947L80.5227 71.8617C80.323 71.6416 80.0928 71.4714 79.832 71.3509C79.5713 71.2304 79.2832 71.1694 78.9679 71.1678C78.6702 71.1698 78.3918 71.2267 78.1326 71.338C77.8735 71.4494 77.6465 71.6025 77.4516 71.7974L80.9596 75.6523L77.4516 79.5072C77.6465 79.7082 77.8735 79.8651 78.1326 79.9778C78.3918 80.0905 78.6702 80.1478 78.9679 80.1497C79.2789 80.1472 79.5691 80.0846 79.8384 79.9617C80.1077 79.8389 80.3401 79.6702 80.5355 79.4558L82.4758 77.3228L84.4161 79.4558C84.6107 79.6702 84.8415 79.8389 85.1084 79.9617C85.3753 80.0846 85.6671 80.1473 85.9838 80.1497C86.2814 80.1477 86.5598 80.0905 86.819 79.9778C87.0781 79.8651 87.3051 79.7082 87.5 79.5072L83.9921 75.6523L87.5 71.7974Z" fill="black"/>
<path d="M61.6775 40.4022L73.6833 53.5956C72.3639 54.9588 70.5169 55.7948 68.4934 55.7948C66.3387 55.7948 64.4478 54.8711 63.1284 53.4198L56.4879 46.1198L51.2983 40.4022L56.4879 34.7289L63.1284 27.4285C64.4478 25.9775 66.3387 25.0535 68.4934 25.0535C70.5169 25.0535 72.3639 25.8891 73.6833 27.2085L61.6775 40.4022Z" fill="#E57000"/>
<path d="M38.2617 40.4021L26.2559 53.5955C27.5753 54.9587 29.4223 55.7947 31.4458 55.7947C33.6005 55.7947 35.4914 54.871 36.8108 53.4196L43.4513 46.1196L48.6409 40.4021L43.4513 34.7287L36.8108 27.4283C35.4914 25.9774 33.6005 25.0533 31.4458 25.0533C29.4223 25.0533 27.5753 25.8889 26.2559 27.2084L38.2617 40.4021Z" fill="#E57000"/>
<path d="M54.7003 46.9439L49.9637 41.7253L45.2268 46.9439L34.2684 58.9863C35.4726 60.1905 37.1589 60.9532 39.0047 60.9532C40.9717 60.9532 42.6178 60.1501 43.8619 58.7855L49.9637 52.1222L56.0245 58.7855C57.2289 60.1097 58.9547 60.9532 60.9214 60.9532C62.7683 60.9532 64.4542 60.1905 65.6584 58.9863L54.7003 46.9439Z" fill="black"/>
<path d="M54.7 33.8596L49.9634 39.0782L45.2265 33.8596L34.2681 21.8172C35.4723 20.613 37.1586 19.8503 39.0044 19.8503C40.9715 19.8503 42.6175 20.6534 43.8616 22.018L49.9634 28.6813L56.0242 22.018C57.2286 20.6937 58.9544 19.8503 60.9212 19.8503C62.768 19.8503 64.4539 20.613 65.6581 21.8172L54.7 33.8596Z" fill="black"/>
</svg>
