<svg width="100" height="100" viewBox="0 0 100 100" fill="none" xmlns="http://www.w3.org/2000/svg">
<path d="M29.38 52H5.00002C4.46958 52 3.96088 51.7893 3.5858 51.4143C3.21073 51.0392 3.00002 50.5305 3.00002 50V47C2.99356 41.6623 4.78315 36.4775 8.08079 32.2802C11.3784 28.0828 15.9923 25.117 21.18 23.86C21.6681 23.7437 22.1821 23.8151 22.62 24.06C24.1363 24.8723 25.8298 25.2974 27.55 25.2974C29.2702 25.2974 30.9637 24.8723 32.48 24.06C32.9179 23.8151 33.4319 23.7437 33.92 23.86C36.6375 24.5243 39.2168 25.6616 41.54 27.22L39.3 30.54C37.5718 29.4033 35.6752 28.5461 33.68 28C31.7576 28.885 29.6663 29.3432 27.55 29.3432C25.4337 29.3432 23.3424 28.885 21.42 28C17.2731 29.1675 13.6206 31.6569 11.0179 35.0899C8.41512 38.523 7.00436 42.7119 7.00002 47.02V48H29.38V52Z" fill="#232F3E"/>
<path d="M27.5199 29.26C24.0403 29.26 20.7031 27.8777 18.2427 25.4172C15.7822 22.9568 14.3999 19.6196 14.3999 16.14C14.3999 12.6604 15.7822 9.32323 18.2427 6.86276C20.7031 4.40228 24.0403 3.02 27.5199 3.02C30.445 2.99228 33.2952 3.94438 35.6163 5.72458C37.9375 7.50478 39.596 10.0107 40.3277 12.8429C41.0593 15.6751 40.822 18.6708 39.6534 21.3524C38.4849 24.0341 36.4524 26.2475 33.8799 27.64V27.64C31.9285 28.7028 29.7419 29.2598 27.5199 29.26V29.26ZM27.5199 7.02C25.0887 7.00935 22.7525 7.9636 21.024 9.67337C19.2954 11.3831 18.3158 13.7088 18.2999 16.14C18.2975 17.7789 18.7387 19.3879 19.5767 20.7964C20.4147 22.2049 21.6184 23.3602 23.0599 24.14C24.4288 24.8839 25.962 25.2737 27.5199 25.2737C29.0779 25.2737 30.6111 24.8839 31.9799 24.14V24.14C33.769 23.1705 35.1816 21.6293 35.9919 19.7626C36.8022 17.896 36.9634 15.8116 36.4499 13.8425C35.9363 11.8735 34.7775 10.1333 33.1588 8.90023C31.54 7.66711 29.5547 7.01215 27.5199 7.04V7.02Z" fill="#232F3E"/>
<path d="M95.0001 52H70.6201V48H93.0001V47C92.9935 42.6919 91.5791 38.5039 88.9723 35.074C86.3655 31.644 82.7092 29.1599 78.5601 28C76.6402 28.8941 74.548 29.3574 72.4301 29.3574C70.3122 29.3574 68.22 28.8941 66.3001 28C64.2642 28.5603 62.3372 29.4595 60.6001 30.66L58.3401 27.38C60.6551 25.7498 63.2523 24.5631 66.0001 23.88C66.4863 23.7687 66.9962 23.8325 67.4401 24.06C68.9603 24.8827 70.6616 25.3136 72.3901 25.3136C74.1186 25.3136 75.8199 24.8827 77.3401 24.06C77.775 23.8269 78.2808 23.7628 78.7601 23.88C83.9515 25.1332 88.5699 28.0973 91.8715 32.295C95.173 36.4927 96.9655 41.6795 96.9601 47.02V50C96.9602 50.5236 96.755 51.0263 96.3885 51.4003C96.022 51.7742 95.5236 51.9895 95.0001 52Z" fill="#232F3E"/>
<path d="M72.4 29.26C69.1803 29.2553 66.0729 28.0758 63.6611 25.9428C61.2492 23.8098 59.6987 20.8699 59.3005 17.6749C58.9023 14.4799 59.6838 11.2494 61.4984 8.58962C63.3129 5.92988 66.0357 4.02377 69.1558 3.22903C72.276 2.43428 75.5789 2.80552 78.4447 4.27309C81.3105 5.74066 83.5423 8.20365 84.7211 11.1998C85.8999 14.196 85.9448 17.5194 84.8472 20.5464C83.7497 23.5733 81.5852 26.0956 78.76 27.6399C76.8087 28.7028 74.6221 29.2597 72.4 29.26ZM72.4 7.01995C69.9688 7.00931 67.6326 7.96356 65.9041 9.67333C64.1756 11.3831 63.1959 13.7087 63.18 16.1399C63.1776 17.7789 63.6188 19.3879 64.4568 20.7964C65.2949 22.2048 66.4985 23.3602 67.94 24.1399C69.3089 24.8839 70.8421 25.2736 72.4 25.2736C73.958 25.2736 75.4912 24.8839 76.86 24.1399V24.1399C78.66 23.1757 80.0833 21.6341 80.9011 19.7631C81.7189 17.8921 81.8837 15.8004 81.3689 13.8244C80.8541 11.8484 79.6897 10.103 78.063 8.86879C76.4362 7.63462 74.4416 6.98343 72.4 7.01995V7.01995Z" fill="#232F3E"/>
<path d="M81.8799 96.98H17.9999C17.4694 96.98 16.9607 96.7693 16.5857 96.3942C16.2106 96.0191 15.9999 95.5104 15.9999 94.98V90.74C15.9797 83.3646 18.4428 76.1971 22.9924 70.3922C27.5421 64.5872 33.9133 60.4827 41.0799 58.74C41.5655 58.6176 42.0793 58.6818 42.5199 58.92C44.7967 60.1368 47.3384 60.7733 49.9199 60.7733C52.5014 60.7733 55.0431 60.1368 57.3199 58.92C57.7604 58.6818 58.2743 58.6176 58.7599 58.74C65.9356 60.4718 72.3179 64.5721 76.8759 70.3785C81.434 76.1849 83.9015 83.3583 83.8799 90.74V94.98C83.8799 95.5104 83.6692 96.0191 83.2941 96.3942C82.919 96.7693 82.4103 96.98 81.8799 96.98V96.98ZM19.9999 92.98H79.8799V90.74C79.878 84.3938 77.7844 78.2251 73.9231 73.1887C70.0618 68.1524 64.6481 64.5292 58.5199 62.88C55.8387 64.1777 52.8986 64.8518 49.9199 64.8518C46.9412 64.8518 44.0011 64.1777 41.3199 62.88C35.1991 64.5366 29.7944 68.163 25.9408 73.1987C22.0872 78.2344 19.9994 84.399 19.9999 90.74V92.98Z" fill="#232F3E"/>
<path d="M50 64.78C46.9743 64.7862 43.9959 64.0295 41.34 62.58C37.8308 60.6628 35.0599 57.6317 33.4645 53.965C31.8692 50.2982 31.5403 46.2047 32.5296 42.3302C33.519 38.4558 35.7703 35.0211 38.9283 32.5682C42.0863 30.1152 45.9712 28.7837 49.97 28.7837C53.9687 28.7837 57.8536 30.1152 61.0117 32.5682C64.1697 35.0211 66.421 38.4558 67.4104 42.3302C68.3997 46.2047 68.0708 50.2982 66.4754 53.965C64.8801 57.6317 62.1092 60.6628 58.6 62.58V62.58C55.9619 64.0198 53.0054 64.7761 50 64.78V64.78ZM50 33.28C46.9337 33.2447 43.9438 34.2362 41.5061 36.0966C39.0684 37.9569 37.3231 40.5793 36.5481 43.5462C35.773 46.5131 36.0127 49.654 37.229 52.4689C38.4453 55.2839 40.5682 57.611 43.26 59.08C45.3229 60.1881 47.6282 60.7681 49.97 60.7681C52.3117 60.7681 54.617 60.1881 56.68 59.08C59.3837 57.6247 61.5211 55.3046 62.7502 52.4908C63.9793 49.6771 64.229 46.5324 63.4594 43.5599C62.6898 40.5875 60.9453 37.9591 58.5052 36.0954C56.065 34.2316 53.0702 33.2403 50 33.28Z" fill="#232F3E"/>
</svg>
