<svg width="100" height="100" viewBox="0 0 100 100" fill="none" xmlns="http://www.w3.org/2000/svg">
<path d="M91.8426 70.2573C91.7029 69.98 91.4892 69.7469 91.2251 69.5837C90.961 69.4205 90.6569 69.3336 90.3464 69.3327H83.622V24.8675C83.6131 23.301 82.9834 21.802 81.871 20.699C80.7586 19.5961 79.2543 18.9792 77.6877 18.9837H22.3963C20.8298 18.9792 19.3254 19.5961 18.213 20.699C17.1006 21.802 16.4709 23.301 16.462 24.8675V69.3327H9.65358C9.34313 69.3336 9.03901 69.4205 8.77492 69.5837C8.51084 69.7469 8.2971 69.98 8.1574 70.2573C8.03216 70.5259 7.9802 70.8229 8.00677 71.1182C8.03334 71.4134 8.1375 71.6964 8.3087 71.9384L14.6801 80.3439C14.8367 80.5527 15.0397 80.7221 15.2731 80.8388C15.5066 80.9555 15.764 81.0163 16.025 81.0163H83.9751C84.236 81.0163 84.4934 80.9555 84.7269 80.8388C84.9603 80.7221 85.1634 80.5527 85.3199 80.3439L91.6913 71.9384C91.8625 71.6964 91.9667 71.4134 91.9932 71.1182C92.0198 70.8229 91.9678 70.5259 91.8426 70.2573ZM19.8242 24.8675C19.8331 24.1927 20.1085 23.5489 20.5904 23.0764C21.0723 22.604 21.7215 22.3414 22.3963 22.3459H77.6037C77.9448 22.3324 78.2852 22.3874 78.6047 22.5076C78.9243 22.6279 79.2165 22.8109 79.4641 23.046C79.7117 23.281 79.9096 23.5633 80.0463 23.8762C80.183 24.1891 80.2556 24.5261 80.2598 24.8675V69.3327H19.8242V24.8675ZM83.1345 77.8222H16.8655L13.0158 72.7789H86.9842L83.1345 77.8222Z" fill="white"/>
<path d="M73.4015 31.7926C73.3323 31.6314 73.2356 31.4835 73.1157 31.3555C73.1205 31.322 73.1205 31.2881 73.1157 31.2546V31.2546C72.9665 31.0924 72.7826 30.966 72.5777 30.8848C72.3483 30.7916 72.1024 30.7458 71.8549 30.7503H63.4494V34.1125H67.753L51.9674 49.6795L44.6378 44.1823C44.3143 43.9375 43.9131 43.818 43.5084 43.8459C43.1037 43.8737 42.7226 44.0469 42.4356 44.3336L27.5747 59.1945C27.4171 59.3508 27.292 59.5367 27.2067 59.7416C27.1213 59.9465 27.0774 60.1662 27.0774 60.3881C27.0774 60.61 27.1213 60.8298 27.2067 61.0346C27.292 61.2395 27.4171 61.4254 27.5747 61.5817C27.7317 61.7375 27.918 61.8608 28.1229 61.9444C28.3277 62.0281 28.547 62.0705 28.7682 62.0692C28.9895 62.0705 29.2088 62.0281 29.4136 61.9444C29.6184 61.8608 29.8047 61.7375 29.9618 61.5817L43.7805 47.7462L51.1101 53.2434C51.4374 53.5023 51.8492 53.6302 52.2656 53.6022C52.6819 53.5743 53.073 53.3924 53.3628 53.0921L70.1738 36.4492V40.8369H73.536V32.4314C73.536 32.4314 73.536 32.3305 73.536 32.2801C73.5176 32.1114 73.4722 31.9468 73.4015 31.7926V31.7926Z" fill="white"/>
</svg>
