<svg width="101" height="101" viewBox="0 0 101 101" fill="none" xmlns="http://www.w3.org/2000/svg">
<path d="M67.3671 54.2799L58.5537 63.0799C60.1393 62.6376 61.6692 62.0158 63.1137 61.2266C63.5358 61.4884 63.8961 61.8385 64.17 62.2527C64.4439 62.667 64.6248 63.1357 64.7004 63.6266C64.7004 66.0666 59.5271 68.7199 51.8471 69.7999C49.478 70.1204 47.091 70.2896 44.7004 70.3066H43.3671C32.5937 70.0533 24.7004 66.6533 24.7004 63.6399C24.7759 63.1491 24.9569 62.6804 25.2308 62.2661C25.5047 61.8518 25.865 61.5017 26.2871 61.2399C30.4737 63.5733 37.2604 64.9599 44.7004 64.9599H44.8471L45.5937 62.2933C45.3004 62.2933 45.0071 62.2933 44.7004 62.2933C37.3671 62.2933 30.5671 60.8399 26.9537 58.5466C25.5137 57.5999 24.7137 56.5733 24.7004 55.6799V49.5066C28.7804 52.6266 36.9137 54.2533 44.7004 54.2533C45.7537 54.2533 46.8071 54.2533 47.8337 54.1599L48.5937 51.4933C47.2604 51.5866 46.0204 51.6266 44.7004 51.6266C33.2604 51.6266 24.7004 48.1199 24.7004 44.9599C24.7759 44.4691 24.9569 44.0004 25.2308 43.5861C25.5047 43.1718 25.865 42.8217 26.2871 42.5599C29.9671 44.6266 35.6204 45.9199 42.0337 46.2133L42.1004 43.5466C35.7937 43.2399 30.1004 41.8799 26.9537 39.8666C25.5271 38.9466 24.7271 37.9066 24.7004 36.9999V30.8399C28.7804 33.9599 36.9137 35.5866 44.7004 35.5866H44.9937L46.4071 32.9199H44.7004C33.2604 32.9199 24.7004 29.4133 24.7004 26.2533C24.7004 23.0933 33.2604 19.5866 44.7004 19.5866C48.5534 19.5703 52.3944 20.0179 56.1404 20.9199H63.4604C59.4604 18.4799 52.5537 16.9199 44.7004 16.9199C33.7137 16.9199 22.0337 20.1733 22.0337 26.2533V36.9866C22.0738 37.7469 22.2739 38.4903 22.6208 39.168C22.9677 39.8458 23.4537 40.4428 24.0471 40.9199C23.4462 41.405 22.9558 42.0128 22.6086 42.7026C22.2614 43.3924 22.0654 44.1483 22.0337 44.9199V55.5866C22.0645 56.3584 22.2601 57.1146 22.6074 57.8045C22.9546 58.4945 23.4455 59.1021 24.0471 59.5866C23.4462 60.0717 22.9558 60.6794 22.6086 61.3692C22.2614 62.059 22.0654 62.815 22.0337 63.5866V74.2533C22.0259 74.3464 22.0259 74.4401 22.0337 74.5333C22.3937 80.3866 33.8604 83.5333 44.7004 83.5333C55.5404 83.5333 67.0071 80.3866 67.3671 74.5066C67.3802 74.4137 67.3802 74.3195 67.3671 74.2266V63.5599C67.3415 62.7871 67.1482 62.0291 66.8005 61.3384C66.4529 60.6477 65.9592 60.0408 65.3537 59.5599C65.9553 59.0754 66.4461 58.4678 66.7934 57.7779C67.1407 57.0879 67.3363 56.3317 67.3671 55.5599V54.2799ZM64.7004 74.2799C64.7004 77.4266 56.1404 80.9466 44.7004 80.9466C33.2604 80.9466 24.7004 77.4666 24.7004 74.2799V68.1466C28.7804 71.2399 36.9137 72.8666 44.7004 72.8666C52.4871 72.8666 60.6204 71.2399 64.7004 68.1466V74.2799Z" fill="white"/>
<path d="M28.7004 38.6666C29.6208 38.6666 30.367 37.9204 30.367 36.9999C30.367 36.0794 29.6208 35.3333 28.7004 35.3333C27.7799 35.3333 27.0337 36.0794 27.0337 36.9999C27.0337 37.9204 27.7799 38.6666 28.7004 38.6666Z" fill="white"/>
<path d="M28.7004 57.3333C29.6208 57.3333 30.367 56.5871 30.367 55.6667C30.367 54.7462 29.6208 54 28.7004 54C27.7799 54 27.0337 54.7462 27.0337 55.6667C27.0337 56.5871 27.7799 57.3333 28.7004 57.3333Z" fill="white"/>
<path d="M28.7004 76C29.6208 76 30.367 75.2538 30.367 74.3333C30.367 73.4128 29.6208 72.6666 28.7004 72.6666C27.7799 72.6666 27.0337 73.4128 27.0337 74.3333C27.0337 75.2538 27.7799 76 28.7004 76Z" fill="white"/>
<path d="M48.0337 68.9466C47.799 68.9442 47.569 68.8798 47.3671 68.76C47.1074 68.6105 46.9057 68.3779 46.7944 68.0997C46.6832 67.8215 46.6688 67.514 46.7537 67.2266L54.2471 42.28H46.7004C46.4675 42.2829 46.2379 42.2249 46.0344 42.1115C45.831 41.9981 45.6608 41.8335 45.5407 41.6339C45.4207 41.4343 45.355 41.2067 45.3503 40.9738C45.3456 40.741 45.4019 40.5109 45.5137 40.3066L53.5137 24.3066C53.6245 24.0867 53.7941 23.9018 54.0035 23.7724C54.213 23.643 54.4542 23.574 54.7004 23.5733H72.0337C72.2497 23.5626 72.4651 23.6045 72.6613 23.6956C72.8575 23.7866 73.0286 23.924 73.1598 24.096C73.291 24.2679 73.3785 24.4691 73.4146 24.6824C73.4507 24.8956 73.4344 25.1144 73.3671 25.32L69.9537 35.5733H77.4337C77.6943 35.5743 77.9489 35.6516 78.166 35.7957C78.3831 35.9398 78.5532 36.1443 78.6553 36.384C78.7574 36.6237 78.7871 36.8881 78.7406 37.1445C78.6941 37.4009 78.5735 37.638 78.3937 37.8266L49.0604 68.4933C48.9325 68.6389 48.7744 68.755 48.5971 68.8332C48.4198 68.9115 48.2275 68.9502 48.0337 68.9466V68.9466ZM48.8604 39.6133H56.0337C56.2407 39.6133 56.4449 39.6615 56.63 39.7541C56.8152 39.8466 56.9762 39.981 57.1004 40.1466C57.2246 40.3122 57.3085 40.5045 57.3456 40.7081C57.3826 40.9118 57.3717 41.1213 57.3137 41.32L50.9004 62.6533L74.2471 38.2533H68.0337C67.8162 38.2649 67.5991 38.2229 67.4015 38.1312C67.2039 38.0394 67.0318 37.9006 66.9002 37.727C66.7686 37.5533 66.6816 37.3501 66.6468 37.135C66.612 36.9199 66.6304 36.6996 66.7004 36.4933L70.1137 26.2533H55.4471L48.8604 39.6133Z" fill="white"/>
</svg>
