<svg width="100" height="100" viewBox="0 0 100 100" fill="none" xmlns="http://www.w3.org/2000/svg">
<path d="M54 68.52H53.5867C53.3319 68.4375 53.1079 68.2801 52.9438 68.0685C52.7797 67.8568 52.6831 67.6006 52.6667 67.3333C51.8 59.12 48.6667 53.2533 43.9067 51.24C43.5815 51.1019 43.3245 50.8403 43.192 50.5129C43.0595 50.1854 43.0624 49.8187 43.2 49.4933C43.3351 49.1751 43.5884 48.9217 43.9067 48.7867C48.5734 46.76 51.76 40.8933 52.6667 32.6667C52.6865 32.4923 52.7406 32.3236 52.8258 32.1702C52.911 32.0168 53.0256 31.8818 53.1631 31.7728C53.3006 31.6638 53.4583 31.583 53.6271 31.535C53.7958 31.4871 53.9724 31.4729 54.1467 31.4933C54.4645 31.5317 54.758 31.6831 54.9734 31.92C57.96 35.2133 62.9734 41.9467 62.9734 50C62.9734 58.56 56.8667 66 54.9734 68.08C54.8502 68.2165 54.7002 68.326 54.5327 68.4017C54.3652 68.4774 54.1838 68.5177 54 68.52ZM47.12 50C50.9334 52.6667 53.6267 57.5467 54.8267 63.9733C57.0534 60.9733 60.2534 55.6667 60.2534 50C60.2534 44.3333 57.3334 39.3333 54.84 36C53.6534 42.4267 50.9467 47.3333 47.12 50Z" fill="white"/>
<path d="M42.6667 35.4533L42.2 36.8666L40.8 37.3333L42.2 37.8L42.6667 39.2133L43.1333 37.8L44.5467 37.3333L43.1333 36.8666L42.6667 35.4533Z" fill="white"/>
<path d="M42.6667 40.92L41.7734 38.2267L39.08 37.3333L41.7734 36.44L42.6667 33.7467L43.56 36.44L46.2534 37.3333L43.56 38.2267L42.6667 40.92Z" fill="white"/>
<path d="M66.6667 55.4533L66.2 56.8666L64.7867 57.3333L66.2 57.8L66.6667 59.2133L67.1333 57.8L68.5467 57.3333L67.1333 56.8666L66.6667 55.4533Z" fill="white"/>
<path d="M66.6667 60.52L65.8667 58.1333L63.48 57.3333L65.8667 56.5333L66.6667 54.1467L67.4667 56.5333L69.8533 57.3333L67.4667 58.1333L66.6667 60.52Z" fill="white"/>
<path d="M41.28 60.1066L40.6533 61.9866L38.7733 62.6133L40.6533 63.2266L41.28 65.1066L41.9067 63.2266L43.7733 62.6133L41.9067 61.9866L41.28 60.1066Z" fill="white"/>
<path d="M41.3333 66.76L40.2933 63.64L37.1333 62.6666L40.24 61.6266L41.3333 58.4666L42.3733 61.5733L45.48 62.6133L42.3733 63.64L41.3333 66.76ZM40.92 62.6666L41.1867 62.7466L41.28 63.0133L41.3333 62.6666L41.6 62.5866L41.3333 62.4933L41.2533 62.2266L41.16 62.4933L40.92 62.6666Z" fill="white"/>
<path d="M50.08 75.44C44.1142 75.4443 38.3382 73.3429 33.7698 69.5062C29.2013 65.6694 26.1334 60.3435 25.1067 54.4667C25.0466 54.1131 25.1294 53.75 25.3369 53.4575C25.5445 53.1649 25.8597 52.9668 26.2134 52.9067C26.567 52.8466 26.93 52.9294 27.2225 53.1369C27.5151 53.3445 27.7132 53.6597 27.7734 54.0133C28.7729 59.5884 31.8234 64.5873 36.3244 68.0256C40.8253 71.464 46.4505 73.0926 52.0922 72.5909C57.7339 72.0892 62.9833 69.4934 66.8069 65.3147C70.6304 61.1361 72.751 55.6773 72.751 50.0133C72.751 44.3494 70.6304 38.8906 66.8069 34.7119C62.9833 30.5333 57.7339 27.9375 52.0922 27.4358C46.4505 26.9341 40.8253 28.5627 36.3244 32.001C31.8234 35.4394 28.7729 40.4383 27.7734 46.0133C27.7418 46.1884 27.6761 46.3556 27.58 46.5053C27.4839 46.655 27.3592 46.7843 27.2131 46.8859C26.9181 47.0909 26.5536 47.1703 26.2 47.1067C25.8464 47.043 25.5325 46.8415 25.3275 46.5465C25.1225 46.2514 25.043 45.887 25.1067 45.5333C25.9755 40.8 28.1745 36.412 31.4464 32.883C34.7182 29.354 38.9276 26.8299 43.5818 25.6061C48.236 24.3824 53.1425 24.5097 57.7271 25.973C62.3116 27.4363 66.3845 30.1752 69.469 33.8691C72.5536 37.563 74.5222 42.0591 75.1445 46.8311C75.7667 51.6031 75.0169 56.4536 72.9827 60.815C70.9485 65.1763 67.7142 68.8681 63.6582 71.4581C59.6022 74.0481 54.8924 75.4293 50.08 75.44Z" fill="white"/>
<path d="M20.6667 51.3333H18C17.6464 51.3333 17.3072 51.1928 17.0572 50.9428C16.8071 50.6927 16.6667 50.3536 16.6667 50C16.6667 49.6464 16.8071 49.3072 17.0572 49.0572C17.3072 48.8071 17.6464 48.6667 18 48.6667H20.6667C21.0203 48.6667 21.3594 48.8071 21.6095 49.0572C21.8595 49.3072 22 49.6464 22 50C22 50.3536 21.8595 50.6927 21.6095 50.9428C21.3594 51.1928 21.0203 51.3333 20.6667 51.3333Z" fill="white"/>
<path d="M27.3333 51.3333H24.6667C24.3131 51.3333 23.9739 51.1928 23.7239 50.9428C23.4738 50.6927 23.3333 50.3536 23.3333 50C23.3333 49.6464 23.4738 49.3072 23.7239 49.0572C23.9739 48.8071 24.3131 48.6667 24.6667 48.6667H27.3333C27.687 48.6667 28.0261 48.8071 28.2762 49.0572C28.5262 49.3072 28.6667 49.6464 28.6667 50C28.6667 50.3536 28.5262 50.6927 28.2762 50.9428C28.0261 51.1928 27.687 51.3333 27.3333 51.3333Z" fill="white"/>
<path d="M34 51.3333H31.3333C30.9797 51.3333 30.6406 51.1928 30.3905 50.9428C30.1405 50.6927 30 50.3536 30 50C30 49.6464 30.1405 49.3072 30.3905 49.0572C30.6406 48.8071 30.9797 48.6667 31.3333 48.6667H34C34.3536 48.6667 34.6928 48.8071 34.9428 49.0572C35.1929 49.3072 35.3333 49.6464 35.3333 50C35.3333 50.3536 35.1929 50.6927 34.9428 50.9428C34.6928 51.1928 34.3536 51.3333 34 51.3333Z" fill="white"/>
<path d="M40.6667 51.3333H38C37.6464 51.3333 37.3073 51.1928 37.0572 50.9428C36.8072 50.6927 36.6667 50.3536 36.6667 50C36.6667 49.6464 36.8072 49.3072 37.0572 49.0572C37.3073 48.8071 37.6464 48.6667 38 48.6667H40.6667C41.0203 48.6667 41.3594 48.8071 41.6095 49.0572C41.8595 49.3072 42 49.6464 42 50C42 50.3536 41.8595 50.6927 41.6095 50.9428C41.3594 51.1928 41.0203 51.3333 40.6667 51.3333Z" fill="white"/>
</svg>
