<svg width="100" height="100" viewBox="0 0 100 100" fill="none" xmlns="http://www.w3.org/2000/svg">
<path d="M48.24 32.32H3V4H48.24V32.32ZM7 28.32H44.24V8H7V28.32Z" fill="#3B48CC"/>
<path d="M48.24 64.18H3V35.8199H48.24V64.18ZM7 60.18H44.24V39.8199H7V60.18Z" fill="#3B48CC"/>
<path d="M48.24 96.0001H3V67.6801H48.24V96.0001ZM7 92.0001H44.24V71.6801H7V92.0001Z" fill="#3B48CC"/>
<path d="M97 32.32H51.76V4H97V32.32ZM55.76 28.32H93V8H55.76V28.32Z" fill="#3B48CC"/>
<path d="M97 64.18H51.76V35.8199H97V64.18ZM55.76 60.18H93V39.8199H55.76V60.18Z" fill="#3B48CC"/>
<path d="M97 96.0001H51.76V67.6801H97V96.0001ZM55.76 92.0001H93V71.6801H55.76V92.0001Z" fill="#3B48CC"/>
<path d="M25.62 26.6801C23.927 26.6801 22.272 26.178 20.8644 25.2374C19.4567 24.2969 18.3595 22.96 17.7116 21.3958C17.0637 19.8317 16.8942 18.1106 17.2245 16.4501C17.5548 14.7896 18.3701 13.2644 19.5672 12.0672C20.7643 10.8701 22.2896 10.0548 23.9501 9.72454C25.6105 9.39425 27.3317 9.56377 28.8958 10.2117C30.4599 10.8595 31.7968 11.9567 32.7374 13.3644C33.678 14.7721 34.18 16.4271 34.18 18.1201C34.18 20.3903 33.2782 22.5676 31.6729 24.1729C30.0676 25.7782 27.8903 26.6801 25.62 26.6801ZM25.62 13.5601C24.7181 13.5601 23.8365 13.8275 23.0866 14.3286C22.3367 14.8296 21.7523 15.5418 21.4071 16.375C21.062 17.2083 20.9717 18.1251 21.1477 19.0097C21.3236 19.8942 21.7579 20.7067 22.3956 21.3445C23.0334 21.9822 23.8459 22.4165 24.7304 22.5924C25.615 22.7684 26.5318 22.6781 27.3651 22.333C28.1983 21.9878 28.9105 21.4034 29.4115 20.6535C29.9126 19.9036 30.18 19.0219 30.18 18.1201C30.18 17.5212 30.0621 16.9283 29.8329 16.375C29.6038 15.8218 29.2679 15.3191 28.8444 14.8957C28.421 14.4722 27.9183 14.1363 27.3651 13.9072C26.8118 13.678 26.2189 13.5601 25.62 13.5601Z" fill="#3B48CC"/>
<path d="M25.62 58.5599C23.927 58.5599 22.272 58.0579 20.8644 57.1173C19.4567 56.1767 18.3595 54.8399 17.7116 53.2757C17.0637 51.7116 16.8942 49.9905 17.2245 48.33C17.5548 46.6695 18.3701 45.1442 19.5672 43.9471C20.7643 42.75 22.2896 41.9347 23.9501 41.6044C25.6105 41.2741 27.3317 41.4437 28.8958 42.0915C30.4599 42.7394 31.7968 43.8366 32.7374 45.2443C33.678 46.652 34.18 48.3069 34.18 49.9999C34.18 52.2702 33.2782 54.4475 31.6729 56.0528C30.0676 57.6581 27.8903 58.5599 25.62 58.5599ZM25.62 45.4399C24.7181 45.4399 23.8365 45.7074 23.0866 46.2084C22.3367 46.7095 21.7523 47.4217 21.4071 48.2549C21.062 49.0881 20.9717 50.005 21.1477 50.8896C21.3236 51.7741 21.7579 52.5866 22.3956 53.2244C23.0334 53.8621 23.8459 54.2964 24.7304 54.4723C25.615 54.6483 26.5318 54.558 27.3651 54.2128C28.1983 53.8677 28.9105 53.2832 29.4115 52.5333C29.9126 51.7835 30.18 50.9018 30.18 49.9999C30.18 48.7906 29.6996 47.6307 28.8444 46.7755C27.9893 45.9204 26.8294 45.4399 25.62 45.4399Z" fill="#3B48CC"/>
<path d="M25.62 90.4399C23.927 90.4399 22.272 89.9379 20.8644 88.9973C19.4567 88.0567 18.3595 86.7198 17.7116 85.1557C17.0637 83.5916 16.8942 81.8705 17.2245 80.21C17.5548 78.5495 18.3701 77.0242 19.5672 75.8271C20.7643 74.63 22.2896 73.8147 23.9501 73.4844C25.6105 73.1541 27.3317 73.3237 28.8958 73.9715C30.4599 74.6194 31.7968 75.7166 32.7374 77.1243C33.678 78.532 34.18 80.1869 34.18 81.8799C34.18 84.1502 33.2782 86.3275 31.6729 87.9328C30.0676 89.5381 27.8903 90.4399 25.62 90.4399ZM25.62 77.3199C24.7181 77.3199 23.8365 77.5874 23.0866 78.0884C22.3367 78.5895 21.7523 79.3017 21.4071 80.1349C21.062 80.9681 20.9717 81.885 21.1477 82.7696C21.3236 83.6541 21.7579 84.4666 22.3956 85.1044C23.0334 85.7421 23.8459 86.1764 24.7304 86.3523C25.615 86.5283 26.5318 86.438 27.3651 86.0928C28.1983 85.7477 28.9105 85.1632 29.4115 84.4133C29.9126 83.6635 30.18 82.7818 30.18 81.8799C30.18 80.6706 29.6996 79.5107 28.8444 78.6555C27.9893 77.8004 26.8294 77.3199 25.62 77.3199Z" fill="#3B48CC"/>
</svg>
