<svg width="100" height="100" viewBox="0 0 100 100" fill="none" xmlns="http://www.w3.org/2000/svg">
<path d="M72.5 16.38H23.76C23.3696 16.3814 22.9874 16.2685 22.6605 16.0553C22.3335 15.842 22.0761 15.5378 21.92 15.18C21.7635 14.824 21.7142 14.43 21.7781 14.0464C21.842 13.6628 22.0165 13.3061 22.28 13.02L30.94 3.64005C31.1287 3.4365 31.3578 3.27447 31.6126 3.16429C31.8674 3.0541 32.1424 2.99817 32.42 3.00005H63.84C64.1142 3.00093 64.3853 3.0582 64.6365 3.1683C64.8877 3.2784 65.1135 3.43897 65.3 3.64005L74 13.02C74.2668 13.3039 74.445 13.6596 74.5125 14.0433C74.58 14.427 74.5339 14.8221 74.38 15.18C74.2212 15.5441 73.9576 15.8527 73.6228 16.0664C73.288 16.2802 72.8971 16.3893 72.5 16.38ZM28.32 12.38H68L62.96 7.00005H33.3L28.32 12.38Z" fill="#3F8624"/>
<path d="M74.5 27.4999H70.5V23.8799H25.76V27.4999H21.76V21.8799C21.76 21.3495 21.9707 20.8408 22.3458 20.4657C22.7209 20.0907 23.2296 19.8799 23.76 19.8799H72.5C73.0304 19.8799 73.5391 20.0907 73.9142 20.4657C74.2893 20.8408 74.5 21.3495 74.5 21.8799V27.4999Z" fill="#3F8624"/>
<path d="M48 96.9999C38 96.9999 23.14 94.7599 22.9 88.6199L16.22 38.9399C16.1166 38.4095 16.2281 37.8597 16.53 37.4115C16.832 36.9633 17.2996 36.6534 17.83 36.5499C18.3605 36.4465 18.9103 36.558 19.3585 36.86C19.8067 37.1619 20.1166 37.6295 20.22 38.1599C20.82 40.7999 32 44.6199 48 44.6199C64 44.6199 75.2 40.7999 76 38.1599C76.1035 37.6295 76.4134 37.1619 76.8616 36.86C77.3098 36.558 77.8596 36.4465 78.39 36.5499C78.9205 36.6534 79.3881 36.9633 79.69 37.4115C79.9919 37.8597 80.1035 38.4095 80 38.9399L73.14 88.6199C73.14 90.7999 71.14 92.6199 67.62 94.0399C66.0872 94.6134 64.5168 95.0812 62.92 95.4399C58.0189 96.5051 53.0155 97.0282 48 96.9999V96.9999ZM20.92 43.9999L26.92 88.2999C26.92 88.2999 26.92 88.4799 26.92 88.5799C27.42 89.9999 35.84 92.9999 48 92.9999C52.7062 93.0295 57.4012 92.5399 62 91.5399C63.4006 91.2318 64.7775 90.8241 66.12 90.3199C68.8 89.2599 69.12 88.4199 69.12 88.4199C69.111 88.3469 69.111 88.273 69.12 88.1999L75.12 43.8799C68.56 47.2799 56.6 48.6199 48.02 48.6199C39.44 48.6199 27.5 47.2799 20.92 43.9999Z" fill="#3F8624"/>
<path d="M48 48.6199C36.24 48.6199 18 46.0999 16.26 39.1799C16.2509 39.1002 16.2509 39.0197 16.26 38.9399V38.3199C16.26 38.2199 16.26 38.1399 16.26 38.0599C16.26 31.1199 32.76 26.4399 48.26 26.4399C63.76 26.4399 80 31.1199 80 37.9999V38.2599V38.8799V39.1199C78 46.0999 59.8 48.6199 48 48.6199ZM20.16 38.2599C21.08 40.8799 32.16 44.6199 48.02 44.6199C63.88 44.6199 74.98 40.8799 75.88 38.2599L76 37.9999C75.72 35.6999 64.96 30.4799 48.1 30.4799C31.24 30.4799 20.4 35.6599 20.14 37.9999L20.16 38.2599Z" fill="#3F8624"/>
<path d="M79.48 69.0201C74.88 69.0201 65.48 66.3401 47.14 57.3201L48.9 53.7201C60.9 59.6201 75.14 65.2601 79.36 65.2601C77.8257 63.8742 76.1099 62.7035 74.26 61.7801L74 61.6601L76 58.1601L76.22 58.2801C81.18 61.0201 83.48 63.0801 83.86 65.1801C83.9473 65.6508 83.9298 66.1349 83.8088 66.5981C83.6878 67.0613 83.4663 67.4922 83.16 67.8601C82.6687 68.3107 82.0846 68.6481 81.4488 68.8485C80.8129 69.0489 80.1409 69.1075 79.48 69.0201V69.0201Z" fill="#3F8624"/>
<path d="M48 59.2599C47.2603 59.2599 46.5372 59.0406 45.9222 58.6296C45.3071 58.2186 44.8278 57.6345 44.5447 56.9511C44.2616 56.2677 44.1876 55.5158 44.3319 54.7903C44.4762 54.0648 44.8324 53.3984 45.3554 52.8753C45.8785 52.3523 46.5449 51.9961 47.2704 51.8518C47.9959 51.7075 48.7479 51.7815 49.4312 52.0646C50.1146 52.3477 50.6988 52.827 51.1097 53.4421C51.5207 54.0571 51.74 54.7802 51.74 55.5199C51.74 56.5118 51.346 57.4631 50.6446 58.1645C49.9432 58.8659 48.9919 59.2599 48 59.2599ZM48 55.2599C47.9311 55.2599 47.8649 55.2873 47.8162 55.3361C47.7674 55.3848 47.74 55.451 47.74 55.5199C47.74 55.8199 48.28 55.8199 48.28 55.5199C48.2801 55.484 48.2728 55.4485 48.2585 55.4156C48.2442 55.3826 48.2232 55.353 48.1969 55.3286C48.1706 55.3042 48.1396 55.2855 48.1057 55.2737C48.0718 55.2618 48.0358 55.2571 48 55.2599Z" fill="#3F8624"/>
</svg>
