<svg width="100" height="100" viewBox="0 0 100 100" fill="none" xmlns="http://www.w3.org/2000/svg">
<path d="M75.5019 55.1323C74.4132 55.1283 73.3376 55.3699 72.3552 55.839L69.3419 50.039L73.0752 42.999C74.643 43.5549 76.3533 43.5613 77.9252 43.0171C79.4971 42.4728 80.8373 41.4103 81.7257 40.004C82.6142 38.5977 82.9981 36.9311 82.8145 35.2778C82.6308 33.6245 81.8906 32.0828 80.7152 30.9057C80.0342 30.2244 79.2256 29.6839 78.3357 29.3151C77.4457 28.9464 76.4919 28.7566 75.5285 28.7566C74.5652 28.7566 73.6114 28.9464 72.7214 29.3151C71.8315 29.6839 71.0229 30.2244 70.3419 30.9057C69.4679 31.7845 68.8301 32.8697 68.4875 34.0608C68.1448 35.2519 68.1085 36.5102 68.3819 37.719L63.6486 39.1857L58.3819 29.279L58.4752 29.1857C59.4673 28.1934 60.1539 26.9373 60.4536 25.5665C60.7532 24.1957 60.6532 22.7677 60.1656 21.452C59.6779 20.1363 58.823 18.9881 57.7023 18.1437C56.5816 17.2993 55.2422 16.7942 53.8431 16.6882C52.4439 16.5823 51.0437 16.88 49.8087 17.546C48.5736 18.212 47.5556 19.2184 46.8753 20.4456C46.1951 21.6729 45.8813 23.0696 45.9711 24.4699C46.0608 25.8702 46.5505 27.2153 47.3819 28.3457L41.6752 36.2124C39.2293 34.7205 36.4303 33.9068 33.5658 33.855C30.7013 33.8032 27.8746 34.5151 25.3764 35.9176C22.8782 37.32 20.7985 39.3625 19.351 41.8349C17.9036 44.3074 17.1407 47.1207 17.1407 49.9857C17.1407 52.8507 17.9036 55.664 19.351 58.1364C20.7985 60.6089 22.8782 62.6513 25.3764 64.0538C27.8746 65.4563 30.7013 66.1682 33.5658 66.1164C36.4303 66.0646 39.2293 65.2509 41.6752 63.759L47.3552 71.639C46.5203 72.768 46.0271 74.1128 45.9341 75.5139C45.8412 76.9149 46.1524 78.3132 46.8308 79.5425C47.5092 80.7719 48.5262 81.7806 49.7611 82.4489C50.996 83.1172 52.3968 83.4169 53.797 83.3124C55.1972 83.208 56.538 82.7037 57.6601 81.8596C58.7821 81.0154 59.6382 79.8669 60.1267 78.5505C60.6151 77.2341 60.7154 75.8052 60.4156 74.4334C60.1157 73.0617 59.4284 71.8049 58.4352 70.8124L58.3552 70.7324L63.5285 60.959L68.1286 62.4123V62.519C68.1286 63.9694 68.5586 65.3872 69.3644 66.5932C70.1702 67.7992 71.3156 68.7391 72.6555 69.2941C73.9955 69.8492 75.47 69.9944 76.8926 69.7114C78.3151 69.4285 79.6217 68.7301 80.6473 67.7045C81.6729 66.6789 82.3714 65.3722 82.6543 63.9497C82.9373 62.5272 82.792 61.0527 82.237 59.7127C81.682 58.3727 80.742 57.2274 79.5361 56.4216C78.3301 55.6158 76.9123 55.1857 75.4619 55.1857L75.5019 55.1323ZM72.2086 32.799C73.1017 31.9323 74.2973 31.4476 75.5419 31.4476C76.7864 31.4476 77.982 31.9323 78.8752 32.799C79.5183 33.4554 79.9533 34.287 80.1257 35.1896C80.2981 36.0923 80.2001 37.0257 79.8442 37.8728C79.4882 38.72 78.89 39.4432 78.1246 39.9518C77.3593 40.4604 76.4608 40.7317 75.5419 40.7317C74.623 40.7317 73.7245 40.4604 72.9591 39.9518C72.1938 39.4432 71.5956 38.72 71.2396 37.8728C70.8836 37.0257 70.7857 36.0923 70.9581 35.1896C71.1304 34.287 71.5654 33.4554 72.2086 32.799V32.799ZM69.4219 40.1857C69.6811 40.58 69.9805 40.9464 70.3152 41.279L70.7419 41.6657L67.8219 47.1857L64.8752 41.599L69.4219 40.1857ZM49.9819 20.6523C50.8553 19.7683 52.0442 19.2674 53.2869 19.2599C54.5297 19.2524 55.7245 19.7389 56.6086 20.6123C57.4926 21.4858 57.9935 22.6747 58.001 23.9174C58.0085 25.1601 57.522 26.355 56.6486 27.239C55.757 28.1088 54.5608 28.5957 53.3152 28.5957C52.0697 28.5957 50.8734 28.1088 49.9819 27.239C49.1107 26.3644 48.6215 25.1802 48.6215 23.9457C48.6215 22.7112 49.1107 21.527 49.9819 20.6523V20.6523ZM49.3419 30.1323C50.5346 30.897 51.9252 31.2957 53.3419 31.279C54.3172 31.2783 55.2827 31.0834 56.1819 30.7057L61.0619 40.039L48.3019 44.039C47.4927 41.996 46.2614 40.1468 44.6885 38.6123C44.4085 38.3323 44.1285 38.0657 43.8352 37.8123L49.3419 30.1323ZM23.7552 59.4657C21.8712 57.5826 20.588 55.1831 20.0678 52.5706C19.5476 49.9582 19.8139 47.2501 20.833 44.789C21.8521 42.3279 23.5781 40.2243 25.7928 38.7443C28.0076 37.2642 30.6115 36.4743 33.2752 36.4743C35.939 36.4743 38.5429 37.2642 40.7576 38.7443C42.9723 40.2243 44.6984 42.3279 45.7174 44.789C46.7365 47.2501 47.0028 49.9582 46.4826 52.5706C45.9625 55.1831 44.6792 57.5826 42.7952 59.4657C40.267 61.9792 36.8469 63.39 33.2819 63.39C29.7169 63.39 26.2967 61.9792 23.7685 59.4657H23.7552ZM56.5952 79.239C55.7037 80.1088 54.5074 80.5957 53.2619 80.5957C52.0163 80.5957 50.8201 80.1088 49.9285 79.239C49.2854 78.5826 48.8504 77.751 48.6781 76.8484C48.5057 75.9458 48.6036 75.0124 48.9596 74.1652C49.3156 73.318 49.9138 72.5948 50.6791 72.0862C51.4445 71.5777 52.343 71.3064 53.2619 71.3064C54.1808 71.3064 55.0793 71.5777 55.8446 72.0862C56.61 72.5948 57.2082 73.318 57.5642 74.1652C57.9201 75.0124 58.0181 75.9458 57.8457 76.8484C57.6733 77.751 57.2383 78.5826 56.5952 79.239V79.239ZM56.1685 69.199C55.0728 68.732 53.8798 68.5389 52.6926 68.6365C51.5055 68.7341 50.36 69.1194 49.3552 69.759L43.8619 62.119C44.1552 61.8657 44.4219 61.6124 44.6885 61.3457C46.2132 59.8265 47.4111 58.0115 48.2086 56.0123L60.9819 60.0124L56.1685 69.199ZM62.2485 57.7057L49.0086 53.519C49.5218 51.2049 49.5218 48.8065 49.0086 46.4923L62.2485 42.399L66.2485 50.0524L62.2485 57.7057ZM68.7019 59.7324L64.8352 58.519L67.7952 52.9057L70.1819 57.439C69.5357 58.0932 69.0318 58.874 68.7019 59.7324V59.7324ZM78.8085 65.759C77.9154 66.6257 76.7198 67.1104 75.4752 67.1104C74.2307 67.1104 73.0351 66.6257 72.1419 65.759C71.4988 65.1026 71.0638 64.271 70.8914 63.3684C70.719 62.4658 70.817 61.5324 71.1729 60.6852C71.5289 59.838 72.1271 59.1148 72.8925 58.6062C73.6578 58.0977 74.5563 57.8264 75.4752 57.8264C76.3941 57.8264 77.2926 58.0977 78.058 58.6062C78.8233 59.1148 79.4215 59.838 79.7775 60.6852C80.1335 61.5324 80.2314 62.4658 80.059 63.3684C79.8867 64.271 79.4517 65.1026 78.8085 65.759V65.759ZM40.0086 48.6123V51.279H34.6752V56.6123H32.0086V51.279H26.6752V48.6123H32.0086V43.279H34.6752V48.6123H40.0086Z" fill="white"/>
</svg>
