<svg width="100" height="100" viewBox="0 0 100 100" fill="none" xmlns="http://www.w3.org/2000/svg">
<path d="M49.6729 91.9997C49.3828 92.0053 49.0968 91.9298 48.8473 91.7816L13.3908 71.3427C13.1394 71.1976 12.9306 70.9886 12.7856 70.737C12.6407 70.4853 12.5646 70.1999 12.5652 69.9095V28.5021C12.5646 28.2118 12.6407 27.9263 12.7856 27.6747C12.9306 27.4231 13.1394 27.2141 13.3908 27.0689L45.9964 8.28138C46.2387 8.11192 46.5241 8.01487 46.8194 8.00158C47.1148 7.98828 47.4078 8.0593 47.6642 8.20632C47.9207 8.35334 48.13 8.5703 48.2678 8.83186C48.4056 9.09342 48.4661 9.38878 48.4422 9.68344V27.6142C48.4411 27.8925 48.3689 28.1658 48.2326 28.4084C48.0963 28.6511 47.9004 28.8549 47.6633 29.0007L31.3527 38.3477V60.064L49.7197 70.6729L65.781 61.3258C66.0178 61.1891 66.2865 61.1171 66.5599 61.1171C66.8334 61.1171 67.102 61.1891 67.3388 61.3258L82.7926 70.2055C83.0441 70.3507 83.2529 70.5597 83.3978 70.8113C83.5428 71.0629 83.6188 71.3483 83.6183 71.6387C83.6261 71.9284 83.553 72.2146 83.4072 72.465C83.2613 72.7155 83.0485 72.9203 82.7926 73.0564L50.4674 91.7504C50.2301 91.9041 49.9555 91.9903 49.6729 91.9997ZM15.7276 68.7879L50.5142 88.8684L80.378 71.6076L67.9152 64.4259L51.3554 73.9911C51.0963 74.1371 50.8038 74.2139 50.5064 74.2139C50.2089 74.2139 49.9165 74.1371 49.6574 73.9911L28.9692 62.058C28.719 61.9154 28.5108 61.7091 28.3658 61.4602C28.2209 61.2113 28.1442 60.9285 28.1436 60.6404V37.5065C28.1357 37.2167 28.2088 36.9306 28.3547 36.6802C28.5005 36.4297 28.7134 36.2249 28.9692 36.0888L45.2798 26.7418V12.4408L15.6809 29.5771L15.7276 68.7879Z" fill="white"/>
<path d="M85.7366 67.9469C85.4477 67.943 85.1641 67.8681 84.911 67.7288L69.4728 58.8023C69.2169 58.6662 69.0041 58.4614 68.8582 58.211C68.7124 57.9606 68.6393 57.6744 68.6471 57.3847V38.5193L52.3365 29.1099C52.0863 28.9672 51.8781 28.761 51.7331 28.5121C51.5882 28.2631 51.5115 27.9803 51.5109 27.6923V9.76152C51.5044 9.47602 51.5766 9.19424 51.7195 8.94698C51.8623 8.69971 52.0704 8.49647 52.321 8.35947C52.5578 8.22274 52.8264 8.15076 53.0999 8.15076C53.3734 8.15076 53.642 8.22274 53.8788 8.35947L86.609 27.1626C86.8593 27.3053 87.0674 27.5115 87.2124 27.7604C87.3574 28.0094 87.4341 28.2922 87.4347 28.5802V66.2332C87.4352 66.5236 87.3592 66.809 87.2142 67.0607C87.0693 67.3123 86.8605 67.5212 86.609 67.6664C86.3491 67.8374 86.0475 67.9343 85.7366 67.9469V67.9469ZM71.8095 56.3409L84.2723 63.507V29.624L54.6733 12.4877V26.7108L71.0306 36.1825C71.2865 36.3186 71.4993 36.5234 71.6452 36.7738C71.791 37.0243 71.8641 37.3104 71.8563 37.6001L71.8095 56.3409Z" fill="white"/>
</svg>
