<svg width="100" height="100" viewBox="0 0 100 100" fill="none" xmlns="http://www.w3.org/2000/svg">
<path d="M29.3411 65.9903H60.2034C59.3832 66.9451 58.4919 67.8364 57.5371 68.6566H29.3411C26.0075 68.7357 22.7698 67.5372 20.2912 65.3065C17.8127 63.0758 16.2809 59.9818 16.0096 56.6583C16.0096 56.365 16.0096 56.0717 16.0096 55.7651C15.9006 53.0371 16.7191 50.3527 18.3315 48.1496C19.9439 45.9464 22.2552 44.3545 24.8884 43.6335C24.8884 43.2869 24.8884 42.9536 24.8884 42.607C24.9684 39.4223 25.8993 36.317 27.5843 33.6134C29.2694 30.9099 31.6472 28.7065 34.4712 27.232C37.2951 25.7574 40.4621 25.0655 43.6437 25.2279C46.8253 25.3903 49.9054 26.4012 52.5645 28.1557C53.6455 28.8542 54.6547 29.658 55.5774 30.5553L56.004 30.9953C57.528 32.5782 58.7722 34.4084 59.6834 36.4078C59.8301 36.2879 59.9901 36.1812 60.1501 36.0746C60.0589 37.4164 59.8898 38.7518 59.6435 40.074C59.4434 40.134 59.2302 40.134 59.0302 40.074C58.7944 40.0389 58.5723 39.9413 58.3871 39.7912C58.2019 39.6412 58.0603 39.4442 57.977 39.2208C57.0892 36.6789 55.635 34.3721 53.7243 32.4751C51.6388 30.3145 48.9615 28.8183 46.0285 28.1743C43.0955 27.5303 40.0376 27.7673 37.2388 28.8555C34.44 29.9437 32.0252 31.8345 30.2975 34.2906C28.5698 36.7466 27.6063 39.6584 27.528 42.6603C27.5299 43.275 27.5655 43.8892 27.6347 44.5C27.6738 44.8378 27.5824 45.1777 27.3792 45.4503C27.176 45.7229 26.8763 45.9075 26.5415 45.9665C23.5552 46.7397 18.6759 49.0194 18.6759 55.8184C18.6759 56.0717 18.6759 56.325 18.6759 56.565C18.9253 59.1963 20.166 61.6343 22.1465 63.3846C24.127 65.1349 26.6991 66.0664 29.3411 65.9903Z" fill="white"/>
<path d="M84 55.8983C84 65.3236 76.9877 68.6565 70.4153 68.6565H68.3356L68.4822 68.4698C69.0821 67.6833 69.6687 66.8567 70.2286 65.9902H70.4153C73.6948 65.9902 81.3337 65.0036 81.3337 55.8983C81.3337 50.4324 78.1208 47.0195 71.7884 45.7397C71.5003 45.6815 71.2395 45.5296 71.0466 45.3078C70.8537 45.086 70.7396 44.8066 70.7219 44.5132C70.7458 43.3561 70.5146 42.208 70.0445 41.1504C69.5745 40.0928 68.8772 39.1517 68.0023 38.3941C68.1223 37.4076 68.1889 36.4477 68.2289 35.5278V35.4212C69.6919 36.2079 70.9291 37.356 71.8229 38.7561C72.7167 40.1562 73.2372 41.7618 73.3349 43.42C80.2006 45.0598 84 49.4858 84 55.8983Z" fill="white"/>
<path d="M49.3382 63.3239H36.0068C35.6532 63.3239 35.3141 63.1834 35.0641 62.9334C34.8141 62.6834 34.6737 62.3443 34.6737 61.9907V33.9947C34.6737 33.6411 34.8141 33.302 35.0641 33.052C35.3141 32.802 35.6532 32.6616 36.0068 32.6616H49.3382C49.6918 32.6616 50.0309 32.802 50.2809 33.052C50.5309 33.302 50.6714 33.6411 50.6714 33.9947V61.9907C50.6714 62.3443 50.5309 62.6834 50.2809 62.9334C50.0309 63.1834 49.6918 63.3239 49.3382 63.3239ZM37.3399 60.6576H48.0051V35.3278H37.3399V60.6576Z" fill="white"/>
<path d="M46.672 37.9942H38.6731V40.6605H46.672V37.9942Z" fill="white"/>
<path d="M46.672 43.3267H38.6731V45.993H46.672V43.3267Z" fill="white"/>
<path d="M66.6691 51.8588L60.35 54.4185C60.0236 54.5425 59.6632 54.5425 59.3368 54.4185C59.1743 54.35 59.027 54.2499 58.9034 54.124C58.7798 53.9982 58.6824 53.849 58.6169 53.6853L56.1106 47.5261L58.5769 46.5129L59.7901 49.5258C61.4997 44.9682 62.5328 40.1848 62.8563 35.3279V34.8879C62.963 30.6485 62.0164 27.7556 60.19 26.9824C58.7236 26.3558 56.8838 27.209 55.5907 28.0356L54.1509 25.7959C57.4704 23.6628 59.8434 23.9295 61.2432 24.5427C64.0961 25.7959 65.5759 29.462 65.4559 34.8879V35.4212C65.1156 40.6877 63.9877 45.8735 62.1098 50.8057L65.6692 49.3259L66.6691 51.8588Z" fill="white"/>
<path d="M75.5745 60.3643L73.0682 61.3242L71.855 57.9913C70.2885 61.112 68.4553 64.0916 66.3758 66.8967L65.296 68.2299C61.2965 73.2158 57.2971 75.8954 54.0176 75.8954C53.2839 75.8971 52.5577 75.7473 51.8845 75.4555C51.0614 75.0549 50.3327 74.4841 49.7467 73.7809C49.1606 73.0776 48.7306 72.258 48.485 71.3761H51.3779C51.6969 72.0882 52.2528 72.6677 52.9511 73.0158C55.2441 74.0157 59.1902 71.5361 63.2296 66.5501C63.5629 66.1235 63.9095 65.7102 64.2428 65.2169C66.1662 62.6122 67.8696 59.8519 69.3354 56.9648L66.0959 58.1513L65.176 55.645L71.5751 53.3253C71.7377 53.2575 71.9121 53.2225 72.0883 53.2225C72.2645 53.2225 72.439 53.2575 72.6016 53.3253C72.9174 53.4754 73.1615 53.7435 73.2815 54.0719L75.5745 60.3643Z" fill="white"/>
</svg>
