<svg width="100" height="100" viewBox="0 0 100 100" fill="none" xmlns="http://www.w3.org/2000/svg">
<path d="M80.2757 26.5515H76.7013V11.5745H23.2987V26.5515H19.7242V8H80.2757V26.5515Z" fill="#A166FF"/>
<path d="M80.2757 92H19.7242V44.9779H23.2987V88.4256H76.7013V44.9779H80.2757V92Z" fill="#A166FF"/>
<path d="M71.7864 18.0621H28.2136V21.6366H71.7864V18.0621Z" fill="#A166FF"/>
<path d="M71.7864 28.1064H28.4281V31.6809H71.7864V28.1064Z" fill="#A166FF"/>
<path d="M71.7864 38.1685H28.2136V41.743H71.7864V38.1685Z" fill="#A166FF"/>
<path d="M71.7864 48.2128H28.2136V51.7872H71.7864V48.2128Z" fill="#A166FF"/>
<path d="M71.7864 58.2749H28.2136V61.8494H71.7864V58.2749Z" fill="#A166FF"/>
<path d="M71.7864 68.3192H28.2136V71.8936H71.7864V68.3192Z" fill="#A166FF"/>
<path d="M71.7864 78.3813H28.2136V81.9558H71.7864V78.3813Z" fill="#A166FF"/>
<path d="M14.8094 45.0851C14.5345 45.0903 14.2631 45.0224 14.023 44.8885C13.7249 44.7425 13.4734 44.5163 13.2966 44.2354C13.1198 43.9544 13.0248 43.6298 13.0221 43.2979V28.2136C13.0221 27.8817 13.1146 27.5564 13.289 27.274C13.4635 26.9917 13.7132 26.7635 14.0101 26.6151C14.307 26.4666 14.6393 26.4038 14.9699 26.4336C15.3004 26.4634 15.6162 26.5847 15.8817 26.7838L25.9438 34.326C26.1658 34.4924 26.346 34.7083 26.47 34.9565C26.5941 35.2046 26.6587 35.4783 26.6587 35.7558C26.6587 36.0332 26.5941 36.3069 26.47 36.555C26.346 36.8032 26.1658 37.0191 25.9438 37.1855L15.8817 44.7277C15.5723 44.9597 15.1961 45.0851 14.8094 45.0851V45.0851ZM16.5966 31.7881V39.7234L21.9583 35.7558L16.5966 31.7881Z" fill="#A166FF"/>
<path d="M85.1906 45.0851C84.8039 45.0851 84.4277 44.9597 84.1183 44.7277L74.0562 37.1855C73.8342 37.0191 73.654 36.8032 73.53 36.555C73.4059 36.3069 73.3413 36.0332 73.3413 35.7557C73.3413 35.4783 73.4059 35.2046 73.53 34.9565C73.654 34.7083 73.8342 34.4924 74.0562 34.326L84.1183 26.766C84.3838 26.5668 84.6996 26.4455 85.0301 26.4157C85.3607 26.3859 85.693 26.4488 85.9899 26.5972C86.2868 26.7456 86.5365 26.9738 86.7109 27.2561C86.8854 27.5385 86.9779 27.8638 86.9779 28.1957V43.28C86.9752 43.6119 86.8802 43.9365 86.7034 44.2175C86.5266 44.4984 86.2751 44.7246 85.977 44.8706C85.7386 45.0108 85.4672 45.0848 85.1906 45.0851V45.0851ZM78.0417 35.7557L83.4034 39.7234V31.7881L78.0417 35.7557Z" fill="#A166FF"/>
</svg>
