<svg width="100" height="100" viewBox="0 0 100 100" fill="none" xmlns="http://www.w3.org/2000/svg">
<path d="M50.1036 91.9999C49.7111 92.0007 49.3306 91.864 49.0284 91.6135L38.8476 83.2135C38.5819 82.9923 38.391 82.6946 38.3008 82.3608C38.2106 82.0271 38.2255 81.6737 38.3436 81.3487C38.461 81.0241 38.6756 80.7434 38.9581 80.545C39.2407 80.3466 39.5775 80.2401 39.9228 80.2399H44.9628V75.2H48.3228V81.9199C48.3228 82.3655 48.1458 82.7928 47.8307 83.1079C47.5157 83.4229 47.0884 83.5999 46.6428 83.5999H44.5932L50.0868 88.1359L55.4796 83.5999H53.3628C52.9172 83.5999 52.4899 83.4229 52.1749 83.1079C51.8598 82.7928 51.6828 82.3655 51.6828 81.9199V75.2H55.0428V80.2399H60.0828C60.4248 80.2433 60.7576 80.351 61.0368 80.5486C61.316 80.7462 61.5282 81.0243 61.6451 81.3457C61.762 81.6672 61.778 82.0166 61.6909 82.3474C61.6039 82.6782 61.418 82.9745 61.158 83.1967L51.1788 91.5967C50.8789 91.8533 50.4982 91.996 50.1036 91.9999Z" fill="white"/>
<path d="M65.0724 29L64.6692 32.36C67.4358 32.5632 70.1638 33.128 72.7836 34.04C69.81 35.3336 61.4268 36.56 50.0028 36.56C38.2428 36.56 29.8428 35.216 27.1716 34.04C29.5908 33.0152 36.546 31.6376 48.3228 31.52V28.16C25.458 28.3952 23.1228 32.3432 23.1228 34.04C23.1153 34.1519 23.1153 34.2642 23.1228 34.376C23.1569 34.5819 23.2251 34.7806 23.3244 34.964L23.6604 35.552C23.7346 35.6857 23.8249 35.8098 23.9292 35.9216C24.1001 36.0891 24.2856 36.2409 24.4836 36.3752L43.2828 65.6912V70.1768C43.2817 70.5201 43.3857 70.8555 43.581 71.1378C43.7762 71.4201 44.0533 71.6359 44.3748 71.756C46.2112 72.4518 48.1566 72.8159 50.1204 72.8312C52.0229 72.8256 53.9061 72.4489 55.6644 71.7224C55.9743 71.599 56.2405 71.3861 56.429 71.1108C56.6175 70.8356 56.7198 70.5104 56.7228 70.1768V65.6744L75.438 36.392C75.8601 36.1565 76.2146 35.8165 76.4676 35.4047C76.7205 34.9929 76.8635 34.523 76.8828 34.04C76.8828 32.2424 75.4884 30.2432 65.0724 29ZM53.6316 64.28C53.4569 64.5504 53.3636 64.8653 53.3628 65.1872V68.984C51.1744 69.664 48.8312 69.664 46.6428 68.984V65.1872C46.642 64.8653 46.5487 64.5504 46.374 64.28L29.6916 38.2232C36.3914 39.4413 43.1939 40.0039 50.0028 39.9032C56.8 39.9875 63.5898 39.425 70.2804 38.2232L53.6316 64.28Z" fill="white"/>
<path d="M60.0828 33.2H53.3628C52.9172 33.2 52.4899 33.023 52.1748 32.7079C51.8598 32.3929 51.6828 31.9656 51.6828 31.52V24.8C51.6828 24.3544 51.8598 23.9271 52.1748 23.6121C52.4899 23.297 52.9172 23.12 53.3628 23.12H60.0828C60.5284 23.12 60.9557 23.297 61.2707 23.6121C61.5858 23.9271 61.7628 24.3544 61.7628 24.8V31.52C61.7628 31.9656 61.5858 32.3929 61.2707 32.7079C60.9557 33.023 60.5284 33.2 60.0828 33.2ZM55.0428 29.84H58.4028V26.48H55.0428V29.84Z" fill="white"/>
<path d="M56.7228 18.08H50.0028C49.5572 18.08 49.1299 17.903 48.8149 17.5879C48.4998 17.2729 48.3228 16.8456 48.3228 16.4V9.68C48.3228 9.23444 48.4998 8.80712 48.8149 8.49206C49.1299 8.177 49.5572 8 50.0028 8H56.7228C57.1684 8 57.5957 8.177 57.9107 8.49206C58.2258 8.80712 58.4028 9.23444 58.4028 9.68V16.4C58.4028 16.8456 58.2258 17.2729 57.9107 17.5879C57.5957 17.903 57.1684 18.08 56.7228 18.08ZM51.6828 14.72H55.0428V11.36H51.6828V14.72Z" fill="white"/>
<path d="M43.2828 26.48H36.5628C36.1172 26.48 35.6899 26.303 35.3748 25.988C35.0598 25.6729 34.8828 25.2456 34.8828 24.8V18.08C34.8828 17.6345 35.0598 17.2071 35.3748 16.8921C35.6899 16.577 36.1172 16.4 36.5628 16.4H43.2828C43.7284 16.4 44.1557 16.577 44.4707 16.8921C44.7858 17.2071 44.9628 17.6345 44.9628 18.08V24.8C44.9628 25.2456 44.7858 25.6729 44.4707 25.988C44.1557 26.303 43.7284 26.48 43.2828 26.48ZM38.2428 23.12H41.6028V19.76H38.2428V23.12Z" fill="white"/>
</svg>
