<svg width="100" height="100" viewBox="0 0 100 100" fill="none" xmlns="http://www.w3.org/2000/svg">
<path d="M80.4658 69.6973V58.894C82.1009 58.6197 83.6289 57.9004 84.8822 56.8151C86.1355 55.7297 87.0657 54.3202 87.5708 52.7411C88.0759 51.162 88.1364 49.4743 87.7457 47.863C87.355 46.2518 86.5281 44.7793 85.3558 43.6069C84.1835 42.4346 82.7109 41.6077 81.0997 41.217C79.4885 40.8263 77.8008 40.8868 76.2216 41.3919C74.6425 41.8971 73.233 42.8273 72.1477 44.0806C71.0623 45.3339 70.343 46.8619 70.0687 48.4969H59.2654C58.9518 46.6516 58.0724 44.9493 56.7488 43.6258C55.4252 42.3022 53.723 41.4227 51.8776 41.1092V33.3302C54.5131 32.9498 56.9067 31.5852 58.5767 29.5111C60.2467 27.4371 61.0691 24.8074 60.8784 22.1515C60.6877 19.4955 59.4981 17.0103 57.549 15.1961C55.5998 13.3818 53.0358 12.3732 50.373 12.3732C47.7102 12.3732 45.1462 13.3818 43.197 15.1961C41.2479 17.0103 40.0582 19.4955 39.8675 22.1515C39.6769 24.8074 40.4993 27.4371 42.1692 29.5111C43.8392 31.5852 46.2328 32.9498 48.8683 33.3302V41.1092C47.023 41.4227 45.3207 42.3022 43.9972 43.6258C42.6736 44.9493 41.7942 46.6516 41.4806 48.4969H31.4446C31.1676 46.7121 30.4017 45.0387 29.2318 43.6625C28.0619 42.2863 26.5338 41.261 24.8168 40.7001C23.0998 40.1393 21.2611 40.0649 19.5044 40.4852C17.7477 40.9055 16.1418 41.8041 14.8645 43.0813C13.5873 44.3585 12.6888 45.9645 12.2685 47.7212C11.8482 49.4778 11.9225 51.3166 12.4834 53.0336C13.0442 54.7506 14.0696 56.2787 15.4458 57.4486C16.822 58.6184 18.4953 59.3843 20.2802 59.6614V69.6973C18.0482 70.0746 16.0394 71.2766 14.6519 73.0651C13.2643 74.8536 12.5993 77.0982 12.7886 79.3539C12.9779 81.6096 14.0077 83.7119 15.6739 85.2441C17.3401 86.7764 19.5212 87.6267 21.7848 87.6267C24.0485 87.6267 26.2295 86.7764 27.8957 85.2441C29.5619 83.7119 30.5917 81.6096 30.781 79.3539C30.9703 77.0982 30.3053 74.8536 28.9178 73.0651C27.5302 71.2766 25.5214 70.0746 23.2895 69.6973V59.6614C25.3358 59.3373 27.227 58.3737 28.692 56.9087C30.157 55.4437 31.1206 53.5525 31.4446 51.5062H41.4806C41.7942 53.3516 42.6736 55.0538 43.9972 56.3774C45.3207 57.701 47.023 58.5804 48.8683 58.894V68.1776C46.4344 68.5566 44.2332 69.84 42.7044 71.7714C41.1756 73.7029 40.4319 76.14 40.622 78.5959C40.812 81.0518 41.9218 83.3456 43.7295 85.0188C45.5372 86.692 47.9097 87.6215 50.373 87.6215C52.8362 87.6215 55.2088 86.692 57.0165 85.0188C58.8242 83.3456 59.934 81.0518 60.124 78.5959C60.314 76.14 59.5704 73.7029 58.0416 71.7714C56.5128 69.84 54.3115 68.5566 51.8776 68.1776V58.894C53.723 58.5804 55.4252 57.701 56.7488 56.3774C58.0724 55.0538 58.9518 53.3516 59.2654 51.5062H70.0687C70.3823 53.3516 71.2618 55.0538 72.5853 56.3774C73.9089 57.701 75.6112 58.5804 77.4565 58.894V69.6973C75.2245 70.0746 73.2157 71.2766 71.8282 73.0651C70.4406 74.8536 69.7756 77.0982 69.9649 79.3539C70.1542 81.6096 71.184 83.7119 72.8503 85.2441C74.5165 86.7764 76.6975 87.6267 78.9612 87.6267C81.2248 87.6267 83.4058 86.7764 85.0721 85.2441C86.7383 83.7119 87.7681 81.6096 87.9574 79.3539C88.1467 77.0982 87.4817 74.8536 86.0941 73.0651C84.7066 71.2766 82.6978 70.0746 80.4658 69.6973ZM27.8034 78.5897C27.8034 79.7801 27.4504 80.9437 26.7891 81.9335C26.1277 82.9232 25.1878 83.6946 24.088 84.1502C22.9883 84.6057 21.7781 84.7249 20.6107 84.4927C19.4432 84.2604 18.3708 83.6872 17.5291 82.8455C16.6873 82.0038 16.1141 80.9314 15.8819 79.7639C15.6497 78.5964 15.7689 77.3863 16.2244 76.2865C16.6799 75.1868 17.4513 74.2468 18.4411 73.5855C19.4308 72.9242 20.5945 72.5712 21.7848 72.5712C23.381 72.5712 24.9119 73.2053 26.0406 74.334C27.1693 75.4627 27.8034 76.9935 27.8034 78.5897ZM21.7848 56.7725C20.4457 56.7725 19.1366 56.3754 18.0231 55.6314C16.9097 54.8874 16.0418 53.8299 15.5293 52.5927C15.0169 51.3555 14.8828 49.9941 15.144 48.6806C15.4053 47.3672 16.0502 46.1608 16.9971 45.2138C17.944 44.2669 19.1505 43.6221 20.4639 43.3608C21.7773 43.0995 23.1387 43.2336 24.3759 43.7461C25.6131 44.2586 26.6706 45.1264 27.4146 46.2399C28.1586 47.3533 28.5557 48.6624 28.5557 50.0016C28.5517 51.7961 27.8371 53.516 26.5682 54.7849C25.2992 56.0539 23.5794 56.7685 21.7848 56.7725ZM42.8498 22.9181C42.8498 21.4301 43.291 19.9756 44.1177 18.7384C44.9443 17.5012 46.1193 16.5369 47.494 15.9675C48.8687 15.3981 50.3813 15.2491 51.8407 15.5394C53.3001 15.8297 54.6406 16.5462 55.6927 17.5983C56.7448 18.6505 57.4613 19.991 57.7516 21.4504C58.0419 22.9097 57.8929 24.4224 57.3235 25.7971C56.7541 27.1717 55.7898 28.3467 54.5527 29.1734C53.3155 30 51.8609 30.4413 50.373 30.4413C48.3777 30.4413 46.4642 29.6486 45.0533 28.2378C43.6424 26.8269 42.8498 24.9133 42.8498 22.9181ZM57.1439 77.8374C57.1439 79.1766 56.7468 80.4857 56.0028 81.5991C55.2588 82.7126 54.2013 83.5804 52.9641 84.0929C51.7269 84.6054 50.3655 84.7395 49.0521 84.4782C47.7386 84.217 46.5322 83.5721 45.5853 82.6252C44.6383 81.6782 43.9935 80.4718 43.7322 79.1584C43.471 77.8449 43.605 76.4835 44.1175 75.2463C44.63 74.0091 45.4978 72.9516 46.6113 72.2077C47.7248 71.4637 49.0338 71.0665 50.373 71.0665C52.1675 71.0705 53.8874 71.7852 55.1563 73.0541C56.4253 74.323 57.1399 76.0429 57.1439 77.8374ZM50.373 56.0201C49.1826 56.0201 48.019 55.6672 47.0293 55.0058C46.0395 54.3445 45.2681 53.4045 44.8126 52.3048C44.357 51.205 44.2378 49.9949 44.4701 48.8274C44.7023 47.6599 45.2755 46.5875 46.1172 45.7458C46.9589 44.9041 48.0313 44.3309 49.1988 44.0987C50.3663 43.8664 51.5764 43.9856 52.6762 44.4412C53.7759 44.8967 54.7159 45.6681 55.3772 46.6578C56.0386 47.6476 56.3916 48.8112 56.3916 50.0016C56.3916 51.5978 55.7575 53.1286 54.6288 54.2573C53.5001 55.386 51.9692 56.0201 50.373 56.0201ZM72.9426 50.0016C72.9426 48.8112 73.2956 47.6476 73.9569 46.6578C74.6182 45.6681 75.5582 44.8967 76.658 44.4412C77.7577 43.9856 78.9678 43.8664 80.1353 44.0987C81.3028 44.3309 82.3752 44.9041 83.2169 45.7458C84.0586 46.5875 84.6318 47.6599 84.8641 48.8274C85.0963 49.9949 84.9771 51.205 84.5216 52.3048C84.066 53.4045 83.2946 54.3445 82.3049 55.0058C81.3151 55.6672 80.1515 56.0201 78.9612 56.0201C77.3649 56.0201 75.8341 55.386 74.7054 54.2573C73.5767 53.1286 72.9426 51.5978 72.9426 50.0016ZM78.9612 84.6083C77.7708 84.6083 76.6072 84.2553 75.6174 83.594C74.6277 82.9327 73.8563 81.9927 73.4007 80.893C72.9452 79.7932 72.826 78.5831 73.0582 77.4156C73.2905 76.2481 73.8637 75.1757 74.7054 74.334C75.5471 73.4923 76.6195 72.9191 77.787 72.6868C78.9545 72.4546 80.1646 72.5738 81.2644 73.0293C82.3641 73.4848 83.3041 74.2563 83.9654 75.246C84.6267 76.2358 84.9797 77.3994 84.9797 78.5897C84.9797 80.186 84.3456 81.7168 83.2169 82.8455C82.0882 83.9742 80.5574 84.6083 78.9612 84.6083Z" fill="white"/>
<path d="M21.7848 53.0108C23.4468 53.0108 24.7941 51.6635 24.7941 50.0016C24.7941 48.3396 23.4468 46.9923 21.7848 46.9923C20.1228 46.9923 18.7755 48.3396 18.7755 50.0016C18.7755 51.6635 20.1228 53.0108 21.7848 53.0108Z" fill="white"/>
<path d="M50.373 80.8467C52.0349 80.8467 53.3822 79.4994 53.3822 77.8374C53.3822 76.1754 52.0349 74.8281 50.373 74.8281C48.711 74.8281 47.3637 76.1754 47.3637 77.8374C47.3637 79.4994 48.711 80.8467 50.373 80.8467Z" fill="white"/>
</svg>
