<svg width="67" height="68" viewBox="0 0 67 68" fill="none" xmlns="http://www.w3.org/2000/svg">
<path d="M47.9333 21.64C47.9333 17.7734 40.3467 15.9867 33.2667 15.9867C26.1867 15.9867 18.6 17.7734 18.6 21.64C18.5942 21.8334 18.6167 22.0265 18.6667 22.2134V46.28C18.6 50.28 26.2 51.9867 33.3333 51.9867C40.4667 51.9867 48 50.2267 48 46.36V21.64H47.9333ZM33.2933 18.6667C41.0667 18.6667 45.2933 20.7867 45.2933 21.6534C45.2933 22.52 41.0933 24.64 33.2933 24.64C25.4933 24.64 21.2933 22.5334 21.2933 21.6534C21.2933 20.7734 25.52 18.6667 33.2933 18.6667ZM45.2933 46.3734C45.2933 47.2267 41.08 49.3334 33.2933 49.3334C25.5067 49.3334 21.2933 47.2267 21.2933 46.3734V42.16C24.1067 43.6934 28.8267 44.4267 33.2933 44.4267C37.76 44.4267 42.44 43.7067 45.2933 42.2V46.3734ZM45.2933 38.7867C45.2933 39.64 41.0933 41.7734 33.2933 41.7734C25.4933 41.7734 21.2933 39.64 21.2933 38.7867H21.3333V33.6934C24.1467 35.2134 28.8667 35.9467 33.3333 35.9467C37.8 35.9467 42.48 35.2267 45.3333 33.72L45.2933 38.7867ZM45.2933 30.2934C45.2933 31.16 41.0933 33.2934 33.2933 33.2934C25.4933 33.2934 21.2933 31.16 21.2933 30.2934H21.3333V25.0934C24.1733 26.6 28.84 27.2934 33.3333 27.2934C37.8267 27.2934 42.5467 26.5734 45.3333 25.04L45.2933 30.2934Z" fill="white"/>
<path d="M4.54667 64.68H13.3333V67.3467H1.33333C0.979711 67.3467 0.640573 67.2062 0.390525 66.9562C0.140476 66.7061 0 66.367 0 66.0134V54.0133H2.66667V62.7734L12.6667 52.7867L14.5333 54.6667L4.54667 64.68Z" fill="white"/>
<path d="M66.6666 54.0133V66.0133C66.6666 66.3669 66.5262 66.706 66.2761 66.9561C66.0261 67.2061 65.6869 67.3466 65.3333 67.3466H53.3333V64.68H62.12L52.2666 54.8L54.1466 52.9333L64 62.7733V54.0133H66.6666Z" fill="white"/>
<path d="M66.6666 2.01327V14.0133H64V5.21327L54.1466 15.0666L52.2666 13.1866L62.1066 3.3466H53.3333V0.679932H65.3333C65.6869 0.679932 66.0261 0.820408 66.2761 1.07046C66.5262 1.3205 66.6666 1.65964 66.6666 2.01327Z" fill="white"/>
<path d="M14.5333 13.3333L12.6667 15.2L2.66667 5.21332V13.9867H0V1.98665C0 1.63303 0.140476 1.29389 0.390525 1.04384C0.640573 0.793796 0.979711 0.65332 1.33333 0.65332H13.3333V3.31999H4.54667L14.5333 13.3333Z" fill="white"/>
<path d="M12.88 45.9467C4.73335 43.0134 0.0666809 38.5334 0.0666809 33.6667C0.0666809 28.8 4.73335 24.3334 12.88 21.3867L13.7867 23.8934C6.86668 26.3867 2.73335 30.04 2.73335 33.6667C2.73335 37.2934 6.86668 40.9467 13.7867 43.4401L12.88 45.9467Z" fill="white"/>
<path d="M53.04 46.2401L52.1867 43.7067C59.5867 41.2134 64 37.4534 64 33.6667C64 29.8801 59.5867 26.12 52.1867 23.6134L53.04 21.0934C61.6933 24.0001 66.6667 28.6134 66.6667 33.6667C66.6667 38.7201 61.6933 43.3067 53.04 46.2401Z" fill="white"/>
</svg>
