<svg width="100" height="100" viewBox="0 0 100 100" fill="none" xmlns="http://www.w3.org/2000/svg">
<path d="M84.2 72.1312H15.8C15.3969 72.1312 15.0103 71.971 14.7252 71.686C14.4402 71.4009 14.28 71.0143 14.28 70.6112V27.8688C14.28 27.4656 14.4402 27.079 14.7252 26.794C15.0103 26.5089 15.3969 26.3488 15.8 26.3488H84.2C84.6032 26.3488 84.9898 26.5089 85.2748 26.794C85.5599 27.079 85.72 27.4656 85.72 27.8688V70.6112C85.72 71.0143 85.5599 71.4009 85.2748 71.686C84.9898 71.971 84.6032 72.1312 84.2 72.1312ZM17.32 69.0912H82.68V29.3888H17.32V69.0912Z" fill="#D86613"/>
<path d="M24.4487 33.5687H21.4087V64.9263H24.4487V33.5687Z" fill="#D86613"/>
<path d="M32.9912 33.5687H29.9512V64.9263H32.9912V33.5687Z" fill="#D86613"/>
<path d="M70.0488 33.5687H67.0088V64.9263H70.0488V33.5687Z" fill="#D86613"/>
<path d="M78.5913 33.5687H75.5513V64.9263H78.5913V33.5687Z" fill="#D86613"/>
<path d="M58.9224 60.7312H41.0776C40.3963 60.7312 39.7429 60.4605 39.2612 59.9788C38.7794 59.4971 38.5088 58.8437 38.5088 58.1624V40.3176C38.5088 39.6363 38.7794 38.9829 39.2612 38.5012C39.7429 38.0194 40.3963 37.7488 41.0776 37.7488H58.9224C59.6037 37.7488 60.2571 38.0194 60.7388 38.5012C61.2206 38.9829 61.4912 39.6363 61.4912 40.3176V58.1624C61.4912 58.8437 61.2206 59.4971 60.7388 59.9788C60.2571 60.4605 59.6037 60.7312 58.9224 60.7312ZM41.5488 57.6912H58.4512V40.7888H41.5488V57.6912Z" fill="#D86613"/>
<path d="M42.9775 34.9976H39.9375V39.2688H42.9775V34.9976Z" fill="#D86613"/>
<path d="M48.6777 34.9976H45.6377V39.2688H48.6777V34.9976Z" fill="#D86613"/>
<path d="M54.3776 34.9976H51.3376V39.2688H54.3776V34.9976Z" fill="#D86613"/>
<path d="M60.0776 34.9976H57.0376V39.2688H60.0776V34.9976Z" fill="#D86613"/>
<path d="M42.9775 59.2112H39.9375V63.4824H42.9775V59.2112Z" fill="#D86613"/>
<path d="M48.6777 59.2112H45.6377V63.4824H48.6777V59.2112Z" fill="#D86613"/>
<path d="M54.3776 59.2112H51.3376V63.4824H54.3776V59.2112Z" fill="#D86613"/>
<path d="M60.0776 59.2112H57.0376V63.4824H60.0776V59.2112Z" fill="#D86613"/>
<path d="M40.0288 39.1776H35.7576V42.2176H40.0288V39.1776Z" fill="#D86613"/>
<path d="M40.0288 44.8776H35.7576V47.9176H40.0288V44.8776Z" fill="#D86613"/>
<path d="M40.0288 50.5776H35.7576V53.6176H40.0288V50.5776Z" fill="#D86613"/>
<path d="M40.0288 56.2776H35.7576V59.3176H40.0288V56.2776Z" fill="#D86613"/>
<path d="M64.2424 39.1776H59.9712V42.2176H64.2424V39.1776Z" fill="#D86613"/>
<path d="M64.2424 44.8776H59.9712V47.9176H64.2424V44.8776Z" fill="#D86613"/>
<path d="M64.2424 50.5776H59.9712V53.6176H64.2424V50.5776Z" fill="#D86613"/>
<path d="M64.2424 56.2776H59.9712V59.3176H64.2424V56.2776Z" fill="#D86613"/>
</svg>
