<svg width="100" height="100" viewBox="0 0 100 100" fill="none" xmlns="http://www.w3.org/2000/svg">
<path d="M50 88C49.7536 88.0017 49.511 87.9386 49.2966 87.8171L16.9406 69.135C16.7259 69.0111 16.5478 68.8326 16.4243 68.6177C16.3008 68.4027 16.2362 68.159 16.2372 67.9111V30.547C16.2362 30.2991 16.3008 30.0553 16.4243 29.8404C16.5478 29.6255 16.7259 29.447 16.9406 29.3231L46.483 12.1885C46.6969 12.065 46.9395 12 47.1864 12C47.4334 12 47.676 12.065 47.8898 12.1885C48.1045 12.3124 48.2826 12.4909 48.4061 12.7058C48.5297 12.9207 48.5942 13.1645 48.5932 13.4124V29.6044C48.5942 29.8523 48.5297 30.0961 48.4061 30.311C48.2826 30.5259 48.1045 30.7044 47.8898 30.8283L33.1186 39.4519V58.964L50 68.713L64.729 60.2723C64.9429 60.1488 65.1855 60.0838 65.4324 60.0838C65.6793 60.0838 65.9219 60.1488 66.1358 60.2723L80.2036 68.3894C80.4201 68.5121 80.6002 68.69 80.7255 68.9051C80.8508 69.1201 80.9168 69.3645 80.9168 69.6133C80.9168 69.8622 80.8508 70.1066 80.7255 70.3216C80.6002 70.5366 80.4201 70.7145 80.2036 70.8372L50.7034 87.8171C50.489 87.9386 50.2464 88.0017 50 88ZM19.0508 67.0952L50 84.9754L76.7289 69.5008L65.4746 63.0014L50.7034 71.5687C50.4895 71.6922 50.2469 71.7572 50 71.7572C49.7531 71.7572 49.5105 71.6922 49.2966 71.5687L31.0084 61.0038C30.7938 60.8799 30.6156 60.7014 30.4921 60.4865C30.3686 60.2715 30.3041 60.0278 30.305 59.7799V38.6782C30.3041 38.4303 30.3686 38.1865 30.4921 37.9716C30.6156 37.7567 30.7938 37.5782 31.0084 37.4543L45.7797 28.8588V15.8461L19.0508 31.3207V67.0952Z" fill="white"/>
<path d="M82.356 66.0823C82.1096 66.084 81.867 66.021 81.6526 65.8994L67.5848 57.8104C67.3686 57.6936 67.1926 57.5143 67.0796 57.296C66.9667 57.0778 66.9222 56.8305 66.9517 56.5865V39.4519L52.1102 31.0112C51.8955 30.8873 51.7174 30.7088 51.5938 30.4939C51.4703 30.279 51.4058 30.0352 51.4068 29.7873V13.5671C51.4058 13.3193 51.4703 13.0755 51.5938 12.8606C51.7174 12.6457 51.8955 12.4672 52.1102 12.3432C52.3266 12.2275 52.5682 12.1669 52.8136 12.1669C53.059 12.1669 53.3006 12.2275 53.517 12.3432L83.0594 29.3231C83.2741 29.4471 83.4522 29.6255 83.5757 29.8404C83.6992 30.0554 83.7638 30.2991 83.7628 30.547V64.6755C83.7628 65.0486 83.6146 65.4065 83.3507 65.6703C83.0869 65.9341 82.7291 66.0823 82.356 66.0823ZM69.6949 55.7847L80.9492 62.2277V31.3629L54.2203 16.0009V28.9855L68.9916 37.4262C69.2042 37.5489 69.381 37.7252 69.5044 37.9374C69.6278 38.1497 69.6935 38.3905 69.6949 38.636V55.7847Z" fill="white"/>
<path d="M42.9661 59.8362V38.7345H45.7796V48.3428L54.9237 38.7345H58.6376L49.0997 49.004L59.4676 59.8362H55.6271L45.7796 49.9887V59.8362H42.9661Z" fill="white"/>
</svg>
