<svg width="100" height="100" viewBox="0 0 100 100" fill="none" xmlns="http://www.w3.org/2000/svg">
<path d="M24.7979 32.7559H9.67979C9.23428 32.7559 8.80702 32.9328 8.492 33.2479C8.17698 33.5629 8 33.9901 8 34.4356V88.1888C8 88.6343 8.17698 89.0616 8.492 89.3766C8.80702 89.6916 9.23428 89.8686 9.67979 89.8686H24.7979C25.2434 89.8686 25.6706 89.6916 25.9857 89.3766C26.3007 89.0616 26.4777 88.6343 26.4777 88.1888V34.4356C26.4777 33.9901 26.3007 33.5629 25.9857 33.2479C25.6706 32.9328 25.2434 32.7559 24.7979 32.7559ZM23.1181 86.509H11.3596V36.1154H23.1181V86.509Z" fill="white"/>
<path d="M48.3149 78.8156V88.1889C48.3149 88.6344 48.1379 89.0616 47.8229 89.3766C47.5079 89.6917 47.0806 89.8686 46.6351 89.8686H31.517C31.0715 89.8686 30.6442 89.6917 30.3292 89.3766C30.0142 89.0616 29.8372 88.6344 29.8372 88.1889V59.2125C30.3834 62.3345 31.5239 65.3226 33.1968 68.0146V86.4923H44.9553V77.6902C46.0442 78.1521 47.1675 78.5283 48.3149 78.8156V78.8156Z" fill="white"/>
<path d="M48.3149 24.3569V30.3034C47.1656 30.6125 46.0423 31.0112 44.9553 31.496V26.0367H33.1968V41.1548C31.5239 43.8467 30.3834 46.8349 29.8372 49.9569V24.3569C29.8372 23.9114 30.0142 23.4841 30.3292 23.1691C30.6442 22.8541 31.0715 22.6771 31.517 22.6771H46.6351C47.0806 22.6771 47.5079 22.8541 47.8229 23.1691C48.1379 23.4841 48.3149 23.9114 48.3149 24.3569Z" fill="white"/>
<path d="M66.7926 80.1594V86.509H55.034V79.7899C53.9105 79.7936 52.7881 79.7206 51.6745 79.5715V88.1888C51.6745 88.6343 51.8514 89.0616 52.1665 89.3766C52.4815 89.6916 52.9087 89.8686 53.3543 89.8686H68.4723C68.9178 89.8686 69.3451 89.6916 69.6601 89.3766C69.9751 89.0616 70.1521 88.6343 70.1521 88.1888V83.519L66.7926 80.1594ZM68.4723 9.23883H53.3543C52.9087 9.23883 52.4815 9.41581 52.1665 9.73083C51.8514 10.0459 51.6745 10.4731 51.6745 10.9186V29.6146C52.7879 29.464 53.9105 29.3911 55.034 29.3963V29.3963V12.5984H66.7926V32.3359C67.9695 32.9592 69.0932 33.6783 70.1521 34.486V10.969C70.1589 10.7442 70.1204 10.5204 70.039 10.3107C69.9576 10.101 69.835 9.90987 69.6783 9.74851C69.5216 9.58715 69.3342 9.45889 69.127 9.37134C68.9199 9.28379 68.6972 9.23873 68.4723 9.23883Z" fill="white"/>
<path d="M90.3096 17.6378H75.1915C74.746 17.6378 74.3187 17.8148 74.0037 18.1298C73.6887 18.4448 73.5117 18.8721 73.5117 19.3176V37.5265C74.8068 38.9248 75.9343 40.4694 76.8713 42.1291V20.9974H88.6298V72.6508L91.9893 76.0104V19.3176C91.9893 18.8721 91.8124 18.4448 91.4973 18.1298C91.1823 17.8148 90.7551 17.6378 90.3096 17.6378Z" fill="white"/>
<path d="M89.9568 78.782L74.8387 63.6639C76.9977 58.9606 77.4162 53.6434 76.0195 48.6602C74.6228 43.6771 71.5017 39.3519 67.2127 36.4559C62.9237 33.5599 57.7456 32.2812 52.6015 32.8478C47.4575 33.4145 42.6818 35.7896 39.1261 39.5498C35.5703 43.31 33.4655 48.2108 33.187 53.3785C32.9085 58.5462 34.4743 63.6449 37.6053 67.7654C40.7364 71.886 45.229 74.7607 50.2824 75.877C55.3358 76.9932 60.6213 76.2785 65.1968 73.8602L80.0629 88.7095C81.3727 90.0216 83.15 90.7595 85.0039 90.7611C86.8578 90.7627 88.6364 90.0277 89.9484 88.7179C91.2604 87.4082 91.9984 85.6308 92 83.7769C92.0016 81.923 91.2666 80.1444 89.9568 78.8324V78.782ZM36.5564 54.5595C36.5564 50.9049 37.6401 47.3325 39.6704 44.2938C41.7008 41.2552 44.5866 38.8869 47.963 37.4883C51.3393 36.0898 55.0545 35.7239 58.6389 36.4369C62.2232 37.1498 65.5156 38.9096 68.0997 41.4938C70.6839 44.0779 72.4437 47.3703 73.1567 50.9547C73.8696 54.539 73.5037 58.2542 72.1052 61.6306C70.7066 65.0069 68.3383 67.8927 65.2997 69.9231C62.261 71.9534 58.6886 73.0371 55.034 73.0371C50.1335 73.0371 45.4336 71.0904 41.9684 67.6252C38.5031 64.1599 36.5564 59.4601 36.5564 54.5595ZM87.5715 86.2907C86.8885 86.9697 85.9646 87.3509 85.0015 87.3509C84.0383 87.3509 83.1144 86.9697 82.4314 86.2907L68.1196 71.9789C70.083 70.4956 71.786 68.6961 73.159 66.6539L87.6051 81.1673C88.2787 81.8519 88.6534 82.7756 88.6471 83.7359C88.6408 84.6963 88.254 85.615 87.5715 86.2907V86.2907Z" fill="white"/>
<path d="M47.5926 62.5721C46.4213 61.7341 45.4286 60.6713 44.6723 59.4457C43.9159 58.2202 43.4111 56.8563 43.1873 55.4336C42.9634 54.0109 43.025 52.5579 43.3684 51.1593C43.7118 49.7607 44.3302 48.4444 45.1875 47.2872C46.0448 46.13 47.1239 45.155 48.3618 44.4191C49.5998 43.6832 50.9719 43.2011 52.398 43.0008C53.8242 42.8006 55.276 42.8863 56.6687 43.2528C58.0615 43.6194 59.3673 44.2595 60.5101 45.1359L58.5112 47.8404C57.7204 47.2547 56.8219 46.8305 55.8672 46.592C54.9124 46.3536 53.9201 46.3055 52.9467 46.4506C51.9734 46.5956 51.0382 46.931 50.1944 47.4375C49.3507 47.944 48.615 48.6117 48.0293 49.4026C47.4437 50.1934 47.0195 51.0918 46.781 52.0466C46.5426 53.0013 46.4945 53.9937 46.6396 54.967C46.7846 55.9404 47.12 56.8756 47.6265 57.7193C48.133 58.563 48.8007 59.2988 49.5915 59.8844L47.5926 62.5721Z" fill="white"/>
</svg>
