<svg width="100" height="100" viewBox="0 0 100 100" fill="none" xmlns="http://www.w3.org/2000/svg">
<path d="M50.5636 21.6127L36.3779 33.1288L38.6293 35.9021L52.815 24.386L50.5636 21.6127Z" fill="#A166FF"/>
<path d="M39.2046 64.5656L36.9527 67.3386L50.5818 78.4068L52.8338 75.6338L39.2046 64.5656Z" fill="#A166FF"/>
<path d="M38.885 51.0776L37.7545 54.4662L74.5883 66.7549L75.7188 63.3663L38.885 51.0776Z" fill="#A166FF"/>
<path d="M74.7981 33.0171L37.9099 45.4426L39.053 48.8362L75.9412 36.4107L74.7981 33.0171Z" fill="#A166FF"/>
<path d="M58.1883 23.8712L55.2402 25.8883L77.0051 57.699L79.9532 55.6818L58.1883 23.8712Z" fill="#A166FF"/>
<path d="M81.2656 29.6385C75.2643 24.9232 65.8159 18.0289 65.7266 17.9575L67.8877 15.064C67.9949 15.064 77.4969 22.0655 83.5518 26.8343L81.2656 29.6385Z" fill="#A166FF"/>
<path d="M66.7804 26.6736H51.7057C51.232 26.6736 50.7777 26.4854 50.4428 26.1505C50.1078 25.8155 49.9196 25.3612 49.9196 24.8875V9.81289C49.9196 9.33919 50.1078 8.88489 50.4428 8.54993C50.7777 8.21497 51.232 8.02679 51.7057 8.02679H66.7804C67.2541 8.02679 67.7084 8.21497 68.0433 8.54993C68.3783 8.88489 68.5665 9.33919 68.5665 9.81289V24.8875C68.5665 25.3612 68.3783 25.8155 68.0433 26.1505C67.7084 26.4854 67.2541 26.6736 66.7804 26.6736ZM53.4918 23.1014H64.9943V11.599H53.4918V23.1014Z" fill="#A166FF"/>
<path d="M77.0123 42.2991L55.2529 74.1136L58.2014 76.1302L79.9608 44.3157L77.0123 42.2991Z" fill="#A166FF"/>
<path d="M67.8878 84.936L65.798 82.0425C65.8873 82.0425 75.3358 75.0768 81.337 70.3615L83.4803 73.2192C77.4255 77.9345 67.8878 84.8646 67.8878 84.936Z" fill="#A166FF"/>
<path d="M66.7804 91.9732H51.7057C51.232 91.9732 50.7777 91.785 50.4428 91.45C50.1078 91.1151 49.9196 90.6608 49.9196 90.1871V75.1124C49.9196 74.6387 50.1078 74.1844 50.4428 73.8495C50.7777 73.5145 51.232 73.3264 51.7057 73.3264H66.7804C67.2541 73.3264 67.7084 73.5145 68.0433 73.8495C68.3783 74.1844 68.5665 74.6387 68.5665 75.1124V90.1871C68.5665 90.6608 68.3783 91.1151 68.0433 91.45C67.7084 91.785 67.2541 91.9732 66.7804 91.9732ZM53.4918 88.401H64.9943V76.8985H53.4918V88.401Z" fill="#A166FF"/>
<path d="M90.2139 73.5586H75.1393C74.6656 73.5586 74.2113 73.3704 73.8763 73.0354C73.5414 72.7005 73.3532 72.2462 73.3532 71.7725V56.6978C73.3532 56.2241 73.5414 55.7698 73.8763 55.4349C74.2113 55.0999 74.6656 54.9117 75.1393 54.9117H90.2139C90.6876 54.9117 91.1419 55.0999 91.4769 55.4349C91.8118 55.7698 92 56.2241 92 56.6978V71.7725C92 72.2462 91.8118 72.7005 91.4769 73.0354C91.1419 73.3704 90.6876 73.5586 90.2139 73.5586ZM76.9254 69.9864H88.4278V58.4839H76.9254V69.9864Z" fill="#A166FF"/>
<path d="M90.2139 45.0882H75.1393C74.6656 45.0882 74.2113 44.9 73.8763 44.5651C73.5414 44.2301 73.3532 43.7758 73.3532 43.3021V28.2275C73.3532 27.7538 73.5414 27.2995 73.8763 26.9645C74.2113 26.6296 74.6656 26.4414 75.1393 26.4414H90.2139C90.6876 26.4414 91.1419 26.6296 91.4769 26.9645C91.8118 27.2995 92 27.7538 92 28.2275V43.3021C92 43.7758 91.8118 44.2301 91.4769 44.5651C91.1419 44.9 90.6876 45.0882 90.2139 45.0882ZM76.9254 41.516H88.4278V30.0136H76.9254V41.516Z" fill="#A166FF"/>
<path d="M24.0748 71.8796C16.3589 71.8796 8 69.7363 8 65.0389V36.1578C8 31.4603 16.3053 29.317 24.0748 29.317C31.8443 29.317 40.1497 31.4603 40.1497 36.1578V65.0389C40.0961 69.7363 31.7908 71.8796 24.0748 71.8796ZM24.0748 32.8892C15.9124 32.8892 11.5722 35.3183 11.5722 36.1578V65.0389C11.5722 65.8783 15.8588 68.3074 24.0748 68.3074C32.2909 68.3074 36.5775 65.8783 36.5775 65.0389V36.1578C36.5239 35.3183 32.1658 32.8892 24.0748 32.8892V32.8892Z" fill="#A166FF"/>
<path d="M24.0748 42.1233C16.3589 42.1233 8 39.98 8 35.2826H11.5722C11.5722 36.1221 15.8588 38.5511 24.0748 38.5511C32.2909 38.5511 36.5775 36.1221 36.5775 35.2826H40.1497C40.0961 39.98 31.7908 42.1233 24.0748 42.1233Z" fill="#A166FF"/>
</svg>
