<svg width="100" height="100" viewBox="0 0 100 100" fill="none" xmlns="http://www.w3.org/2000/svg">
<path d="M89.6676 78.4099L81.9749 70.6668C86.0194 64.5983 88.3418 57.5462 88.6948 50.262C89.0477 42.9777 87.418 35.7342 83.9792 29.303C80.5404 22.8719 75.4214 17.4941 69.1675 13.7426C62.9136 9.99108 55.7592 8.0064 48.4664 8C40.8853 8.04074 33.4678 10.2078 27.0572 14.2549C20.6466 18.302 15.5003 24.0666 12.2033 30.8933L15.2266 32.3378C18.8514 24.7933 24.9301 18.7029 32.4677 15.0637C40.0053 11.4246 48.5551 10.4523 56.7173 12.306C64.8795 14.1597 72.1706 18.7297 77.3969 25.2676C82.6231 31.8055 85.4749 39.9241 85.4853 48.2942C85.5045 55.3675 83.468 62.2941 79.6234 68.2314L73.2576 61.8488C74.914 58.4816 75.8688 54.8129 76.0642 51.0655C76.2595 47.318 75.6913 43.5699 74.3941 40.0488C73.0968 36.5276 71.0976 33.3067 68.5177 30.5817C65.9378 27.8567 62.8311 25.6844 59.3861 24.1966C55.9411 22.7087 52.2297 21.9365 48.4772 21.9267C44.7246 21.9168 41.0093 22.6697 37.5565 24.1394C34.1038 25.6092 30.9857 27.7653 28.3916 30.4767C25.7975 33.1882 23.7814 36.3985 22.4658 39.9129H11.3635V43.2721H21.5252C21.1552 44.9276 20.9471 46.6152 20.9037 48.311H8.0042V51.6703H21.0213C21.1555 53.3771 21.465 55.0657 21.9451 56.7091H11.5482V60.0684H23.1544C24.6797 63.6305 26.9368 66.8322 29.7792 69.4658C32.6216 72.0994 35.9859 74.1061 39.6538 75.3557C43.3218 76.6053 47.2115 77.0698 51.0705 76.7192C54.9296 76.3686 58.6718 75.2107 62.0545 73.3206L68.2188 79.4849C60.062 84.6474 50.2089 86.4131 40.767 84.4042C31.3251 82.3953 23.0442 76.7713 17.6956 68.7353L14.9075 70.5996C20.8141 79.4746 29.9958 85.6485 40.4434 87.7701C50.8911 89.8917 61.7537 87.7884 70.6542 81.9203L78.3973 89.6634C79.8896 91.1579 81.9145 91.9984 84.0265 92C86.1385 92.0016 88.1647 91.1641 89.6592 89.6718C91.1537 88.1795 91.9942 86.1546 91.9958 84.0426C91.9974 81.9306 91.1599 79.9044 89.6676 78.4099V78.4099ZM48.5839 73.4718C43.7697 73.4718 39.0636 72.044 35.0609 69.369C31.0582 66.694 27.9388 62.8919 26.0972 58.4438C24.2556 53.9957 23.7746 49.1013 24.7151 44.3798C25.6555 39.6583 27.9751 35.3217 31.3805 31.9187C34.7859 28.5157 39.124 26.199 43.8462 25.2619C48.5684 24.3247 53.4624 24.809 57.9093 26.6537C62.3561 28.4983 66.156 31.6204 68.8282 35.6249C71.5005 39.6294 72.925 44.3366 72.9217 49.1508C72.9084 55.6 70.3394 61.7809 65.7776 66.3396C61.2158 70.8982 55.0331 73.4629 48.5839 73.4718ZM87.2153 87.2615C86.345 88.101 85.1829 88.5702 83.9737 88.5702C82.7644 88.5702 81.6023 88.101 80.732 87.2615L64.9099 71.4395C67.4202 69.5815 69.5957 67.3095 71.3429 64.721L87.2321 80.6942C87.6597 81.1188 87.9991 81.6239 88.2307 82.1802C88.4623 82.7366 88.5815 83.3332 88.5815 83.9359C88.5815 84.5385 88.4623 85.1352 88.2307 85.6915C87.9991 86.2479 87.6597 86.7529 87.2321 87.1775L87.2153 87.2615Z" fill="white"/>
<path d="M64.0701 51.5863C63.3568 50.0826 62.2695 48.7872 60.9124 47.8239L62.0209 39.6441V39.4258V39.1906C62.0209 39.1067 62.0209 39.0227 62.0209 38.9555C62.0209 34.9748 53.2533 33.4967 47.7273 33.4967C42.2014 33.4967 33.4505 34.9748 33.4505 38.9555C33.4428 39.0337 33.4428 39.1124 33.4505 39.1906V39.4258C33.4412 39.4983 33.4412 39.5716 33.4505 39.6441C33.4505 39.6441 33.4505 39.6441 33.4505 39.6441L36.2555 60.5555C36.4738 64.7209 46.518 64.8385 47.6769 64.8385C49.8561 64.8514 52.0301 64.6261 54.1603 64.1667C54.8681 64.0008 55.5639 63.7876 56.243 63.5284C58.0738 62.8062 59.0312 61.8488 59.0984 60.5555L59.9718 54.0217C60.5238 54.1412 61.0867 54.2032 61.6514 54.2065C62.0728 54.2673 62.5027 54.2006 62.8858 54.015C63.269 53.8294 63.5878 53.5334 63.8013 53.1651C63.9535 52.9351 64.056 52.6759 64.1023 52.404C64.1486 52.1322 64.1376 51.8537 64.0701 51.5863V51.5863ZM57.2508 49.6547C55.1009 48.8317 52.4975 47.7063 50.0284 46.5138C49.8865 46.0961 49.6323 45.7255 49.2936 45.4428C48.955 45.16 48.545 44.976 48.1087 44.9109C47.6723 44.8458 47.2265 44.9021 46.8201 45.0737C46.4136 45.2453 46.0623 45.5255 45.8046 45.8836C45.547 46.2417 45.3929 46.6638 45.3593 47.1037C45.3257 47.5436 45.414 47.9842 45.6143 48.3773C45.8147 48.7703 46.1194 49.1006 46.4951 49.3318C46.8708 49.5631 47.303 49.6864 47.7441 49.6883C48.0201 49.6901 48.2938 49.6388 48.5503 49.5371C51.2316 50.8751 53.9848 52.0638 56.7973 53.0979L55.8735 60.018C55.6312 60.1752 55.3721 60.3048 55.1009 60.4043C54.5536 60.6074 53.9923 60.7702 53.4213 60.8914C51.5453 61.298 49.63 61.4951 47.7105 61.4793C44.9342 61.6417 42.1591 61.1408 39.6147 60.018L37.2633 42.5331C44.1098 44.3918 51.3281 44.3918 58.1746 42.5331L57.2508 49.6547ZM47.7441 40.5679C44.1387 40.7463 40.5355 40.1743 37.1625 38.8883C40.4781 37.3769 44.1035 36.6691 47.7441 36.8224C51.3847 36.6691 55.0102 37.3769 58.3258 38.8883C54.9533 40.1762 51.3497 40.7482 47.7441 40.5679V40.5679Z" fill="white"/>
</svg>
