<svg width="100" height="100" viewBox="0 0 100 100" fill="none" xmlns="http://www.w3.org/2000/svg">
<path d="M73.9733 46.6667C73.9614 45.0442 73.4563 43.4636 72.5252 42.1349C71.5941 40.8061 70.2809 39.7918 68.76 39.2267C67.61 38.8454 66.3848 38.7481 65.1891 38.9431C63.9933 39.1381 62.8626 39.6197 61.8933 40.3467C61.0239 38.4512 59.8228 36.7263 58.3467 35.2533C56.0866 32.9304 53.1714 31.3525 49.9907 30.7307C46.8099 30.1088 43.5152 30.4726 40.5467 31.7733C37.7813 33.0626 35.4332 35.1018 33.7691 37.6591C32.105 40.2165 31.1919 43.1894 31.1333 46.24V46.96C29.5123 47.449 28.0256 48.3047 26.7886 49.4608C25.5515 50.6169 24.5974 52.0424 24 53.6267H26.9067C27.5183 52.5009 28.3665 51.5211 29.3931 50.7546C30.4197 49.9881 31.6002 49.4532 32.8533 49.1867C33.1467 49.1111 33.4056 48.9378 33.5873 48.6955C33.7691 48.4531 33.8629 48.1561 33.8533 47.8533L33.7467 46.16C33.8291 43.6507 34.5971 41.2119 35.9675 39.1082C37.3378 37.0045 39.2581 35.3163 41.52 34.2267C44.0095 33.1368 46.7726 32.8338 49.4391 33.358C52.1057 33.8823 54.5484 35.2088 56.44 37.16C58.1047 38.8456 59.3632 40.8884 60.12 43.1333C60.2024 43.361 60.3451 43.562 60.5331 43.7147C60.721 43.8674 60.9469 43.966 61.1867 44C61.423 44.0334 61.664 44.0028 61.8844 43.9114C62.1049 43.8199 62.2968 43.6709 62.44 43.48C63.0482 42.6583 63.9002 42.0497 64.8747 41.7408C65.8491 41.4319 66.8963 41.4387 67.8667 41.76C70.0667 42.4933 71.32 44.64 71.32 47.5467C71.266 47.8929 71.3504 48.2464 71.555 48.5309C71.7596 48.8153 72.0679 49.0078 72.4133 49.0667C74.8667 49.4933 80.6 51.2 80.6 58C80.6 66.12 72.6 66.9733 72.36 67H44.6933V69.6667H72.5333C76.2667 69.3333 83.3067 66.4667 83.3067 58C83.3067 51.24 78.6667 47.76 73.9733 46.6667ZM19.3067 69.6667H16.64V67H19.3067V69.6667ZM31.3067 69.6667H21.9733V67H31.3067V69.6667ZM41.9733 69.6667H33.9733V67H41.9733V69.6667ZM29.9733 64.3333H17.9733V61.6667H29.9733V64.3333ZM55.3067 64.3333H39.3067V61.6667H55.3067V64.3333ZM41.9733 59H33.9733V56.3333H41.9733V59ZM31.3067 59H20.64V56.3333H31.3067V59ZM36.64 64.3333H32.64V61.6667H36.64V64.3333Z" fill="white"/>
</svg>
