<svg width="100" height="100" viewBox="0 0 100 100" fill="none" xmlns="http://www.w3.org/2000/svg">
<path d="M32.3191 60.8729V52.7427L30.3357 58.0139H28.3701L26.4225 52.7963V60.8729H24.3318V49.2762H27.0121L29.4065 55.7625L31.8009 49.2762H34.4097V60.8729H32.3191Z" fill="#A166FF"/>
<path d="M40.5743 60.8729L40.3778 60.1045C40.1745 60.4136 39.8901 60.6608 39.5558 60.8193C39.2202 60.9993 38.8467 61.0973 38.4659 61.1052C38.1589 61.1186 37.8528 61.0648 37.5688 60.9475C37.2848 60.8302 37.0299 60.6523 36.8219 60.4262C36.4005 59.8941 36.1848 59.2281 36.2144 58.55C36.1948 58.1854 36.2514 57.8207 36.3806 57.4792C36.5098 57.1377 36.7088 56.8269 36.9649 56.5666C37.2285 56.3163 37.5403 56.1224 37.8813 55.9964C38.2223 55.8705 38.5853 55.8152 38.9483 55.834C39.3834 55.8484 39.8153 55.9143 40.2348 56.0305V55.3515C40.2695 54.9463 40.1955 54.5392 40.0204 54.1722C39.9092 54.0607 39.7744 53.9756 39.626 53.923C39.4776 53.8704 39.3193 53.8518 39.1627 53.8684C38.322 53.9052 37.4939 54.0865 36.7147 54.4045V52.8857C37.103 52.6379 37.5328 52.4624 37.9834 52.3675C38.5119 52.2531 39.0508 52.1933 39.5916 52.1888C39.9694 52.1526 40.3506 52.1924 40.7127 52.306C41.0749 52.4195 41.4106 52.6045 41.7001 52.8499C42.1818 53.4486 42.4124 54.2109 42.3433 54.9763V60.9622L40.5743 60.8729ZM39.127 59.497C39.338 59.4857 39.5447 59.4325 39.7349 59.3405C39.9251 59.2485 40.0951 59.1194 40.2348 58.961V57.317C39.9585 57.2254 39.6682 57.1831 39.3771 57.192C39.2355 57.1821 39.0935 57.2061 38.963 57.262C38.8325 57.318 38.7172 57.4042 38.6267 57.5136C38.4303 57.7682 38.3348 58.0864 38.3586 58.407C38.3456 58.6851 38.4206 58.9603 38.5731 59.1932C38.6327 59.2861 38.7146 59.3625 38.8114 59.4156C38.9081 59.4686 39.0166 59.4966 39.127 59.497V59.497Z" fill="#A166FF"/>
<path d="M44.291 64.2858V52.3139H46.1672L46.3459 53.0465C46.6234 52.7551 46.9579 52.524 47.3286 52.3675C47.667 52.1968 48.0397 52.1051 48.4186 52.0995C48.8379 52.086 49.2533 52.1829 49.6234 52.3804C49.9934 52.578 50.3051 52.8693 50.5271 53.2252C51.0668 54.2267 51.3145 55.3597 51.2418 56.4951C51.3056 57.6569 51.0458 58.8136 50.4914 59.8366C50.2797 60.207 49.9723 60.5136 49.6013 60.7243C49.2303 60.9349 48.8094 61.0418 48.3829 61.0337C48.0576 61.0287 47.7363 60.962 47.4358 60.8372C47.1241 60.7224 46.8385 60.5462 46.596 60.319V64.2858H44.291ZM47.6681 53.7613C47.2815 53.7613 46.9053 53.8866 46.596 54.1186V58.9253C46.9056 59.1737 47.2891 59.312 47.686 59.3184C47.8921 59.3286 48.0963 59.2738 48.2695 59.1615C48.4427 59.0493 48.5761 58.8853 48.6509 58.693C48.8922 58.0175 48.9955 57.3006 48.9547 56.5845C49.0004 55.8565 48.897 55.1269 48.6509 54.4403C48.5752 54.2448 48.439 54.0788 48.2622 53.9663C48.0854 53.8537 47.8772 53.8007 47.6681 53.8149V53.7613Z" fill="#A166FF"/>
<path d="M58.2106 60.8729L56.1914 56.5666H55.3516V60.8729H52.993V49.2762H56.656C57.1109 49.253 57.5654 49.3289 57.988 49.4986C58.4107 49.6682 58.7915 49.9277 59.104 50.259C59.4314 50.6166 59.6826 51.037 59.8423 51.4947C60.002 51.9524 60.067 52.4378 60.0332 52.9214C60.0486 53.6283 59.889 54.3281 59.5686 54.9584C59.2784 55.502 58.8297 55.9445 58.2821 56.2271L60.7122 60.8729H58.2106ZM55.3516 54.8334H56.4416C56.6357 54.8446 56.8294 54.8062 57.0044 54.7218C57.1795 54.6374 57.3302 54.5097 57.4422 54.3509C57.6654 53.9074 57.7816 53.4179 57.7816 52.9214C57.7816 52.425 57.6654 51.9354 57.4422 51.4919C57.3302 51.3331 57.1795 51.2055 57.0044 51.1211C56.8294 51.0366 56.6357 50.9982 56.4416 51.0095H55.3516V54.8334Z" fill="#A166FF"/>
<path d="M73.4346 60.8729V52.7427L71.4333 58.0139H69.4856L67.538 52.7963V60.8729H65.4474V49.2762H68.1276L70.522 55.7625L72.9164 49.2762H75.5431V60.8729H73.4346Z" fill="#A166FF"/>
<path d="M78.5807 60.8729L81.8685 51.1703H77.2406V49.2762H84.1021V50.9559L80.8858 60.8729H78.5807Z" fill="#A166FF"/>
<path d="M62.8922 81.9399H49.4371C47.1513 81.9458 44.9485 81.0839 43.2736 79.5283C41.5986 77.9728 40.5765 75.8396 40.4135 73.5596H21.0798C20.465 73.5619 19.8557 73.4432 19.2869 73.2101C18.718 72.977 18.2006 72.6341 17.7642 72.201C17.3278 71.768 16.981 71.2532 16.7435 70.6861C16.5061 70.119 16.3827 69.5107 16.3803 68.8959V38.5194C16.3827 37.7975 16.5275 37.0832 16.8064 36.4173C17.0854 35.7515 17.493 35.1473 18.006 34.6393C18.5189 34.1314 19.1271 33.7296 19.7956 33.4572C20.4641 33.1847 21.1798 33.0469 21.9017 33.0516H31.3899V31.0682C31.3946 29.8344 31.8881 28.6528 32.7622 27.782C33.6363 26.9113 34.8198 26.4224 36.0536 26.4224H53.7971C54.4095 26.42 55.0164 26.5383 55.5831 26.7706C56.1499 27.0028 56.6653 27.3443 57.1 27.7757C57.5348 28.2071 57.8803 28.7199 58.1168 29.2849C58.3533 29.8498 58.4763 30.4558 58.4786 31.0682V32.998H66.4123C67.8688 32.9933 69.2678 33.5661 70.3028 34.591C71.3377 35.6159 71.9242 37.0093 71.9336 38.4658V39.9667H76.6152V38.6981C76.6199 37.9753 76.7669 37.2606 77.0478 36.5947C77.3287 35.9288 77.738 35.3247 78.2524 34.8169C78.7667 34.3092 79.3761 33.9078 80.0456 33.6355C80.7151 33.3633 81.4317 33.2256 82.1544 33.2303H86.4786C87.2005 33.2256 87.9162 33.3634 88.5847 33.6359C89.2533 33.9083 89.8614 34.3101 90.3744 34.818C90.8873 35.326 91.2949 35.9302 91.5739 36.596C91.8529 37.2618 91.9977 37.9762 92 38.6981V71.4332C91.9977 72.1551 91.8529 72.8695 91.5739 73.5353C91.2949 74.2011 90.8873 74.8053 90.3744 75.3133C89.8614 75.8213 89.2533 76.223 88.5847 76.4954C87.9162 76.7679 87.2005 76.9057 86.4786 76.901H82.1544C80.7057 76.8963 79.3177 76.3187 78.2933 75.2943C77.269 74.27 76.6914 72.8819 76.6867 71.4332V70.2003H71.88V72.9699C71.8848 74.1507 71.6554 75.3208 71.2052 76.4124C70.755 77.504 70.0928 78.4955 69.257 79.3296C68.4212 80.1637 67.4284 80.8239 66.3359 81.2719C65.2434 81.72 64.0729 81.947 62.8922 81.9399V81.9399ZM21.9017 36.5717C21.6492 36.567 21.3981 36.6124 21.1632 36.7052C20.9283 36.7981 20.7141 36.9365 20.533 37.1127C20.3519 37.2888 20.2075 37.499 20.1081 37.7313C20.0087 37.9635 19.9564 38.2132 19.9541 38.4658V68.8423C19.9564 68.9878 19.9873 69.1314 20.0452 69.2649C20.103 69.3984 20.1866 69.5193 20.2911 69.6205C20.3957 69.7217 20.5191 69.8013 20.6544 69.8548C20.7898 69.9083 20.9343 69.9347 21.0798 69.9323H42.1825C42.6564 69.9323 43.1109 70.1205 43.446 70.4556C43.7811 70.7907 43.9694 71.2452 43.9694 71.7191V72.9163C43.9692 73.6294 44.1114 74.3353 44.3874 74.9928C44.6635 75.6503 45.068 76.246 45.5772 76.7452C46.0863 77.2444 46.69 77.637 47.3528 77.9C48.0156 78.163 48.7242 78.2912 49.4371 78.2769H62.8922C64.3139 78.2769 65.6773 77.7121 66.6826 76.7068C67.6879 75.7015 68.2527 74.338 68.2527 72.9163V68.4135C68.2527 67.9396 68.441 67.4851 68.7761 67.15C69.1112 66.8149 69.5657 66.6266 70.0396 66.6266H78.4199C78.8938 66.6266 79.3483 66.8149 79.6834 67.15C80.0185 67.4851 80.2068 67.9396 80.2068 68.4135V71.4332C80.2091 71.6859 80.2614 71.9355 80.3608 72.1678C80.4602 72.4 80.6046 72.6103 80.7857 72.7864C80.9668 72.9625 81.181 73.101 81.4159 73.1938C81.6509 73.2867 81.9019 73.332 82.1544 73.3273H86.425C86.6805 73.3369 86.9354 73.2951 87.1745 73.2044C87.4136 73.1138 87.6321 72.976 87.817 72.7994C88.0019 72.6228 88.1496 72.4109 88.2511 72.1763C88.3527 71.9416 88.4062 71.6889 88.4084 71.4332V38.6981C88.4061 38.4455 88.3538 38.1958 88.2544 37.9636C88.155 37.7313 88.0106 37.5211 87.8295 37.3449C87.6484 37.1688 87.4342 37.0303 87.1993 36.9375C86.9643 36.8447 86.7133 36.7993 86.4608 36.804H82.1544C81.9019 36.7993 81.6509 36.8447 81.4159 36.9375C81.181 37.0303 80.9668 37.1688 80.7857 37.3449C80.6046 37.5211 80.4602 37.7313 80.3608 37.9636C80.2614 38.1958 80.2091 38.4455 80.2068 38.6981V41.7536C80.2068 42.2275 80.0185 42.682 79.6834 43.0171C79.3483 43.3522 78.8938 43.5405 78.4199 43.5405H70.1468C69.6729 43.5405 69.2184 43.3522 68.8833 43.0171C68.5482 42.682 68.3599 42.2275 68.3599 41.7536V38.4658C68.3576 38.2132 68.3053 37.9635 68.2059 37.7313C68.1065 37.499 67.9621 37.2888 67.781 37.1127C67.5999 36.9365 67.3857 36.7981 67.1508 36.7052C66.9158 36.6124 66.6648 36.567 66.4123 36.5717H56.6918C56.2179 36.5717 55.7634 36.3835 55.4283 36.0484C55.0932 35.7133 54.9049 35.2588 54.9049 34.7849V31.0682C54.9026 30.9251 54.8721 30.7838 54.8151 30.6524C54.7582 30.5211 54.676 30.4022 54.5731 30.3027C54.4702 30.2031 54.3487 30.1248 54.2156 30.0722C54.0824 30.0196 53.9402 29.9937 53.7971 29.9961H36.0536C35.9113 29.9937 35.77 30.0197 35.6378 30.0725C35.5057 30.1253 35.3854 30.2039 35.2839 30.3037C35.1825 30.4035 35.1019 30.5225 35.0469 30.6538C34.9919 30.785 34.9636 30.9259 34.9636 31.0682V34.7849C34.9636 35.2588 34.7754 35.7133 34.4403 36.0484C34.1052 36.3835 33.6507 36.5717 33.1768 36.5717H21.9017Z" fill="#A166FF"/>
<path d="M11.5737 34.9099H8V71.7727H11.5737V34.9099Z" fill="#A166FF"/>
<path d="M18.1672 51.5634H9.78685V55.1371H18.1672V51.5634Z" fill="#A166FF"/>
<path d="M56.7096 18.0599H33.2482V21.6336H56.7096V18.0599Z" fill="#A166FF"/>
<path d="M46.7569 19.8468H43.1832V28.2271H46.7569V19.8468Z" fill="#A166FF"/>
</svg>
