<svg width="100" height="100" viewBox="0 0 100 100" fill="none" xmlns="http://www.w3.org/2000/svg">
<path d="M49.9911 29.228C36.6319 29.228 23.1655 25.6513 23.1655 18.6408C23.1655 11.6304 36.6319 8 49.9911 8C63.3503 8 76.8168 11.5768 76.8168 18.5872C76.8168 25.5976 63.3324 29.228 49.9911 29.228ZM49.9911 11.6304C35.7735 11.5768 26.6528 15.7794 26.6528 18.7303C26.6528 21.6811 35.7199 25.7407 49.9017 25.7407C64.0835 25.7407 73.1506 21.5917 73.1506 18.7303C73.1506 15.8689 64.2087 11.5768 49.9911 11.5768V11.6304Z" fill="#3B48CC"/>
<path d="M49.9911 64.4412C36.6319 64.4412 23.1655 60.8644 23.1655 53.854V18.7303H26.7422V53.854C26.7422 56.7154 35.8093 60.8644 49.9911 60.8644C64.1729 60.8644 73.24 56.7154 73.24 53.854V18.7303H76.8168V53.854C76.8525 60.8108 63.3324 64.4412 49.9911 64.4412Z" fill="#3B48CC"/>
<path d="M50.1162 41.7824C36.7571 41.7824 23.2906 38.2057 23.2906 31.1952H26.8673C26.8673 34.0566 35.9344 38.2057 50.1162 38.2057C64.2981 38.2057 73.3651 34.0566 73.3651 31.1952H76.9419C76.9777 38.152 63.4575 41.7824 50.1162 41.7824Z" fill="#3B48CC"/>
<path d="M50.1162 54.0508C36.7571 54.0508 23.2906 50.4741 23.2906 43.4636H26.8673C26.8673 46.3071 35.9344 50.4741 50.1162 50.4741C64.2981 50.4741 73.3651 46.3071 73.3651 43.4636H76.9419C76.9777 50.4025 63.4575 54.0508 50.1162 54.0508Z" fill="#3B48CC"/>
<path d="M49.687 74.1701C36.31 74.1701 26.0983 70.4145 23.076 64.3876L26.2772 62.7602C28.0656 66.337 35.3621 70.5933 49.7407 70.5933C63.6543 70.5933 71.8093 66.0866 73.1684 62.8854L76.459 64.2803C73.9553 70.0926 62.9568 74.1701 49.687 74.1701Z" fill="#3B48CC"/>
<path d="M49.687 87.0285C36.3099 87.0285 26.0983 83.2729 23.0223 77.246L26.2235 75.6365C28.0119 79.2133 35.3085 83.4517 49.687 83.4517C63.6006 83.4517 71.7556 78.945 73.1148 75.7438L76.4054 77.1387C73.9553 82.951 62.9568 87.0285 49.687 87.0285Z" fill="#3B48CC"/>
<path d="M26.6885 60.149H23.1118V90.3368H26.6885V60.149Z" fill="#3B48CC"/>
<path d="M76.9777 73.5618H73.4009V90.3368H76.9777V73.5618Z" fill="#3B48CC"/>
<path d="M43.4635 63.4934H39.8867V78.5873H43.4635V63.4934Z" fill="#3B48CC"/>
<path d="M60.2027 66.8554H56.626V92H60.2027V66.8554Z" fill="#3B48CC"/>
<path d="M76.9777 60.149H73.4009V70.2176H76.9777V60.149Z" fill="#3B48CC"/>
</svg>
