<svg width="100" height="100" viewBox="0 0 100 100" fill="none" xmlns="http://www.w3.org/2000/svg">
<path d="M43.487 44.9296V29.8052H46.542V36.5365L50.6714 29.8052H54.0455L49.2614 36.889L54.4483 44.9296H50.8225L46.542 37.6276V44.9296H43.487Z" fill="white"/>
<path d="M72.5606 43.2509C71.7222 43.2441 70.8903 43.3979 70.1098 43.7041L53.6258 18.6928C54.3613 17.6928 54.8052 16.5086 54.9082 15.2715C55.0111 14.0345 54.7692 12.7932 54.2092 11.6853C53.6492 10.5775 52.7931 9.64665 51.7359 8.99607C50.6788 8.3455 49.462 8.00071 48.2207 8C46.9766 8.00232 45.7576 8.35026 44.6997 9.00498C43.6418 9.65971 42.7866 10.5955 42.2295 11.7079C41.6724 12.8203 41.4354 14.0656 41.5448 15.3049C41.6542 16.5442 42.1057 17.7287 42.8491 18.7263L26.3483 43.7041C25.5616 43.3994 24.7244 43.2456 23.8808 43.2509C22.6247 43.25 21.3936 43.6014 20.3273 44.2652C19.261 44.929 18.4022 45.8785 17.8486 47.006C17.295 48.1335 17.0688 49.3936 17.1956 50.6432C17.3224 51.8928 17.7972 53.0819 18.566 54.0751C19.3348 55.0684 20.3668 55.8261 21.5447 56.2622C22.7226 56.6983 23.9992 56.7952 25.2295 56.5419C26.4597 56.2887 27.5943 55.6955 28.5042 54.8297C29.4141 53.9638 30.063 52.8601 30.377 51.644H66.0643C66.3784 52.8601 67.0272 53.9638 67.9371 54.8297C68.8471 55.6955 69.9816 56.2887 71.2119 56.5419C72.4421 56.7952 73.7188 56.6983 74.8967 56.2622C76.0746 55.8261 77.1066 55.0684 77.8754 54.0751C78.6442 53.0819 79.1189 51.8928 79.2457 50.6432C79.3726 49.3936 79.1463 48.1335 78.5927 47.006C78.0391 45.8785 77.1804 44.929 76.1141 44.2652C75.0477 43.6014 73.8166 43.25 72.5606 43.2509ZM23.8808 53.3226C23.2168 53.3226 22.5677 53.1257 22.0156 52.7568C21.4635 52.3879 21.0332 51.8636 20.7791 51.2501C20.525 50.6367 20.4585 49.9616 20.588 49.3104C20.7176 48.6592 21.0373 48.061 21.5068 47.5914C21.9764 47.1219 22.5746 46.8022 23.2258 46.6726C23.877 46.5431 24.5521 46.6096 25.1655 46.8637C25.779 47.1178 26.3033 47.5481 26.6722 48.1002C27.0411 48.6523 27.238 49.3014 27.238 49.9654C27.238 50.8558 26.8843 51.7097 26.2547 52.3393C25.6251 52.9689 24.7712 53.3226 23.8808 53.3226ZM48.2207 11.3572C48.8847 11.3572 49.5338 11.5541 50.0858 11.923C50.6379 12.2919 51.0682 12.8162 51.3223 13.4297C51.5764 14.0432 51.6429 14.7182 51.5134 15.3694C51.3839 16.0207 51.0641 16.6189 50.5946 17.0884C50.1251 17.5579 49.5269 17.8776 48.8756 18.0072C48.2244 18.1367 47.5494 18.0702 46.9359 17.8161C46.3225 17.562 45.7981 17.1317 45.4292 16.5796C45.0603 16.0275 44.8634 15.3785 44.8634 14.7145C44.8634 13.8241 45.2171 12.9701 45.8467 12.3405C46.4764 11.7109 47.3303 11.3572 48.2207 11.3572V11.3572ZM66.0643 48.2867H30.377C30.1262 47.3312 29.6677 46.4428 29.0341 45.6849L45.4845 20.8246C46.3421 21.2217 47.2756 21.4278 48.2207 21.4289C49.1842 21.4322 50.1363 21.22 51.0072 20.8078L67.3904 45.6681C66.7426 46.4461 66.2882 47.3665 66.0643 48.3539V48.2867ZM72.5606 53.3226C71.8966 53.3226 71.2475 53.1257 70.6954 52.7568C70.1433 52.3879 69.713 51.8636 69.4589 51.2501C69.2048 50.6367 69.1383 49.9616 69.2679 49.3104C69.3974 48.6592 69.7171 48.061 70.1867 47.5914C70.6562 47.1219 71.2544 46.8022 71.9056 46.6726C72.5569 46.5431 73.2319 46.6096 73.8453 46.8637C74.4588 47.1178 74.9831 47.5481 75.352 48.1002C75.7209 48.6523 75.9178 49.3014 75.9178 49.9654C75.9178 50.8558 75.5641 51.7097 74.9345 52.3393C74.3049 52.9689 73.451 53.3226 72.5606 53.3226Z" fill="white"/>
<path d="M91.9486 74.876L90.7903 75.8496C88.9725 77.2448 86.7451 78.0011 84.4536 78.0011C82.162 78.0011 79.9346 77.2448 78.1168 75.8496L75.8171 73.9024C73.3671 71.9747 70.3401 70.9266 67.2226 70.9266C64.1051 70.9266 61.0781 71.9747 58.6281 73.9024L56.3116 75.8496C54.4938 77.2448 52.2663 78.0011 49.9748 78.0011C47.6833 78.0011 45.4558 77.2448 43.638 75.8496L41.3383 73.9024C38.8883 71.9747 35.8613 70.9266 32.7438 70.9266C29.6263 70.9266 26.5994 71.9747 24.1493 73.9024L21.8328 75.8496C20.0151 77.2448 17.7876 78.0011 15.4961 78.0011C13.2046 78.0011 10.9771 77.2448 9.15931 75.8496L8.05142 74.9264V79.2404C10.4912 80.7582 13.3376 81.4915 16.207 81.3414C19.0765 81.1914 21.8309 80.1651 24.099 78.4011L26.4155 76.4371C28.2295 75.0405 30.4545 74.2833 32.7438 74.2833C35.0332 74.2833 37.2582 75.0405 39.0722 76.4371L41.3719 78.4011C43.8295 80.319 46.8574 81.3608 49.9748 81.3608C53.0922 81.3608 56.1202 80.319 58.5777 78.4011L60.9278 76.4371C62.7418 75.0405 64.9668 74.2833 67.2562 74.2833C69.5455 74.2833 71.7705 75.0405 73.5845 76.4371L75.901 78.4011C78.3107 80.3525 81.3279 81.3979 84.4284 81.3554C87.0954 81.3852 89.7117 80.626 91.9486 79.1733V74.9264V74.876Z" fill="white"/>
<path d="M91.9486 85.5352L90.7903 86.492C88.9725 87.8873 86.7451 88.6436 84.4536 88.6436C82.162 88.6436 79.9346 87.8873 78.1168 86.492L75.8171 84.5448C73.3658 82.6199 70.3393 81.5736 67.2226 81.5736C64.1058 81.5736 61.0793 82.6199 58.6281 84.5448L56.3116 86.492C54.4938 87.8873 52.2663 88.6436 49.9748 88.6436C47.6833 88.6436 45.4558 87.8873 43.638 86.492L41.3383 84.5448C38.8871 82.6199 35.8606 81.5736 32.7438 81.5736C29.6271 81.5736 26.6006 82.6199 24.1493 84.5448L21.8328 86.492C20.0151 87.8873 17.7876 88.6436 15.4961 88.6436C13.2046 88.6436 10.9771 87.8873 9.15931 86.492L8.05142 85.552V89.866C10.4888 91.3909 13.3365 92.1283 16.2076 91.9782C19.0787 91.828 21.834 90.7975 24.099 89.0267L26.4155 87.0963C28.2235 85.6861 30.4508 84.9202 32.7438 84.9202C35.0368 84.9202 37.2641 85.6861 39.0722 87.0963L41.3719 89.0267C43.8258 90.953 46.8552 92 49.9748 92C53.0944 92 56.1238 90.953 58.5777 89.0267L60.9278 87.0963C62.7359 85.6861 64.9632 84.9202 67.2562 84.9202C69.5491 84.9202 71.7765 85.6861 73.5845 87.0963L75.901 89.0267C78.3091 90.983 81.3261 92.0342 84.4284 91.9979C87.0938 92.0336 89.7103 91.2802 91.9486 89.8325V85.552V85.5352Z" fill="white"/>
<path d="M91.9486 62.8739L90.7903 63.8307C88.9749 65.2314 86.7465 65.9911 84.4536 65.9911C82.1606 65.9911 79.9322 65.2314 78.1168 63.8307L75.8171 61.8835C73.3622 59.9669 70.3371 58.9259 67.2226 58.9259C64.1081 58.9259 61.083 59.9669 58.6281 61.8835L56.3116 63.8307C54.4961 65.2314 52.2678 65.9911 49.9748 65.9911C47.6819 65.9911 45.4535 65.2314 43.638 63.8307L41.3383 61.8835C38.8834 59.9669 35.8583 58.9259 32.7438 58.9259C29.6294 58.9259 26.6042 59.9669 24.1493 61.8835L21.8328 63.8307C20.0174 65.2314 17.789 65.9911 15.4961 65.9911C13.2031 65.9911 10.9748 65.2314 9.15931 63.8307L8.05142 62.8907V67.2047C10.4888 68.7296 13.3365 69.467 16.2076 69.3169C19.0787 69.1667 21.834 68.1362 24.099 66.3654L26.4155 64.435C28.2259 63.0303 30.4523 62.2679 32.7438 62.2679C35.0354 62.2679 37.2617 63.0303 39.0722 64.435L41.3887 66.3654C43.84 68.2904 46.8665 69.3367 49.9832 69.3367C53.0999 69.3367 56.1265 68.2904 58.5777 66.3654L60.9278 64.435C62.7382 63.0303 64.9646 62.2679 67.2562 62.2679C69.5477 62.2679 71.7741 63.0303 73.5845 64.435L75.901 66.3654C78.3136 68.3096 81.3302 69.3488 84.4284 69.303C87.0938 69.3388 89.7103 68.5854 91.9486 67.1376V62.8907V62.8739Z" fill="white"/>
</svg>
