<svg width="100" height="100" viewBox="0 0 100 100" fill="none" xmlns="http://www.w3.org/2000/svg">
<path d="M86.96 92H26.48C26.0344 92 25.6071 91.823 25.2921 91.5079C24.977 91.1929 24.8 90.7656 24.8 90.32V9.68C24.8 9.23444 24.977 8.80712 25.2921 8.49206C25.6071 8.177 26.0344 8 26.48 8H86.96C87.4056 8 87.8329 8.177 88.1479 8.49206C88.463 8.80712 88.64 9.23444 88.64 9.68V90.32C88.64 90.7656 88.463 91.1929 88.1479 91.5079C87.8329 91.823 87.4056 92 86.96 92ZM28.16 88.64H85.28V11.36H28.16V88.64Z" fill="#A166FF"/>
<path d="M21.44 92H16.6016C15.2114 92 13.8782 91.4478 12.8952 90.4648C11.9122 89.4818 11.36 88.1486 11.36 86.7584V13.2752C11.3644 11.8775 11.9216 10.5383 12.91 9.54996C13.8983 8.56163 15.2375 8.00443 16.6352 8H21.44V11.36H16.6184C16.1163 11.3644 15.6359 11.5658 15.2809 11.9209C14.9258 12.2759 14.7244 12.7563 14.72 13.2584V86.7248C14.72 87.2327 14.9218 87.7199 15.2809 88.0791C15.6401 88.4382 16.1273 88.64 16.6352 88.64H21.44V92Z" fill="#A166FF"/>
<path d="M80.24 16.4H34.88V19.76H80.24V16.4Z" fill="#A166FF"/>
<path d="M80.24 23.12H34.88V26.48H80.24V23.12Z" fill="#A166FF"/>
<path d="M80.24 75.2H34.88V78.56H80.24V75.2Z" fill="#A166FF"/>
<path d="M80.24 81.92H34.88V85.28H80.24V81.92Z" fill="#A166FF"/>
<path d="M56.72 71C55.176 70.9481 53.6762 70.4714 52.3856 69.6224C52.149 69.4706 51.9543 69.2619 51.8192 69.0153C51.6842 68.7688 51.6132 68.4923 51.6128 68.2112V62.4152L38.4248 36.2744L41.4152 34.7456L54.8552 61.256C54.9751 61.4901 55.0384 61.749 55.04 62.012V67.2032C55.5539 67.4886 56.1321 67.6383 56.72 67.6383C57.3078 67.6383 57.886 67.4886 58.4 67.2032V61.9448C58.4015 61.6818 58.4648 61.4229 58.5848 61.1888L72.0248 34.6784L75.0152 36.2072L61.76 62.348V68.2112C61.7577 68.4835 61.6892 68.7512 61.5604 68.9912C61.4316 69.2312 61.2464 69.4363 61.0208 69.5888C59.7592 70.4761 58.2619 70.9674 56.72 71V71Z" fill="#A166FF"/>
<path d="M56.804 41.2304C53.7296 41.2304 38.324 40.9616 38.324 35.6528C38.324 30.344 53.6792 30.092 56.804 30.092C59.9288 30.092 75.284 30.3608 75.284 35.6528C75.284 40.9448 59.8784 41.2304 56.804 41.2304ZM42.0704 35.6528C43.5992 36.56 48.656 37.8704 56.804 37.8704C64.952 37.8704 70.0256 36.56 71.5376 35.6528C70.0256 34.7624 64.9688 33.452 56.804 33.452C48.6392 33.452 43.5992 34.7624 42.0704 35.6528Z" fill="#A166FF"/>
</svg>
