<svg width="100" height="100" viewBox="0 0 100 100" fill="none" xmlns="http://www.w3.org/2000/svg">
<path d="M61.5201 80.8934L59.1468 79.6667C60.4115 77.2615 61.4257 74.7327 62.1734 72.1201L64.7334 72.8667C63.9375 75.6444 62.8608 78.3338 61.5201 80.8934V80.8934ZM64.0001 56.4801C63.5388 49.0142 61.1149 41.8024 56.9734 35.5734L59.2001 34.1201C63.6015 40.733 66.1773 48.3915 66.6668 56.3201L64.0001 56.4801ZM46.4134 24.3067C44.4783 22.8616 42.4166 21.5942 40.2534 20.5201L41.4668 18.1467C43.7695 19.2797 45.9651 20.6185 48.0268 22.1467L46.4134 24.3067Z" fill="white"/>
<path d="M57.3335 59.8667C53.125 55.6867 48.037 52.4981 42.4402 50.5333L43.2669 48C49.2276 50.0921 54.6477 53.4854 59.1335 57.9333L57.3335 59.8667Z" fill="white"/>
<path d="M68.32 75.7867C67.8267 74.4534 67.2667 73.2267 66.6533 71.9867L69.04 70.8C69.6977 72.1029 70.2895 73.4379 70.8133 74.8L68.32 75.7867Z" fill="white"/>
<path d="M60.7601 81.5334L59.9067 79.0134C63.1009 77.9369 66.0898 76.3275 68.7467 74.2534L70.3867 76.3601C67.4931 78.6159 64.2381 80.3651 60.7601 81.5334V81.5334Z" fill="white"/>
<path d="M18.3733 49.3334L17.76 46.7467C20.7165 46.0226 23.7435 45.6247 26.7867 45.5601L26.8533 48.2267C23.9948 48.2853 21.1512 48.6564 18.3733 49.3334V49.3334Z" fill="white"/>
<path d="M40.24 40.8534L38 39.4C39.9572 36.2212 42.3695 33.3463 45.16 30.8667L46.92 32.88C44.3141 35.1956 42.0633 37.8822 40.24 40.8534V40.8534Z" fill="white"/>
<path d="M60.0668 25.04L59.1602 22.5333C61.167 21.7809 63.2316 21.1924 65.3335 20.7733L65.8268 23.44C63.8656 23.8121 61.939 24.3473 60.0668 25.04V25.04Z" fill="white"/>
<path d="M33.6667 78.6667C31.4875 73.6093 30.3232 68.173 30.24 62.6667C30.2841 60.545 30.5613 58.4345 31.0667 56.3733C31.16 55.9067 31.2667 55.4267 31.36 54.9333L34.0267 55.4533C33.9333 55.96 33.8267 56.44 33.7333 56.92C33.2674 58.8018 33.0081 60.7287 32.96 62.6667C33.0204 67.8397 34.0987 72.9502 36.1333 77.7067L33.6667 78.6667Z" fill="white"/>
<path d="M50.0001 83.3334C41.1595 83.3334 32.6811 79.8215 26.4299 73.5703C20.1786 67.319 16.6667 58.8406 16.6667 50C16.6667 49.32 16.6667 48.6667 16.7334 47.9867C17.1455 41.1647 19.6446 34.6342 23.8922 29.2799C28.1399 23.9257 33.9306 20.0065 40.4801 18.0534C44.7565 16.7815 49.2448 16.381 53.6788 16.8757C58.1129 17.3704 62.4025 18.7502 66.2934 20.9334C71.0961 23.6262 75.1568 27.4669 78.113 32.1121C81.0691 36.7574 82.8284 42.0626 83.2339 47.5537C83.6393 53.0448 82.6782 58.5509 80.4363 63.5799C78.1945 68.609 74.7418 73.0043 70.3868 76.3734C64.5392 80.8679 57.3753 83.3137 50.0001 83.3334V83.3334ZM50.0001 19.3334C47.0303 19.3429 44.0783 19.7923 41.2401 20.6667C35.2208 22.4629 29.8982 26.0642 25.9922 30.9837C22.0862 35.9032 19.7851 41.9036 19.4001 48.1734C19.4001 48.8 19.3334 49.4 19.3334 50C19.3334 58.1333 22.5644 65.9335 28.3155 71.6846C34.0666 77.4358 41.8668 80.6667 50.0001 80.6667C53.3671 80.6719 56.7111 80.1131 59.8934 79.0134C63.0931 77.9402 66.0869 76.3305 68.7468 74.2534C73.8045 70.3396 77.5122 64.9426 79.3509 58.8175C81.1897 52.6924 81.0676 46.1456 79.0017 40.0934C76.9358 34.0411 73.0294 28.7861 67.8292 25.0637C62.6291 21.3413 56.3952 19.3377 50.0001 19.3334V19.3334Z" fill="white"/>
<path d="M53.2401 34.5733C52.0714 34.5733 50.9288 34.2266 49.9572 33.577C48.9856 32.9273 48.2285 32.0041 47.7818 30.924C47.3352 29.8439 47.219 28.6556 47.448 27.5094C47.677 26.3633 48.2408 25.3108 49.0682 24.4853C49.8956 23.6598 50.9494 23.0983 52.096 22.8719C53.2427 22.6455 54.4307 22.7644 55.5098 23.2135C56.5889 23.6626 57.5104 24.4217 58.1578 25.3948C58.8053 26.3679 59.1495 27.5112 59.1468 28.68C59.1468 29.4551 58.9939 30.2225 58.6969 30.9384C58.3999 31.6543 57.9646 32.3045 57.416 32.8519C56.8673 33.3994 56.2161 33.8332 55.4995 34.1286C54.783 34.424 54.0152 34.5751 53.2401 34.5733V34.5733ZM53.2401 25.44C52.5993 25.44 51.9729 25.63 51.4401 25.9861C50.9073 26.3421 50.492 26.8481 50.2468 27.4401C50.0015 28.0322 49.9374 28.6836 50.0624 29.3121C50.1874 29.9406 50.496 30.5179 50.9491 30.971C51.4022 31.4242 51.9796 31.7327 52.6081 31.8578C53.2366 31.9828 53.888 31.9186 54.48 31.6734C55.0721 31.4282 55.5781 31.0129 55.9341 30.4801C56.2901 29.9472 56.4801 29.3208 56.4801 28.68C56.4801 27.8207 56.1388 26.9966 55.5312 26.389C54.9236 25.7814 54.0995 25.44 53.2401 25.44V25.44Z" fill="white"/>
<path d="M35.0534 53.1733C33.8852 53.1733 32.7432 52.8269 31.7718 52.1779C30.8005 51.5288 30.0434 50.6063 29.5963 49.527C29.1493 48.4477 29.0323 47.2601 29.2602 46.1143C29.4881 44.9685 30.0507 43.9161 30.8768 43.09C31.7028 42.2639 32.7553 41.7014 33.9011 41.4735C35.0468 41.2456 36.2345 41.3625 37.3138 41.8096C38.3931 42.2567 39.3156 43.0137 39.9646 43.9851C40.6136 44.9564 40.9601 46.0984 40.9601 47.2667C40.9565 48.8321 40.3331 50.3325 39.2261 51.4394C38.1192 52.5464 36.6189 53.1698 35.0534 53.1733ZM35.0534 44.0267C34.4126 44.0267 33.7862 44.2167 33.2533 44.5727C32.7205 44.9287 32.3053 45.4347 32.06 46.0268C31.8148 46.6188 31.7506 47.2702 31.8757 47.8987C32.0007 48.5272 32.3092 49.1046 32.7624 49.5577C33.2155 50.0108 33.7928 50.3194 34.4213 50.4444C35.0498 50.5694 35.7013 50.5052 36.2933 50.26C36.8853 50.0148 37.3913 49.5995 37.7474 49.0667C38.1034 48.5339 38.2934 47.9075 38.2934 47.2667C38.2969 46.8389 38.2157 46.4147 38.0545 46.0186C37.8932 45.6224 37.6551 45.2621 37.3539 44.9584C37.0527 44.6547 36.6943 44.4136 36.2995 44.2491C35.9046 44.0847 35.4811 44 35.0534 44V44.0267Z" fill="white"/>
<path d="M64.3734 70.2667C63.204 70.2693 62.0602 69.9248 61.0868 69.2768C60.1134 68.6288 59.3543 67.7064 58.9055 66.6266C58.4568 65.5467 58.3387 64.358 58.5662 63.211C58.7937 62.0639 59.3565 61.0103 60.1834 60.1834C61.0103 59.3565 62.064 58.7937 63.211 58.5662C64.358 58.3387 65.5467 58.4568 66.6266 58.9055C67.7064 59.3543 68.6288 60.1134 69.2768 61.0868C69.9248 62.0602 70.2693 63.204 70.2667 64.3734C70.2667 65.9364 69.6458 67.4354 68.5406 68.5406C67.4354 69.6458 65.9364 70.2667 64.3734 70.2667V70.2667ZM64.3734 61.1334C63.732 61.1307 63.1043 61.3185 62.5697 61.6729C62.0351 62.0273 61.6178 62.5324 61.3705 63.1242C61.1232 63.716 61.0572 64.3679 61.1807 64.9972C61.3042 65.6266 61.6117 66.2052 62.0643 66.6596C62.5169 67.1141 63.0942 67.424 63.723 67.5501C64.3519 67.6762 65.004 67.6128 65.5968 67.368C66.1896 67.1231 66.6964 66.7079 67.0531 66.1748C67.4097 65.6417 67.6 65.0147 67.6 64.3734C67.6 63.5164 67.2605 62.6943 66.6558 62.087C66.051 61.4798 65.2304 61.1369 64.3734 61.1334V61.1334Z" fill="white"/>
</svg>
