<svg width="100" height="100" viewBox="0 0 100 100" fill="none" xmlns="http://www.w3.org/2000/svg">
<path d="M83.661 38.6198V69.9164L56.1138 85.8325V73.9567L71.4178 65.1263C71.8272 64.8962 72.1782 64.575 72.4436 64.1876C72.7089 63.8001 72.8816 63.3568 72.9482 62.8919C72.9793 62.4946 72.9793 62.0955 72.9482 61.6982V44.2823L83.661 38.1607V38.6198ZM85.8188 33.5695C85.6641 33.5666 85.5113 33.6035 85.375 33.6767L70.7597 42.1244C70.4843 42.2775 69.8874 42.553 69.8874 42.905V61.6982C69.904 61.9581 69.904 62.2188 69.8874 62.4787L53.5122 71.9212C53.3776 72.0025 53.2661 72.1169 53.1884 72.2536C53.1107 72.3902 53.0693 72.5445 53.0684 72.7018V89.5361C53.0684 89.6547 53.0917 89.7721 53.1371 89.8816C53.1825 89.9912 53.249 90.0907 53.3328 90.1746C53.4167 90.2584 53.5162 90.3249 53.6258 90.3703C53.7353 90.4157 53.8527 90.439 53.9713 90.439C54.1272 90.4366 54.28 90.3944 54.4151 90.3166L86.2932 71.9519C86.4278 71.8706 86.5393 71.7562 86.6171 71.6196C86.6948 71.4829 86.7361 71.3286 86.7371 71.1714V34.35C86.7371 34.2322 86.7136 34.1155 86.6681 34.0068C86.6225 33.8981 86.5557 33.7995 86.4717 33.7169C86.3876 33.6343 86.288 33.5692 86.1785 33.5255C86.069 33.4818 85.952 33.4604 85.8341 33.4624L85.8188 33.5695Z" fill="white"/>
<path d="M47.5744 92C47.1502 92.0008 46.7332 91.8899 46.3654 91.6786L14.472 73.3139C14.104 73.1014 13.7985 72.7958 13.5863 72.4277C13.374 72.0596 13.2625 71.6421 13.2629 71.2172V30.6771C13.2625 30.2522 13.374 29.8347 13.5863 29.4666C13.7985 29.0985 14.104 28.7929 14.472 28.5804L49.5486 8.33328C49.917 8.11511 50.3372 8 50.7653 8C51.1934 8 51.6136 8.11511 51.9819 8.33328L83.8601 26.698C84.227 26.9116 84.5317 27.2176 84.7438 27.5854C84.9558 27.9532 85.068 28.3701 85.0691 28.7947C85.0676 29.2212 84.9554 29.6401 84.7435 30.0103C84.5316 30.3805 84.2272 30.6894 83.8601 30.9066L49.9924 50.4957V89.582C49.996 90.0075 49.8859 90.4262 49.6733 90.7948C49.4607 91.1635 49.1535 91.4686 48.7834 91.6786C48.4156 91.8899 47.9986 92.0008 47.5744 92V92ZM16.3237 70.804L46.9316 88.4648V50.1284C46.9316 49.7015 47.0431 49.282 47.2552 48.9116C47.4673 48.5411 47.7725 48.2325 48.1407 48.0164L81.3655 28.8559L50.7576 11.1798L16.339 31.075L16.3237 70.804Z" fill="white"/>
</svg>
