<svg width="100" height="100" viewBox="0 0 100 100" fill="none" xmlns="http://www.w3.org/2000/svg">
<path d="M48.3882 63.7491H27.1243C18.8009 63.7491 12.4369 58.19 12.0117 50.5502C12.0117 50.2312 12.0117 49.8667 12.0117 49.5022C11.8823 46.3325 12.8319 43.2127 14.7051 40.6525C16.5783 38.0923 19.2645 36.2432 22.3247 35.4072C22.3247 34.9971 22.3247 34.6022 22.3247 34.1921C22.4013 30.1031 23.6864 26.1282 26.0182 22.7683C28.35 19.4084 31.624 16.8138 35.4278 15.3115C39.2316 13.8091 43.395 13.4662 47.3934 14.3259C51.3918 15.1857 55.0462 17.2096 57.8963 20.1427C59.8839 22.11 61.4996 24.4204 62.6655 26.9624C64.3319 25.6236 66.4059 24.8947 68.5435 24.8967C72.9481 24.8967 77.6566 28.0408 78.4312 35.0427C82.1741 35.7831 85.5509 37.7824 88 40.708L85.6154 42.5762C83.3411 39.9742 80.211 38.2718 76.7908 37.7766C76.4491 37.7218 76.1362 37.5519 75.9042 37.295C75.6722 37.0381 75.5349 36.7097 75.515 36.3641C75.1657 30.5469 71.7634 27.9344 68.5435 27.9344C67.5323 27.9438 66.5371 28.1873 65.6359 28.6459C64.7346 29.1044 63.9519 29.7655 63.349 30.5772C63.1858 30.7947 62.9672 30.9644 62.7161 31.0686C62.465 31.1728 62.1905 31.2077 61.9212 31.1696C61.6509 31.1283 61.3967 31.0148 61.1855 30.841C60.9743 30.6673 60.8139 30.4397 60.7214 30.1823C59.6816 27.2297 57.995 24.5468 55.7851 22.3299C53.3589 19.8336 50.2503 18.1085 46.8484 17.3704C43.4465 16.6322 39.9025 16.9139 36.6599 18.1801C33.4174 19.4464 30.6203 21.6409 28.6189 24.489C26.6174 27.3371 25.5005 30.7123 25.408 34.1921C25.4101 34.9177 25.4507 35.6427 25.5295 36.3641C25.5661 36.7266 25.4712 37.0901 25.2621 37.3885C25.0529 37.6868 24.7436 37.9 24.3903 37.9893C20.9425 38.8398 15.1253 41.4826 15.1253 49.5022C15.1101 49.7754 15.1101 50.0492 15.1253 50.3224C15.4595 56.3978 20.5476 60.7113 27.2762 60.7113H48.5401L48.3882 63.7491Z" fill="white"/>
<path d="M69.6518 86.1371C51.6382 86.1371 51.4255 65.8907 51.4255 65.6933V47.2088C51.4245 46.8985 51.5186 46.5953 51.6951 46.34C51.8716 46.0847 52.1221 45.8897 52.4128 45.7811L69.1202 39.5993C69.4642 39.4777 69.8394 39.4777 70.1834 39.5993L86.8908 45.7811C87.1815 45.8897 87.432 46.0847 87.6085 46.34C87.785 46.5953 87.8791 46.8985 87.8781 47.2088V66.8324C87.8781 67.0299 87.6654 86.1371 69.6518 86.1371ZM54.4633 48.272V65.6933C54.4633 66.4071 54.6759 83.0994 69.6518 83.0994C84.6277 83.0994 84.8404 67.5007 84.8404 66.8324V48.272L69.6518 42.637L54.4633 48.272Z" fill="white"/>
<path d="M69.6523 80.4564C59.9924 80.4564 57.623 68.1992 57.5015 67.6828C57.4865 67.5923 57.4865 67.5 57.5015 67.4094V51.6741C57.5012 51.3699 57.5923 51.0726 57.7629 50.8208C57.9335 50.5689 58.1758 50.3741 58.4584 50.2616L69.0904 46.0695C69.4512 45.9258 69.8535 45.9258 70.2143 46.0695L80.8463 50.2616C81.1289 50.3741 81.3712 50.5689 81.5418 50.8208C81.7124 51.0726 81.8035 51.3699 81.8032 51.6741V67.4094C81.8106 67.5004 81.8106 67.5919 81.8032 67.6828C81.6817 68.1992 79.3123 80.4564 69.6523 80.4564ZM60.5392 67.2576C60.7822 68.4119 62.9542 77.4187 69.6523 77.4187C76.3505 77.4187 78.5225 68.4271 78.7655 67.2576V52.7069L69.6523 49.1224L60.5392 52.7069V67.2576Z" fill="white"/>
</svg>
