<svg width="100" height="100" viewBox="0 0 100 100" fill="none" xmlns="http://www.w3.org/2000/svg">
<path d="M86.3384 33.7292H82.508C81.0123 33.7336 79.5791 34.3298 78.5214 35.3874C77.4638 36.4451 76.8676 37.8783 76.8632 39.374V39.8948H56.7032V29.8148H59.408C60.5154 30.8899 61.9974 31.4923 63.5408 31.4948C65.2537 31.4249 66.8688 30.6779 68.0312 29.4178C69.1936 28.1578 69.8082 26.4878 69.74 24.7748C69.8082 23.0618 69.1936 21.3919 68.0312 20.1318C66.8688 18.8717 65.2537 18.1247 63.5408 18.0548C62.0353 18.0737 60.5959 18.6759 59.5256 19.7348H56.6528C56.6664 17.8938 55.9798 16.1164 54.7321 14.7627C53.4844 13.4089 51.7688 12.5799 49.9328 12.4436C48.0968 12.5799 46.3812 13.4089 45.1335 14.7627C43.8858 16.1164 43.1992 17.8938 43.2128 19.7348H40.6256C39.5553 18.6759 38.1159 18.0737 36.6104 18.0548C34.9005 18.129 33.2897 18.8779 32.1308 20.1375C30.972 21.3971 30.3597 23.0646 30.428 24.7748C30.3597 26.485 30.972 28.1525 32.1308 29.4121C33.2897 30.6717 34.9005 31.4206 36.6104 31.4948C38.1552 31.4994 39.6398 30.896 40.7432 29.8148H43.28V39.8948H23.0024V39.3404C22.998 37.8507 22.403 36.4235 21.3481 35.3717C20.2931 34.3198 18.8641 33.7292 17.3744 33.7292H13.628C12.1383 33.7292 10.7093 34.3198 9.65433 35.3717C8.59936 36.4235 8.00445 37.8507 8 39.3404V81.9116C8 83.4042 8.59295 84.8358 9.6484 85.8912C10.7039 86.9467 12.1354 87.5396 13.628 87.5396H17.3744C18.867 87.5396 20.2985 86.9467 21.354 85.8912C22.4095 84.8358 23.0024 83.4042 23.0024 81.9116H76.8632C76.8676 83.4073 77.4638 84.8405 78.5214 85.8982C79.5791 86.9558 81.0123 87.552 82.508 87.5564H86.3384C87.8399 87.5564 89.28 86.9599 90.3418 85.8982C91.4035 84.8364 92 83.3964 92 81.8948V39.374C91.9956 37.8754 91.3971 36.4396 90.3358 35.3815C89.2746 34.3234 87.837 33.7292 86.3384 33.7292V33.7292ZM19.76 81.9116C19.7578 82.2117 19.6965 82.5083 19.5797 82.7847C19.4628 83.0611 19.2927 83.3117 19.0789 83.5223C18.8652 83.7329 18.6121 83.8994 18.334 84.0121C18.056 84.1249 17.7584 84.1818 17.4584 84.1796H13.6448C13.3456 84.1818 13.0488 84.1248 12.7717 84.0118C12.4946 83.8988 12.2426 83.7321 12.0302 83.5213C11.8178 83.3105 11.6493 83.0597 11.5342 82.7834C11.4192 82.5072 11.36 82.2109 11.36 81.9116V78.5516H19.76V81.9116ZM19.76 75.1916H11.36V46.6316H19.76V75.1916ZM19.76 43.2716H11.36V39.3404C11.3622 39.0426 11.423 38.7481 11.5391 38.4737C11.6551 38.1994 11.824 37.9506 12.0361 37.7416C12.2483 37.5325 12.4996 37.3673 12.7756 37.2554C13.0516 37.1435 13.347 37.087 13.6448 37.0892H17.4584C17.7576 37.0848 18.0548 37.1396 18.3328 37.2505C18.6107 37.3615 18.864 37.5263 19.0779 37.7356C19.2919 37.9448 19.4623 38.1944 19.5794 38.4698C19.6964 38.7453 19.7578 39.0411 19.76 39.3404V43.2716ZM50 15.7868C50.9497 15.9187 51.8174 16.396 52.4373 17.1275C53.0571 17.8589 53.3856 18.7932 53.36 19.7516H46.64C46.608 18.8003 46.9253 17.8703 47.5319 17.1368C48.1384 16.4033 48.9924 15.9172 49.9328 15.77L50 15.7868ZM39.9872 26.4548C39.7354 26.4268 39.4807 26.4648 39.2481 26.5649C39.0154 26.6651 38.8128 26.824 38.66 27.026C38.427 27.3564 38.1208 27.6284 37.7652 27.8207C37.4097 28.0131 37.0144 28.1206 36.6104 28.1348C35.7945 28.0538 35.0427 27.657 34.5154 27.0292C33.988 26.4015 33.727 25.5924 33.788 24.7748C33.727 23.9572 33.988 23.1482 34.5154 22.5204C35.0427 21.8926 35.7945 21.4958 36.6104 21.4148C36.9992 21.4244 37.3809 21.5215 37.727 21.6989C38.0732 21.8763 38.3748 22.1295 38.6096 22.4396C38.7659 22.6323 38.963 22.788 39.1867 22.8955C39.4104 23.003 39.6551 23.0596 39.9032 23.0612H60.2144C60.4654 23.0621 60.7134 23.0067 60.9401 22.8991C61.1669 22.7915 61.3667 22.6345 61.5248 22.4396C61.7578 22.1317 62.0568 21.8798 62.3998 21.7025C62.7429 21.5251 63.1212 21.4269 63.5072 21.4148C64.3261 21.4917 65.0821 21.8867 65.613 22.515C66.1439 23.1432 66.4072 23.9546 66.3464 24.7748C66.4072 25.595 66.1439 26.4064 65.613 27.0347C65.0821 27.6629 64.3261 28.0579 63.5072 28.1348C63.1032 28.1206 62.7079 28.0131 62.3524 27.8207C61.9968 27.6284 61.6906 27.3564 61.4576 27.026C61.3048 26.824 61.1022 26.6651 60.8695 26.5649C60.6368 26.4648 60.3821 26.4268 60.1304 26.4548H39.9872ZM53.4272 29.8148V39.8948H46.7072V29.8148H53.4272ZM76.9472 78.5348H23.1872V73.4948H76.9472V78.5348ZM76.9472 70.1348H23.1872V49.9748H76.9472V70.1348ZM76.9472 46.6148H23.1872V43.2548H76.9472V46.6148ZM88.7072 81.8948C88.7072 82.5008 88.4665 83.0819 88.038 83.5104C87.6095 83.9389 87.0284 84.1796 86.4224 84.1796H82.508C81.902 84.1796 81.3209 83.9389 80.8924 83.5104C80.4639 83.0819 80.2232 82.5008 80.2232 81.8948V78.5348H88.6232L88.7072 81.8948ZM88.7072 75.1748H80.3072V46.6148H88.7072V75.1748ZM88.7072 43.2548H80.3072V39.374C80.3072 38.768 80.5479 38.1869 80.9764 37.7584C81.4049 37.3299 81.986 37.0892 82.592 37.0892H86.4392C87.0452 37.0892 87.6263 37.3299 88.0548 37.7584C88.4833 38.1869 88.724 38.768 88.724 39.374L88.7072 43.2548Z" fill="white"/>
</svg>
