<svg width="100" height="100" viewBox="0 0 100 100" fill="none" xmlns="http://www.w3.org/2000/svg">
<path d="M92 41.6135V44.9715H77.1914C38.4237 44.9715 8.05091 29.6927 8.05091 10.1494C8.04543 9.44193 8.09032 8.73497 8.18523 8.03387H11.5432C11.4289 8.7332 11.3727 9.44079 11.3753 10.1494C11.3753 27.4933 40.8918 41.6135 77.1914 41.6135H92Z" fill="white"/>
<path d="M92 48.3293V51.6873H71.4492C38.5916 51.6873 14.9683 57.0097 8.05088 65.9419V61.4422C15.388 55.0285 28.9878 51.7041 42.2685 50.0083C28.9542 48.3293 15.4048 44.9714 8.03409 38.7088V33.8062C14.8675 42.7719 38.0375 48.1614 70.3243 48.3293H92Z" fill="white"/>
<path d="M92 34.8807V38.2387H85.049C51.3351 38.2387 26.8723 26.8216 26.8723 11.0896C26.8723 11.0896 26.8723 9.15874 26.8723 8.01703H30.4149C30.4149 8.82294 30.4149 10.4851 30.4149 11.0896C30.4149 24.5214 53.9207 34.8807 85.0658 34.8807H92Z" fill="white"/>
<path d="M92 55.0453V58.4033H77.1914C40.875 58.4033 11.3417 72.5739 11.3417 89.9178C11.3413 90.609 11.3918 91.2992 11.4928 91.9829H8.13485C8.03944 91.2988 7.99454 90.6085 8.00053 89.9178C8.00053 70.3577 38.4069 55.0453 77.225 55.0453H92Z" fill="white"/>
<path d="M92 61.7612V65.1192H85.049C53.8535 65.1192 30.331 75.1931 30.331 88.7425C30.331 89.3973 30.331 91.2945 30.331 91.9829H26.973C26.973 90.8748 26.973 88.776 26.973 88.7425C26.973 73.0944 51.419 61.7612 85.0826 61.7612H92Z" fill="white"/>
</svg>
