<svg width="100" height="100" viewBox="0 0 100 100" fill="none" xmlns="http://www.w3.org/2000/svg">
<path d="M50.5546 21.5862L33.8023 35.2053L36.0571 37.9788L52.8094 24.3597L50.5546 21.5862Z" fill="#A166FF"/>
<path d="M36.0473 62.0104L33.7925 64.7839L50.5448 78.403L52.7996 75.6295L36.0473 62.0104Z" fill="#A166FF"/>
<path d="M48.9006 54.4461L47.7688 57.8366L74.571 66.7837L75.7029 63.3932L48.9006 54.4461Z" fill="#A166FF"/>
<path d="M74.787 33.0143L47.9436 42.0563L49.0874 45.452L75.9308 36.41L74.787 33.0143Z" fill="#A166FF"/>
<path d="M58.1667 23.8544L55.2167 25.8729L76.9955 57.7039L79.9455 55.6854L58.1667 23.8544Z" fill="#A166FF"/>
<path d="M81.2587 29.6255C75.2536 24.9072 65.7992 18.0085 65.7098 17.937L67.8724 15.0417C67.9796 15.0417 77.4877 22.0476 83.5464 26.8196L81.2587 29.6255Z" fill="#A166FF"/>
<path d="M66.7642 26.6587H51.68C51.206 26.6587 50.7514 26.4704 50.4162 26.1353C50.0811 25.8001 49.8928 25.3455 49.8928 24.8715V9.78723C49.8928 9.31323 50.0811 8.85864 50.4162 8.52347C50.7514 8.1883 51.206 8 51.68 8H66.7642C67.2383 8 67.6928 8.1883 68.028 8.52347C68.3632 8.85864 68.5515 9.31323 68.5515 9.78723V24.8715C68.5515 25.3455 68.3632 25.8001 68.028 26.1353C67.6928 26.4704 67.2383 26.6587 66.7642 26.6587ZM53.4672 23.0843H64.977V11.5745H53.4672V23.0843Z" fill="#A166FF"/>
<path d="M77.0027 42.2942L55.2294 74.129L58.1798 76.1469L79.9531 44.3121L77.0027 42.2942Z" fill="#A166FF"/>
<path d="M67.8724 84.9583L65.7813 82.063C65.8707 82.063 75.3251 75.0928 81.3302 70.3745L83.4749 73.2341C77.4162 77.9524 67.8724 84.8869 67.8724 84.9583Z" fill="#A166FF"/>
<path d="M66.7642 92H51.68C51.206 92 50.7514 91.8117 50.4162 91.4765C50.0811 91.1413 49.8928 90.6867 49.8928 90.2127V75.1285C49.8928 74.6545 50.0811 74.1999 50.4162 73.8647C50.7514 73.5295 51.206 73.3412 51.68 73.3412H66.7642C67.2383 73.3412 67.6928 73.5295 68.028 73.8647C68.3632 74.1999 68.5515 74.6545 68.5515 75.1285V90.2127C68.5515 90.6867 68.3632 91.1413 68.028 91.4765C67.6928 91.8117 67.2383 92 66.7642 92ZM53.4672 88.4255H64.977V76.9157H53.4672V88.4255Z" fill="#A166FF"/>
<path d="M90.2128 73.5736H75.1285C74.6545 73.5736 74.1999 73.3853 73.8647 73.0502C73.5296 72.715 73.3413 72.2604 73.3413 71.7864V56.7022C73.3413 56.2281 73.5296 55.7736 73.8647 55.4384C74.1999 55.1032 74.6545 54.9149 75.1285 54.9149H90.2128C90.6868 54.9149 91.1414 55.1032 91.4765 55.4384C91.8117 55.7736 92 56.2281 92 56.7022V71.7864C92 72.2604 91.8117 72.715 91.4765 73.0502C91.1414 73.3853 90.6868 73.5736 90.2128 73.5736ZM76.9157 69.9992H88.4255V58.4894H76.9157V69.9992Z" fill="#A166FF"/>
<path d="M90.2128 45.0851H75.1285C74.6545 45.0851 74.1999 44.8968 73.8647 44.5616C73.5296 44.2265 73.3413 43.7719 73.3413 43.2979V28.2136C73.3413 27.7396 73.5296 27.285 73.8647 26.9499C74.1999 26.6147 74.6545 26.4264 75.1285 26.4264H90.2128C90.6868 26.4264 91.1414 26.6147 91.4765 26.9499C91.8117 27.285 92 27.7396 92 28.2136V43.2979C92 43.7719 91.8117 44.2265 91.4765 44.5616C91.1414 44.8968 90.6868 45.0851 90.2128 45.0851ZM76.9157 41.5106H88.4255V30.0009H76.9157V41.5106Z" fill="#A166FF"/>
<path d="M48.32 65.1915H9.78723C9.31323 65.1915 8.85864 65.0032 8.52347 64.668C8.1883 64.3329 8 63.8783 8 63.4043V36.5958C8 36.1218 8.1883 35.6672 8.52347 35.332C8.85864 34.9968 9.31323 34.8085 9.78723 34.8085H48.32C48.794 34.8085 49.2486 34.9968 49.5838 35.332C49.9189 35.6672 50.1072 36.1218 50.1072 36.5958V63.4043C50.1072 63.8783 49.9189 64.3329 49.5838 64.668C49.2486 65.0032 48.794 65.1915 48.32 65.1915ZM11.5745 61.617H46.5328V38.383H11.5745V61.617Z" fill="#A166FF"/>
<path d="M18.5268 57.2562V42.1719H23.0843C23.898 42.12 24.7122 42.267 25.4564 42.6001C26.2006 42.9333 26.8525 43.4427 27.3558 44.0843C28.4312 45.7497 28.9391 47.7184 28.8034 49.6962C28.9457 51.6835 28.4444 53.6637 27.3736 55.3439C26.8864 55.9806 26.2502 56.488 25.521 56.8215C24.7918 57.1549 23.9919 57.3042 23.1915 57.2562H18.5268ZM21.583 44.4954V54.9328H22.8698C23.302 54.9476 23.7294 54.8395 24.1027 54.6213C24.4759 54.403 24.7797 54.0835 24.9788 53.6996C25.5058 52.5406 25.745 51.2714 25.6758 50V49.5532C25.7734 48.234 25.5335 46.9116 24.9788 45.7107C24.7746 45.3245 24.4642 45.0048 24.0841 44.7894C23.7041 44.5741 23.2703 44.472 22.8341 44.4954H21.583Z" fill="#A166FF"/>
<path d="M40.3132 56.8272C39.2978 57.2883 38.1934 57.5202 37.0783 57.5064C33.0272 57.5064 30.9957 54.9328 30.9838 49.7855C30.8492 47.7203 31.4091 45.6694 32.5745 43.9591C33.1187 43.2785 33.8182 42.7383 34.6143 42.3838C35.4103 42.0293 36.2798 41.8709 37.1498 41.9217C38.1736 41.9221 39.1874 42.1225 40.1345 42.5115V44.9064C39.2794 44.6286 38.3882 44.478 37.4894 44.4596C36.9991 44.4242 36.508 44.5158 36.0634 44.7256C35.6189 44.9353 35.2359 45.2561 34.9515 45.657C34.3333 46.8325 34.0549 48.1569 34.1472 49.4817V50C34.0594 51.3053 34.3314 52.6097 34.9336 53.7711C35.2058 54.1715 35.5788 54.4931 36.0149 54.7034C36.4511 54.9136 36.935 55.0051 37.4179 54.9685C38.3889 54.915 39.3494 54.7409 40.2774 54.4502L40.3132 56.8272Z" fill="#A166FF"/>
</svg>
