<svg width="100" height="100" viewBox="0 0 100 100" fill="none" xmlns="http://www.w3.org/2000/svg">
<path d="M70.8835 60.3832L68.7896 58.4328L76.62 50L68.7896 41.5673L70.8835 39.6168L79.6174 49.0248C79.8633 49.29 80 49.6383 80 50C80 50.3617 79.8633 50.71 79.6174 50.9752L70.8835 60.3832Z" fill="#D86613"/>
<path d="M76.5627 48.5659H42.9463V51.4341H76.5627V48.5659Z" fill="#D86613"/>
<path d="M32.1902 62.1902C29.7792 62.1902 27.4224 61.4753 25.4177 60.1358C23.413 58.7963 21.8506 56.8925 20.9279 54.665C20.0053 52.4375 19.7639 49.9865 20.2342 47.6218C20.7046 45.2571 21.8656 43.0851 23.5704 41.3802C25.2753 39.6754 27.4474 38.5144 29.812 38.044C32.1767 37.5737 34.6278 37.8151 36.8552 38.7377C39.0827 39.6604 40.9866 41.2228 42.326 43.2275C43.6655 45.2322 44.3805 47.589 44.3805 50C44.3767 53.2319 43.0911 56.3303 40.8058 58.6156C38.5205 60.9009 35.4221 62.1864 32.1902 62.1902ZM32.1902 40.6781C30.3465 40.6781 28.5442 41.2248 27.0112 42.2491C25.4783 43.2734 24.2834 44.7293 23.5779 46.4327C22.8723 48.136 22.6877 50.0104 23.0474 51.8186C23.4071 53.6269 24.2949 55.2879 25.5986 56.5916C26.9023 57.8953 28.5633 58.7831 30.3716 59.1428C32.1799 59.5025 34.0542 59.3179 35.7576 58.6124C37.4609 57.9068 38.9168 56.712 39.9411 55.179C40.9654 53.646 41.5122 51.8437 41.5122 50C41.5084 47.5288 40.525 45.16 38.7776 43.4126C37.0303 41.6652 34.6614 40.6819 32.1902 40.6781Z" fill="#D86613"/>
</svg>
