<svg width="100" height="100" viewBox="0 0 100 100" fill="none" xmlns="http://www.w3.org/2000/svg">
<path d="M50 33.1463H41.6067C41.1615 33.1463 40.7345 33.3231 40.4197 33.6379C40.1049 33.9527 39.9281 34.3797 39.9281 34.8249V65.0408C39.9281 65.486 40.1049 65.9129 40.4197 66.2277C40.7345 66.5426 41.1615 66.7194 41.6067 66.7194H50C50.4452 66.7194 50.8722 66.5426 51.187 66.2277C51.5018 65.9129 51.6787 65.486 51.6787 65.0408V34.8249C51.6787 34.3797 51.5018 33.9527 51.187 33.6379C50.8722 33.3231 50.4452 33.1463 50 33.1463V33.1463ZM48.3214 63.3621H43.2854V36.5036H48.3214V63.3621Z" fill="white"/>
<path d="M70.5132 41.5732L51.6787 37.4269L50.3693 37.1583C50.1228 37.1004 49.8664 37.099 49.6193 37.1543C49.3722 37.2095 49.1408 37.3199 48.9424 37.4772C48.7499 37.6334 48.5943 37.8304 48.4869 38.0539C48.3795 38.2773 48.323 38.5219 48.3213 38.7698V61.1295C48.318 61.3831 48.3721 61.6342 48.4797 61.8639C48.5872 62.0936 48.7455 62.2959 48.9424 62.4557C49.2492 62.6813 49.6192 62.8046 50 62.8082H50.3693L51.6787 62.506L70.5132 58.3262C70.8919 58.2409 71.2293 58.027 71.468 57.7209C71.7067 57.4149 71.832 57.0355 71.8225 56.6475V43.2182C71.8243 42.8359 71.6954 42.4645 71.4573 42.1653C71.2192 41.8662 70.8861 41.6573 70.5132 41.5732ZM68.4652 55.3214L51.6787 59.048V40.7842L68.4652 44.5276V55.3214Z" fill="white"/>
<path d="M91.9664 40.7842V44.3094C86.5057 45.8522 80.8542 46.6151 75.1799 46.5755V43.2182C80.8664 43.2616 86.5264 42.4409 91.9664 40.7842V40.7842Z" fill="white"/>
<path d="M91.9664 47.3309V50.6882C86.3948 51.3326 80.7884 51.6297 75.1799 51.5779V48.2206C80.7887 48.2847 86.3958 47.9875 91.9664 47.3309V47.3309Z" fill="white"/>
<path d="M91.9664 49.446V52.8034C86.4092 51.9795 80.7978 51.5755 75.1799 51.5947V48.2374C80.7978 48.2191 86.4091 48.6231 91.9664 49.446V49.446Z" fill="white"/>
<path d="M91.9664 55.6403V59.2494C86.5415 57.5128 80.8759 56.6459 75.1799 56.6811V53.3237C80.8584 53.274 86.5136 54.0544 91.9664 55.6403V55.6403Z" fill="white"/>
<path d="M36.5708 41.5396V44.8969C26.5706 44.3693 16.8173 41.5982 8.03358 36.789V32.8609C15.4365 37.6955 25.2902 40.5995 36.5708 41.5396Z" fill="white"/>
<path d="M36.5708 48.2206V51.5779C31.7027 51.3597 26.1631 50.9065 20.5899 50.1007C16.3493 49.525 12.1538 48.6557 8.03358 47.4988V44.024C17.3446 46.5559 26.925 47.9648 36.5708 48.2206V48.2206Z" fill="white"/>
<path d="M36.5708 48.6403V51.9976C26.9258 52.2617 17.3463 53.6705 8.03358 56.1942V52.7194C12.1632 51.5586 16.3706 50.6947 20.6235 50.1343C26.1631 49.3118 31.7027 48.8753 36.5708 48.6403Z" fill="white"/>
<path d="M36.5707 36.0168V39.3741C13.4221 36.6882 8.18465 24.8201 8.18465 14.7146C8.18465 14.3285 8.18465 8 8.18465 8H11.542C11.542 8.3693 11.542 14.4125 11.542 14.7986C11.542 23.4269 16.1751 33.5156 36.5707 36.0168Z" fill="white"/>
<path d="M36.5708 55.2039V58.5612C25.307 59.5012 15.4532 62.4892 8.03358 67.2902V63.3789C16.8169 58.559 26.5676 55.7657 36.5708 55.2039V55.2039Z" fill="white"/>
<path d="M36.5707 60.7938V64.1511C23.5444 65.7458 11.542 71.0504 11.542 85.1343C11.542 85.235 11.542 85.7554 11.542 86.4436C11.542 87.9041 11.542 91.3117 11.542 91.7314L10.1655 91.8489L8.20144 92C8.19266 91.95 8.19266 91.8989 8.20144 91.8489C8.20144 91.446 8.20144 90.3549 8.20144 86.4101C8.20144 85.705 8.20144 85.235 8.20144 85.1343C8.18465 75.1631 13.4221 63.4628 36.5707 60.7938Z" fill="white"/>
</svg>
