<svg width="100" height="100" viewBox="0 0 100 100" fill="none" xmlns="http://www.w3.org/2000/svg">
<path d="M89.4728 75.5438L67.0404 53.0272C69.9435 46.9554 70.7944 40.1046 69.465 33.5072C68.1355 26.9097 64.6978 20.9231 59.6697 16.4496C54.6417 11.9761 48.2958 9.25803 41.5885 8.70507C34.8812 8.15211 28.1759 9.7942 22.4831 13.3839C16.7903 16.9736 12.4185 22.3163 10.0265 28.607C7.63457 34.8976 7.35207 41.7953 9.22159 48.2605C11.0911 54.7256 15.0114 60.408 20.3915 64.4512C25.7717 68.4944 32.3203 70.6793 39.0504 70.6767C44.3033 70.6901 49.4711 69.3503 54.0558 66.7864L76.1178 88.8483C77.9018 90.5213 80.266 91.4358 82.7115 91.3988C85.1569 91.3619 87.4924 90.3763 89.2251 88.6502C90.9577 86.9241 91.9521 84.5924 91.9983 82.1471C92.0445 79.7018 91.139 77.3342 89.4728 75.5438V75.5438ZM39.0504 67.3085C33.5803 67.3085 28.2332 65.6862 23.6853 62.6469C19.1374 59.6076 15.593 55.2877 13.5005 50.2338C11.408 45.1798 10.8614 39.6188 11.9297 34.2542C12.9981 28.8895 15.6335 23.9622 19.5025 20.0955C23.3716 16.2288 28.3005 13.5964 33.6658 12.5313C39.0311 11.4662 44.5918 12.0163 49.6445 14.1119C54.6971 16.2074 59.0148 19.7544 62.0513 24.3042C65.0879 28.854 66.7069 34.2021 66.7036 39.6721C66.6946 47.0019 63.7778 54.0287 58.5933 59.2101C53.4087 64.3914 46.3802 67.304 39.0504 67.3085ZM87.0814 86.4569C86.5196 87.0216 85.8517 87.4697 85.1162 87.7755C84.3806 88.0813 83.5919 88.2387 82.7953 88.2387C81.9987 88.2387 81.21 88.0813 80.4745 87.7755C79.7389 87.4697 79.0711 87.0216 78.5092 86.4569L56.9862 64.9676C60.3483 62.5903 63.2095 59.5746 65.4068 56.0922L87.1319 77.9858C88.235 79.1229 88.8477 80.6475 88.8383 82.2317C88.8288 83.8159 88.198 85.3331 87.0814 86.4569V86.4569ZM83.7132 42.1309C83.6845 43.7186 83.2693 45.2753 82.5033 46.6663C81.7374 48.0573 80.6439 49.2405 79.3176 50.1136C77.4088 51.4506 75.1746 52.2477 72.8506 52.4209H70.9981C71.4375 51.3186 71.8198 50.1943 72.1433 49.0526H72.8506C74.5123 48.8934 76.1061 48.3138 77.4819 47.3685C78.3629 46.7907 79.0961 46.0144 79.6225 45.1018C80.149 44.1893 80.4541 43.1659 80.5133 42.1141C80.5089 40.5119 79.899 38.9706 78.8058 37.7993C77.7126 36.628 76.217 35.9134 74.6189 35.7986C74.1692 35.7375 73.7567 35.5162 73.4569 35.1755C73.3135 35.0006 73.2068 34.7987 73.1431 34.5817C73.0795 34.3646 73.0602 34.137 73.0864 33.9124V33.7608C73.0859 33.0736 72.8871 32.4011 72.5138 31.8241C72.1356 30.1629 71.623 28.5352 70.9812 26.957C72.3469 27.2616 73.5901 27.9682 74.5506 28.9858C75.5112 30.0033 76.145 31.2852 76.3704 32.6662C78.4899 33.1833 80.3743 34.3974 81.7211 36.1138C83.068 37.8302 83.7991 39.9492 83.7974 42.1309H83.7132ZM61.3649 30.1231V30.5273C60.6043 30.3679 59.8167 30.3917 59.067 30.5967C58.3174 30.8016 57.6273 31.182 57.0536 31.7062C56.8523 31.896 56.6074 32.0333 56.3405 32.106C56.0735 32.1786 55.7928 32.1844 55.5231 32.1228C55.2534 32.0612 55.0031 31.9342 54.7941 31.7528C54.5852 31.5715 54.4242 31.3415 54.3253 31.0831C53.5701 29.1068 52.319 27.3582 50.6924 26.0054C49.0657 24.6526 47.1184 23.7412 45.0375 23.3589C42.9567 22.9766 40.8126 23.1362 38.8113 23.8224C36.81 24.5086 35.0191 25.6983 33.6107 27.277C31.6002 29.5021 30.4896 32.3956 30.495 35.3944C30.4948 35.7496 30.3822 36.0956 30.1735 36.3829C29.9648 36.6702 29.6706 36.8843 29.333 36.9944C27.8522 37.4743 26.5251 38.338 25.4867 39.4977C24.4483 40.6574 23.7358 42.0715 23.4217 43.5961V43.5961C23.3189 44.1515 23.2682 44.7154 23.2702 45.2802C23.2791 47.6149 24.2128 49.8508 25.8668 51.4985C27.5208 53.1462 29.7603 54.0713 32.0949 54.0713H58.5693C57.6584 55.2799 56.6441 56.4069 55.5379 57.4395H31.9602C30.176 57.452 28.4111 57.0701 26.7918 56.321C25.1724 55.572 23.7386 54.4743 22.5929 53.1065C21.4471 51.7387 20.6179 50.1347 20.1643 48.409C19.7108 46.6834 19.6442 44.8789 19.9693 43.1245C19.9693 43.1245 19.9693 43.1245 19.9693 43.0235C20.3353 41.0881 21.1698 39.2718 22.3999 37.7334C23.63 36.1951 25.2183 34.9815 27.0258 34.1987C27.3467 30.2671 29.1332 26.5996 32.031 23.9233C34.9289 21.2469 38.7265 19.757 42.6712 19.749C45.4902 19.7536 48.2561 20.5158 50.6796 21.9557C53.1031 23.3956 55.0951 25.4603 56.4473 27.9338C57.4861 27.3804 58.639 27.0749 59.8155 27.0412C60.4134 28.0255 60.9315 29.0561 61.3649 30.1231V30.1231Z" fill="white"/>
</svg>
