<svg width="100" height="100" viewBox="0 0 100 100" fill="none" xmlns="http://www.w3.org/2000/svg">
<path d="M32.3191 60.8729V52.6712L30.3357 58.0318H28.3701L26.4225 52.8142V60.8907H24.3318V49.2762H27.0121L29.4065 55.7625L31.8009 49.2762H34.4097V60.8729H32.3191Z" fill="#A166FF"/>
<path d="M40.5744 60.8729L40.3778 60.1045C40.1745 60.4136 39.8901 60.6608 39.5558 60.8193C39.2202 60.9993 38.8467 61.0973 38.4659 61.1052C38.1589 61.1186 37.8528 61.0648 37.5688 60.9475C37.2849 60.8302 37.03 60.6523 36.822 60.4262C36.4005 59.8941 36.1848 59.2281 36.2144 58.55C36.1948 58.1854 36.2514 57.8207 36.3806 57.4792C36.5098 57.1377 36.7088 56.8268 36.9649 56.5666C37.2286 56.3163 37.5404 56.1224 37.8813 55.9964C38.2223 55.8705 38.5853 55.8152 38.9483 55.8339C39.3834 55.8483 39.8153 55.9143 40.2349 56.0305V55.2622C40.2695 54.857 40.1955 54.4499 40.0204 54.0828C39.9092 53.9714 39.7745 53.8862 39.626 53.8337C39.4776 53.7811 39.3193 53.7624 39.1627 53.7791C38.322 53.8158 37.4939 53.9972 36.7148 54.3151V52.7963C37.103 52.5486 37.5328 52.373 37.9834 52.2781C38.512 52.1638 39.0508 52.1039 39.5916 52.0994C39.9694 52.0632 40.3506 52.103 40.7127 52.2166C41.0749 52.3302 41.4106 52.5151 41.7001 52.7606C42.1818 53.3593 42.4125 54.1216 42.3433 54.8869V60.8729H40.5744ZM39.127 59.497C39.338 59.4857 39.5447 59.4325 39.7349 59.3405C39.9251 59.2484 40.0951 59.1194 40.2349 58.9609V57.317C39.9585 57.2254 39.6682 57.1831 39.3772 57.192C39.2355 57.1821 39.0935 57.2061 38.963 57.262C38.8325 57.318 38.7172 57.4042 38.6267 57.5136C38.4303 57.7682 38.3348 58.0863 38.3587 58.407C38.3456 58.6851 38.4206 58.9603 38.5731 59.1932C38.6327 59.2861 38.7147 59.3625 38.8114 59.4156C38.9082 59.4686 39.0167 59.4966 39.127 59.497Z" fill="#A166FF"/>
<path d="M44.291 64.3394V52.3139H46.1672L46.3459 53.0465C46.6234 52.7551 46.9579 52.524 47.3287 52.3675C47.667 52.1968 48.0397 52.1051 48.4187 52.0995C48.8379 52.086 49.2534 52.1829 49.6234 52.3804C49.9934 52.578 50.3051 52.8693 50.5271 53.2252C51.0669 54.2267 51.3145 55.3597 51.2419 56.4951C51.3023 57.6509 51.0426 58.801 50.4914 59.8187C50.2798 60.1891 49.9723 60.4958 49.6013 60.7064C49.2303 60.9171 48.8095 61.024 48.3829 61.0159C48.0576 61.0108 47.7363 60.9441 47.4359 60.8193C47.1241 60.7045 46.8385 60.5283 46.5961 60.3011V64.3216L44.291 64.3394ZM47.6682 53.8149C47.2816 53.8149 46.9054 53.9403 46.5961 54.1722V58.9253C46.9056 59.1737 47.2891 59.312 47.686 59.3184C47.8922 59.3286 48.0963 59.2738 48.2695 59.1615C48.4427 59.0493 48.5761 58.8853 48.6509 58.693C48.8922 58.0175 48.9955 57.3006 48.9547 56.5845C49.0004 55.8565 48.897 55.1269 48.6509 54.4403C48.5752 54.2448 48.439 54.0788 48.2622 53.9663C48.0854 53.8537 47.8773 53.8007 47.6682 53.8149V53.8149Z" fill="#A166FF"/>
<path d="M58.2106 60.8729L56.1914 56.5666H55.3516V60.8729H52.993V49.2762H56.656C57.1109 49.253 57.5654 49.3288 57.9881 49.4985C58.4107 49.6682 58.7915 49.9277 59.104 50.259C59.4314 50.6165 59.6826 51.037 59.8423 51.4947C60.002 51.9524 60.067 52.4378 60.0332 52.9214C60.0486 53.6283 59.889 54.3281 59.5686 54.9584C59.2784 55.502 58.8297 55.9445 58.2821 56.2271L60.7122 60.8729H58.2106ZM55.3516 54.8333H56.4416C56.6357 54.8446 56.8294 54.8062 57.0044 54.7218C57.1795 54.6374 57.3302 54.5097 57.4422 54.3509C57.6654 53.9074 57.7816 53.4178 57.7816 52.9214C57.7816 52.425 57.6654 51.9354 57.4422 51.4919C57.3302 51.3331 57.1795 51.2054 57.0044 51.121C56.8294 51.0366 56.6357 50.9982 56.4416 51.0095H55.3516V54.8333Z" fill="#A166FF"/>
<path d="M73.4346 60.8729V52.6712L71.4333 58.0318H69.4856L67.538 52.8142V60.8907H65.4474V49.2762H68.1276L70.522 55.7625L72.9164 49.2762H75.5431V60.8729H73.4346Z" fill="#A166FF"/>
<path d="M80.0102 61.1052C79.1488 61.0953 78.3004 60.8939 77.5265 60.5155V58.7287C77.9144 58.8917 78.3147 59.0231 78.7237 59.1218C79.0814 59.2054 79.4465 59.2533 79.8137 59.2647C80.993 59.2647 81.6005 58.6393 81.6005 57.3528C81.6005 56.0662 80.9751 55.7267 79.8137 55.7267C79.5077 55.726 79.2024 55.7559 78.9024 55.8161V54.4581L81.3146 51.1881H77.7409V49.4013H83.5303V51.0988L81.1896 54.2794C81.9649 54.3316 82.6893 54.6842 83.2087 55.2622C83.6861 55.854 83.9448 56.5924 83.9413 57.3528C83.9711 57.8558 83.8941 58.3594 83.7155 58.8306C83.5369 59.3017 83.2607 59.7298 82.9049 60.0867C82.5183 60.4462 82.0618 60.7223 81.5637 60.8975C81.0657 61.0727 80.5368 61.1434 80.0102 61.1052V61.1052Z" fill="#A166FF"/>
<path d="M62.8922 81.9399H49.4371C47.1513 81.9458 44.9485 81.0838 43.2736 79.5283C41.5986 77.9728 40.5765 75.8396 40.4135 73.5596H21.0798C20.465 73.5619 19.8557 73.4432 19.2868 73.2101C18.718 72.977 18.2005 72.6341 17.7642 72.201C17.3278 71.768 16.981 71.2532 16.7435 70.6861C16.5061 70.119 16.3827 69.5107 16.3803 68.8959V38.5194C16.378 37.7945 16.5193 37.0763 16.7961 36.4063C17.073 35.7364 17.4799 35.1279 17.9933 34.6162C18.5067 34.1044 19.1165 33.6995 19.7873 33.4248C20.4582 33.1501 21.1768 33.0111 21.9017 33.0159H31.3899V31.0682C31.3946 29.8344 31.8881 28.6528 32.7622 27.782C33.6363 26.9113 34.8198 26.4224 36.0536 26.4224H53.7971C54.4095 26.42 55.0164 26.5383 55.5832 26.7705C56.1499 27.0027 56.6653 27.3443 57.1 27.7757C57.5348 28.2071 57.8803 28.7199 58.1168 29.2848C58.3533 29.8498 58.4763 30.4557 58.4786 31.0682V33.0159H66.4123C67.8688 33.0111 69.2678 33.5839 70.3028 34.6088C71.3377 35.6337 71.9242 37.0271 71.9336 38.4836V39.9846H76.6152V38.7159C76.6175 37.9917 76.7628 37.275 77.0427 36.607C77.3225 35.939 77.7315 35.3329 78.2461 34.8232C78.7607 34.3136 79.3708 33.9106 80.0415 33.6372C80.7122 33.3639 81.4302 33.2256 82.1544 33.2303H86.4786C87.2005 33.2256 87.9162 33.3634 88.5848 33.6359C89.2533 33.9083 89.8614 34.31 90.3744 34.818C90.8873 35.326 91.295 35.9302 91.5739 36.596C91.8529 37.2618 91.9977 37.9762 92 38.6981V71.4332C91.9977 72.1551 91.8529 72.8695 91.5739 73.5353C91.295 74.2011 90.8873 74.8053 90.3744 75.3133C89.8614 75.8213 89.2533 76.223 88.5848 76.4954C87.9162 76.7679 87.2005 76.9057 86.4786 76.901H82.1544C81.4341 76.9034 80.7203 76.7638 80.0538 76.4903C79.3874 76.2168 78.7813 75.8147 78.2703 75.3069C77.7592 74.7992 77.3532 74.1958 77.0753 73.5311C76.7975 72.8665 76.6533 72.1536 76.6509 71.4332V70.2003H71.88V72.9699C71.8848 74.1507 71.6554 75.3207 71.2052 76.4123C70.755 77.5039 70.0928 78.4955 69.257 79.3296C68.4212 80.1637 67.4284 80.8239 66.3359 81.2719C65.2434 81.72 64.0729 81.947 62.8922 81.9399V81.9399ZM21.9017 36.5896C21.6491 36.5848 21.3981 36.6302 21.1632 36.723C20.9283 36.8159 20.7141 36.9544 20.533 37.1305C20.3519 37.3066 20.2074 37.5169 20.1081 37.7491C20.0087 37.9814 19.9564 38.231 19.954 38.4836V68.8602C19.9564 69.0057 19.9873 69.1493 20.0452 69.2828C20.103 69.4163 20.1866 69.5371 20.2911 69.6383C20.3957 69.7396 20.5191 69.8192 20.6544 69.8727C20.7897 69.9262 20.9343 69.9525 21.0798 69.9501H42.1825C42.6564 69.9501 43.1109 70.1384 43.446 70.4735C43.7811 70.8086 43.9694 71.2631 43.9694 71.737V72.9342C43.9692 73.6473 44.1114 74.3532 44.3874 75.0107C44.6635 75.6681 45.068 76.2639 45.5772 76.7631C46.0863 77.2623 46.69 77.6549 47.3528 77.9179C48.0156 78.1809 48.7242 78.309 49.4371 78.2948H62.8922C64.3139 78.2948 65.6773 77.73 66.6826 76.7247C67.688 75.7194 68.2527 74.3559 68.2527 72.9342V68.4134C68.2527 67.9395 68.441 67.4851 68.7761 67.15C69.1112 66.8148 69.5657 66.6266 70.0396 66.6266H78.4199C78.8938 66.6266 79.3483 66.8148 79.6834 67.15C80.0185 67.4851 80.2068 67.9395 80.2068 68.4134V71.4332C80.2091 71.6858 80.2614 71.9355 80.3608 72.1677C80.4602 72.4 80.6046 72.6103 80.7857 72.7864C80.9668 72.9625 81.181 73.101 81.4159 73.1938C81.6509 73.2867 81.9019 73.332 82.1544 73.3273H86.425C86.6806 73.3369 86.9354 73.2951 87.1745 73.2044C87.4136 73.1137 87.6321 72.976 87.817 72.7994C88.0019 72.6228 88.1496 72.4109 88.2512 72.1763C88.3527 71.9416 88.4062 71.6889 88.4084 71.4332V38.6981C88.4061 38.4454 88.3538 38.1958 88.2544 37.9636C88.155 37.7313 88.0106 37.521 87.8295 37.3449C87.6484 37.1688 87.4342 37.0303 87.1993 36.9375C86.9644 36.8446 86.7133 36.7993 86.4608 36.804H82.1544C81.9019 36.7993 81.6509 36.8446 81.4159 36.9375C81.181 37.0303 80.9668 37.1688 80.7857 37.3449C80.6046 37.521 80.4602 37.7313 80.3608 37.9636C80.2614 38.1958 80.2091 38.4454 80.2068 38.6981V41.7536C80.2068 42.2275 80.0185 42.682 79.6834 43.0171C79.3483 43.3522 78.8938 43.5404 78.4199 43.5404H70.1468C69.6729 43.5404 69.2184 43.3522 68.8833 43.0171C68.5482 42.682 68.3599 42.2275 68.3599 41.7536V38.4658C68.3553 38.2147 68.3012 37.967 68.2008 37.7368C68.1004 37.5066 67.9556 37.2984 67.7748 37.1242C67.5939 36.95 67.3805 36.8131 67.1467 36.7213C66.9129 36.6296 66.6634 36.5848 66.4123 36.5896H56.6918C56.2179 36.5896 55.7634 36.4013 55.4283 36.0662C55.0932 35.7311 54.9049 35.2766 54.9049 34.8027V31.0682C54.9026 30.925 54.8721 30.7838 54.8152 30.6524C54.7582 30.5211 54.676 30.4022 54.5731 30.3026C54.4702 30.2031 54.3487 30.1248 54.2156 30.0722C54.0824 30.0196 53.9402 29.9937 53.7971 29.9961H36.0536C35.9113 29.9937 35.77 30.0197 35.6378 30.0725C35.5057 30.1253 35.3854 30.2039 35.2839 30.3037C35.1825 30.4035 35.1019 30.5225 35.0469 30.6537C34.9919 30.785 34.9636 30.9259 34.9636 31.0682V34.8027C34.9636 35.2766 34.7754 35.7311 34.4403 36.0662C34.1052 36.4013 33.6507 36.5896 33.1768 36.5896H21.9017Z" fill="#A166FF"/>
<path d="M11.5737 34.9099H8V71.7727H11.5737V34.9099Z" fill="#A166FF"/>
<path d="M18.1672 51.5634H9.78687V55.1371H18.1672V51.5634Z" fill="#A166FF"/>
<path d="M56.7097 18.0599H33.2483V21.6336H56.7097V18.0599Z" fill="#A166FF"/>
<path d="M46.7569 19.8467H43.1832V28.2271H46.7569V19.8467Z" fill="#A166FF"/>
</svg>
