<svg width="100" height="100" viewBox="0 0 100 100" fill="none" xmlns="http://www.w3.org/2000/svg">
<path d="M73.3333 20H21.9467C20.567 20.0725 19.2722 20.6882 18.3453 21.7126C17.4183 22.737 16.9347 24.0867 17 25.4667V58.5333C16.9347 59.9133 17.4183 61.263 18.3453 62.2874C19.2722 63.3118 20.567 63.9275 21.9467 64H50.3333V61.3333H21.9467C21.2847 61.2376 20.683 60.8966 20.2606 60.3779C19.8383 59.8593 19.6263 59.2009 19.6667 58.5333V36H43.6667V56C43.6667 56.3536 43.8071 56.6928 44.0572 56.9428C44.3072 57.1929 44.6464 57.3333 45 57.3333H55.6667V54.6667H46.9333V54.2667C46.9298 52.0411 47.6459 49.8741 48.9746 48.0887C50.3034 46.3034 52.1738 44.9955 54.3067 44.36C55.3359 44.8312 56.4547 45.0751 57.5867 45.0751C58.7187 45.0751 59.8374 44.8312 60.8667 44.36C63.3257 45.1022 65.4243 46.726 66.76 48.92L69.0267 47.5867C67.6539 45.3456 65.6372 43.5705 63.24 42.4933C64.3339 41.1947 64.9337 39.5513 64.9333 37.8533C64.9333 35.9084 64.1607 34.0432 62.7854 32.6679C61.4102 31.2926 59.5449 30.52 57.6 30.52C55.6551 30.52 53.7898 31.2926 52.4146 32.6679C51.0393 34.0432 50.2667 35.9084 50.2667 37.8533C50.3015 39.5237 50.914 41.1304 52 42.4C49.6924 43.4234 47.7359 45.1017 46.3733 47.2267V29.3333H69.04V47.6V48H71.7067V36H75.7067V49.3333H78.3733V25.4667C78.4055 24.7758 78.3002 24.0854 78.0637 23.4356C77.8271 22.7857 77.4638 22.1892 76.9951 21.6807C76.5263 21.1722 75.9612 20.7619 75.3327 20.4734C74.7041 20.1848 74.0245 20.024 73.3333 20ZM57.6 33.16C58.2093 33.1565 58.8134 33.273 59.3777 33.503C59.942 33.7329 60.4555 34.0718 60.8888 34.5001C61.3222 34.9285 61.6669 35.4381 61.9033 35.9997C62.1397 36.5613 62.2632 37.164 62.2667 37.7733C62.2611 38.5954 62.034 39.4008 61.6093 40.1047C61.1846 40.8086 60.578 41.3851 59.8533 41.7733C59.1589 42.1479 58.3823 42.3441 57.5933 42.3441C56.8043 42.3441 56.0277 42.1479 55.3333 41.7733C54.6121 41.3822 54.009 40.8048 53.5869 40.1012C53.1647 39.3977 52.939 38.5938 52.9333 37.7733C52.9368 37.164 53.0603 36.5613 53.2967 35.9997C53.5331 35.4381 53.8778 34.9285 54.3112 34.5001C54.7445 34.0718 55.258 33.7329 55.8223 33.503C56.3866 33.273 56.9907 33.1565 57.6 33.16ZM71.6667 33.3333V28C71.6667 27.6464 71.5262 27.3072 71.2761 27.0572C71.0261 26.8071 70.687 26.6667 70.3333 26.6667H45C44.6464 26.6667 44.3072 26.8071 44.0572 27.0572C43.8071 27.3072 43.6667 27.6464 43.6667 28V33.3333H19.6667V25.4667C19.6263 24.7991 19.8383 24.1407 20.2606 23.6221C20.683 23.1034 21.2847 22.7624 21.9467 22.6667H73.3333C74.0001 22.7563 74.6084 23.0947 75.0362 23.614C75.464 24.1333 75.6796 24.795 75.64 25.4667V33.3333H71.6667Z" fill="white"/>
<path d="M37.0001 42.6H22.3601V45.2667H37.0001V42.6Z" fill="white"/>
<path d="M31.6668 49.2667H22.3601V51.9334H31.6668V49.2667Z" fill="white"/>
<path d="M38.3334 49.2667H34.3601V51.9334H38.3334V49.2667Z" fill="white"/>
<path d="M69.5201 80.0667C67.6759 80.0755 65.8494 79.7058 64.1537 78.9804C62.4581 78.255 60.9293 77.1894 59.662 75.8494C58.3947 74.5095 57.4159 72.9237 56.786 71.1903C56.1562 69.4569 55.8887 67.6127 56.0003 65.7717C56.1118 63.9308 56.5999 62.1323 57.4343 60.4876C58.2688 58.8429 59.4319 57.3869 60.8517 56.2098C62.2715 55.0326 63.9177 54.1593 65.6885 53.6439C67.4593 53.1285 69.3171 52.9819 71.1468 53.2133C73.5652 53.512 75.8576 54.46 77.7805 55.9567C79.7035 57.4534 81.1852 59.4429 82.0685 61.7139C82.9518 63.985 83.2035 66.4528 82.7971 68.8554C82.3907 71.2581 81.3412 73.5058 79.7601 75.36C78.5116 76.7966 76.9825 77.9627 75.2668 78.7867C73.4678 79.6282 71.5062 80.0651 69.5201 80.0667ZM69.5201 55.7733C67.8076 55.7726 66.12 56.1842 64.6001 56.9733C62.0902 58.2759 60.1903 60.5098 59.3077 63.1964C58.4252 65.883 58.6301 68.8084 59.8787 71.3457C61.1273 73.8829 63.3201 75.8301 65.9872 76.7699C68.6543 77.7097 71.5834 77.5674 74.1468 76.3733C75.5314 75.7167 76.7624 74.7764 77.7601 73.6133C79.0308 72.1264 79.8745 70.3227 80.2012 68.3942C80.5278 66.4658 80.3253 64.4848 79.6152 62.6624C78.9051 60.8399 77.714 59.2441 76.1687 58.0451C74.6234 56.846 72.7819 56.0885 70.8401 55.8533C70.3933 55.799 69.9436 55.7723 69.4935 55.7733H69.5201Z" fill="white"/>
<path d="M67.4001 72.2667C67.2246 72.2677 67.0506 72.234 66.8882 72.1677C66.7257 72.1013 66.578 72.0036 66.4534 71.88L62.1467 67.5733L64.0001 65.6933L67.3601 69.0533L74.9601 61.44L76.8534 63.3333L68.2934 71.88C68.055 72.1169 67.7359 72.255 67.4001 72.2667Z" fill="white"/>
</svg>
