<svg width="100" height="100" viewBox="0 0 100 100" fill="none" xmlns="http://www.w3.org/2000/svg">
<path d="M50.0145 92C49.0514 92 48.0883 91.9656 47.1251 91.8968C42.1129 91.5388 37.2214 90.1901 32.734 87.9286C28.2466 85.6672 24.2524 82.5381 20.9826 78.7224C15.9253 72.8084 12.7819 65.4988 11.9681 57.7599C11.1543 50.0211 12.7084 42.2175 16.4249 35.3809L19.4347 37.1008C15.6242 44.1225 14.3435 52.2407 15.8074 60.0945C17.2713 67.9482 21.3908 75.0599 27.4751 80.2373C33.5595 85.4146 41.2388 88.3429 49.2256 88.531C57.2124 88.7191 65.0211 86.1557 71.3425 81.2706C77.6638 76.3854 82.1136 69.4756 83.9456 61.6994C85.7777 53.9233 84.8807 45.7538 81.405 38.5604C77.9293 31.3671 72.0863 25.5874 64.8555 22.1902C57.6248 18.7931 49.4459 17.9851 41.6902 19.9017L40.8819 16.4619C46.1357 15.1736 51.603 15.0142 56.923 15.9944C62.2429 16.9746 67.2944 19.072 71.7441 22.1482C76.1937 25.2244 79.9403 29.2095 82.7364 33.8402C85.5326 38.471 87.3147 43.6422 87.9652 49.0124C88.6156 54.3827 88.1196 59.8298 86.5099 64.9942C84.9002 70.1586 82.2133 74.9229 78.6268 78.9725C75.0402 83.0221 70.6355 86.2649 65.7034 88.4868C60.7713 90.7087 55.424 91.8593 50.0145 91.8624V92Z" fill="white"/>
<path d="M31.302 62.8993C30.9002 62.9001 30.5107 62.7601 30.2013 62.5037L23.7173 57.1376C23.4457 56.9126 23.2498 56.6095 23.1563 56.2695C23.0627 55.9294 23.076 55.5688 23.1942 55.2365C23.3125 54.9042 23.5301 54.6163 23.8174 54.4119C24.1048 54.2074 24.4481 54.0962 24.8008 54.0934H27.3634V51.4963H30.8033V55.7789C30.8166 56.1672 30.698 56.5485 30.4669 56.8608C30.2358 57.1732 29.9057 57.398 29.5305 57.4988L31.2504 58.9435L32.9703 57.516C32.5823 57.4286 32.2366 57.2095 31.992 56.8959C31.7474 56.5823 31.6191 56.1937 31.6288 55.7961V51.4963H35.0686V54.059H37.6313C37.9847 54.0591 38.3296 54.1682 38.6188 54.3713C38.9081 54.5744 39.1278 54.8617 39.248 55.1941C39.3688 55.5268 39.3841 55.8886 39.2918 56.2302C39.1995 56.5719 39.004 56.8768 38.732 57.1032L32.3684 62.4521C32.0752 62.7198 31.6984 62.8778 31.302 62.8993Z" fill="white"/>
<path d="M31.302 50.6364C29.9779 50.6265 28.6667 50.3759 27.4322 49.8968C27.1026 49.7777 26.8172 49.5606 26.6143 49.2747C26.4114 48.9889 26.3008 48.6478 26.2971 48.2973V45.7003L13.7246 25.9902L16.6141 24.1327L29.4617 44.1868C29.6405 44.4636 29.7361 44.786 29.7369 45.1155V47.0074C30.721 47.2395 31.7455 47.2395 32.7295 47.0074V45.1155C32.7304 44.786 32.8259 44.4636 33.0047 44.1868L45.8524 24.0811L48.759 25.9214L36.1693 45.7003V48.3833C36.1663 48.7248 36.0615 49.0577 35.8686 49.3395C35.6756 49.6213 35.4031 49.8393 35.0858 49.9656C33.8818 50.4389 32.5954 50.6669 31.302 50.6364V50.6364Z" fill="white"/>
<path d="M31.2332 29.6536C28.8426 29.6536 16.7688 29.516 14.1718 26.9018C14.0557 26.7912 13.9571 26.6636 13.8794 26.5234L13.673 26.145C13.5688 25.9706 13.4988 25.778 13.4666 25.5774C13.4666 25.4915 13.4666 25.3367 13.4666 25.2507C13.4666 22.4472 19.1079 20.9681 30.2529 20.8477V24.2875C26.4987 24.2563 22.75 24.5788 19.0563 25.2507C23.0694 25.9603 27.1413 26.2829 31.216 26.2138C35.2903 26.2697 39.361 25.9473 43.3757 25.2507C42.6362 25.0959 41.6558 24.9411 40.4863 24.7863L40.8991 21.3465C46.6607 22.0516 48.9998 23.1696 48.9998 25.2163C48.9914 25.6193 48.8833 26.014 48.6852 26.3651C48.4872 26.7162 48.2053 27.0129 47.8647 27.2286C45.4052 29.0172 37.3733 29.6536 31.2332 29.6536Z" fill="white"/>
<path d="M37.6657 25.371H33.3831C32.9269 25.371 32.4895 25.1898 32.1669 24.8673C31.8444 24.5447 31.6632 24.1073 31.6632 23.6511V19.3514C31.6632 18.8952 31.8444 18.4578 32.1669 18.1352C32.4895 17.8127 32.9269 17.6315 33.3831 17.6315H37.6657C38.1218 17.6315 38.5593 17.8127 38.8818 18.1352C39.2043 18.4578 39.3856 18.8952 39.3856 19.3514V23.6511C39.3856 24.1073 39.2043 24.5447 38.8818 24.8673C38.5593 25.1898 38.1218 25.371 37.6657 25.371ZM35.103 21.9312H35.9457V21.0713H35.103V21.9312Z" fill="white"/>
<path d="M35.5158 15.7224H31.2332C30.7771 15.7224 30.3396 15.5412 30.0171 15.2186C29.6945 14.8961 29.5133 14.4586 29.5133 14.0025V9.7199C29.5133 9.26376 29.6945 8.82629 30.0171 8.50375C30.3396 8.1812 30.7771 8 31.2332 8H35.5158C35.9719 8 36.4094 8.1812 36.7319 8.50375C37.0545 8.82629 37.2357 9.26376 37.2357 9.7199V14.0025C37.2357 14.4586 37.0545 14.8961 36.7319 15.2186C36.4094 15.5412 35.9719 15.7224 35.5158 15.7224ZM32.9531 12.2826H33.7959V11.4398H32.9531V12.2826Z" fill="white"/>
<path d="M26.9507 21.0712H22.6681C22.212 21.0712 21.7745 20.89 21.452 20.5675C21.1294 20.2449 20.9482 19.8075 20.9482 19.3513V15.0688C20.9482 14.6126 21.1294 14.1752 21.452 13.8526C21.7745 13.5301 22.212 13.3489 22.6681 13.3489H26.9507C27.4068 13.3489 27.8443 13.5301 28.1668 13.8526C28.4894 14.1752 28.6706 14.6126 28.6706 15.0688V19.3513C28.6706 19.8075 28.4894 20.2449 28.1668 20.5675C27.8443 20.89 27.4068 21.0712 26.9507 21.0712ZM24.388 17.6314H25.2308V16.7887H24.388V17.6314Z" fill="white"/>
<path d="M65.5452 78.5503C64.6011 78.5478 63.668 78.3476 62.806 77.9625C61.9439 77.5774 61.1722 77.016 60.5403 76.3144C59.9096 77.0172 59.138 77.5793 58.2757 77.9641C57.4134 78.3489 56.4797 78.5477 55.5354 78.5477C54.5911 78.5477 53.6575 78.3489 52.7951 77.9641C51.9328 77.5793 51.1612 77.0172 50.5305 76.3144C49.8998 77.0172 49.1282 77.5793 48.2659 77.9641C47.4036 78.3489 46.4699 78.5477 45.5256 78.5477C44.5813 78.5477 43.6476 78.3489 42.7853 77.9641C41.923 77.5793 41.1514 77.0172 40.5207 76.3144C39.8902 77.0177 39.1187 77.5802 38.2564 77.9655C37.394 78.3507 36.4602 78.55 35.5158 78.5503V75.1105C36.384 75.106 37.2152 74.7579 37.8275 74.1423C38.4399 73.5267 38.7836 72.6938 38.7836 71.8255H42.2234C42.2234 72.6967 42.5695 73.5323 43.1855 74.1484C43.8016 74.7644 44.6372 75.1105 45.5084 75.1105C46.3796 75.1105 47.2152 74.7644 47.8312 74.1484C48.4473 73.5323 48.7934 72.6967 48.7934 71.8255H52.2332C52.2332 72.6967 52.5793 73.5323 53.1954 74.1484C53.8114 74.7644 54.647 75.1105 55.5182 75.1105C56.3895 75.1105 57.225 74.7644 57.8411 74.1484C58.4571 73.5323 58.8032 72.6967 58.8032 71.8255H62.243C62.2476 72.6953 62.5951 73.5283 63.2102 74.1434C63.8253 74.7584 64.6582 75.106 65.528 75.1105L65.5452 78.5503Z" fill="white"/>
<path d="M74.076 41.8305C73.1315 41.8302 72.1977 41.6309 71.3354 41.2457C70.473 40.8605 69.7015 40.2979 69.0711 39.5947C68.4404 40.2974 67.6688 40.8595 66.8064 41.2443C65.9441 41.6291 65.0104 41.8279 64.0662 41.8279C63.1219 41.8279 62.1882 41.6291 61.3259 41.2443C60.4635 40.8595 59.6919 40.2974 59.0612 39.5947C58.4306 40.2974 57.6589 40.8595 56.7966 41.2443C55.9343 41.6291 55.0006 41.8279 54.0563 41.8279C53.112 41.8279 52.1784 41.6291 51.316 41.2443C50.4537 40.8595 49.6821 40.2974 49.0514 39.5947C48.4237 40.3013 47.6528 40.8662 46.7898 41.2517C45.9268 41.6373 44.9917 41.8346 44.0465 41.8305V38.3907C44.4822 38.3976 44.9149 38.3177 45.3195 38.1556C45.724 37.9936 46.0922 37.7527 46.4028 37.447C46.7133 37.1413 46.9599 36.7768 47.1282 36.3749C47.2965 35.9729 47.3832 35.5415 47.3831 35.1057H50.8229C50.8229 35.977 51.169 36.8125 51.7851 37.4286C52.4011 38.0446 53.2367 38.3907 54.1079 38.3907C54.9792 38.3907 55.8147 38.0446 56.4308 37.4286C57.0468 36.8125 57.3929 35.977 57.3929 35.1057H60.8327C60.8327 35.977 61.1788 36.8125 61.7949 37.4286C62.411 38.0446 63.2465 38.3907 64.1177 38.3907C64.989 38.3907 65.8245 38.0446 66.4406 37.4286C67.0567 36.8125 67.4028 35.977 67.4028 35.1057H70.8426C70.8471 35.9756 71.1946 36.8085 71.8097 37.4236C72.4248 38.0387 73.2577 38.3862 74.1276 38.3907L74.076 41.8305Z" fill="white"/>
<path d="M77.0514 59.1154C76.1069 59.1151 75.1731 58.9158 74.3108 58.5306C73.4485 58.1454 72.6769 57.5828 72.0465 56.8796C71.4158 57.5823 70.6442 58.1444 69.7819 58.5292C68.9195 58.914 67.9859 59.1128 67.0416 59.1128C66.0973 59.1128 65.1636 58.914 64.3013 58.5292C63.439 58.1444 62.6673 57.5823 62.0367 56.8796C61.4075 57.5819 60.6374 58.1437 59.7765 58.5284C58.9156 58.913 57.9833 59.1118 57.0403 59.1118C56.0974 59.1118 55.1651 58.913 54.3042 58.5284C53.4433 58.1437 52.6732 57.5819 52.044 56.8796C51.4136 57.5828 50.6421 58.1454 49.7797 58.5306C48.9174 58.9158 47.9836 59.1151 47.0391 59.1154V55.6756C47.909 55.6711 48.7419 55.3236 49.357 54.7085C49.9721 54.0934 50.3196 53.2605 50.3241 52.3906H53.7639C53.7313 52.8409 53.7918 53.293 53.9417 53.7188C54.0915 54.1446 54.3275 54.5349 54.635 54.8655C54.9424 55.196 55.3147 55.4596 55.7285 55.6399C56.1424 55.8201 56.5889 55.9132 57.0403 55.9132C57.4918 55.9132 57.9383 55.8201 58.3522 55.6399C58.766 55.4596 59.1383 55.196 59.4457 54.8655C59.7532 54.5349 59.9892 54.1446 60.139 53.7188C60.2889 53.293 60.3494 52.8409 60.3168 52.3906H63.7566C63.7566 53.2619 64.1027 54.0974 64.7187 54.7135C65.3348 55.3295 66.1703 55.6756 67.0416 55.6756C67.9128 55.6756 68.7484 55.3295 69.3644 54.7135C69.9805 54.0974 70.3266 53.2619 70.3266 52.3906H73.7664C73.7664 53.2619 74.1125 54.0974 74.7286 54.7135C75.3446 55.3295 76.1802 55.6756 77.0514 55.6756C77.9226 55.6756 78.7582 55.3295 79.3743 54.7135C79.9903 54.0974 80.3364 53.2619 80.3364 52.3906H83.7762C83.7762 54.1742 83.0677 55.8846 81.8066 57.1458C80.5454 58.4069 78.8349 59.1154 77.0514 59.1154V59.1154Z" fill="white"/>
</svg>
