<svg width="100" height="100" viewBox="0 0 100 100" fill="none" xmlns="http://www.w3.org/2000/svg">
<path d="M62.8921 81.9399H49.4371C47.1513 81.9458 44.9485 81.0839 43.2736 79.5283C41.5986 77.9728 40.5765 75.8396 40.4135 73.5596H21.0798C20.465 73.5619 19.8557 73.4432 19.2868 73.2101C18.718 72.977 18.2005 72.6341 17.7642 72.201C17.3278 71.768 16.981 71.2532 16.7435 70.6861C16.5061 70.119 16.3827 69.5107 16.3803 68.8959V38.5194C16.3827 37.7975 16.5275 37.0832 16.8064 36.4173C17.0854 35.7515 17.493 35.1473 18.006 34.6393C18.5189 34.1314 19.1271 33.7296 19.7956 33.4572C20.4641 33.1847 21.1798 33.0469 21.9017 33.0516H31.3899V31.0682C31.3946 29.8344 31.8881 28.6528 32.7622 27.782C33.6363 26.9113 34.8198 26.4224 36.0536 26.4224H53.7971C54.4095 26.42 55.0164 26.5383 55.5831 26.7706C56.1499 27.0028 56.6653 27.3443 57.1 27.7757C57.5348 28.2071 57.8802 28.7199 58.1168 29.2849C58.3533 29.8498 58.4763 30.4558 58.4786 31.0682V32.998H66.4122C67.8688 32.9933 69.2678 33.5661 70.3028 34.591C71.3377 35.6159 71.9242 37.0093 71.9336 38.4658V39.9667H76.6152V38.6981C76.6199 37.9753 76.7668 37.2606 77.0478 36.5947C77.3287 35.9288 77.738 35.3247 78.2524 34.8169C78.7667 34.3092 79.3761 33.9078 80.0456 33.6355C80.7151 33.3633 81.4317 33.2256 82.1544 33.2303H86.4786C87.2005 33.2256 87.9162 33.3634 88.5847 33.6359C89.2532 33.9083 89.8614 34.3101 90.3744 34.818C90.8873 35.326 91.2949 35.9302 91.5739 36.596C91.8529 37.2618 91.9977 37.9762 92 38.6981V71.4332C91.9977 72.1551 91.8529 72.8695 91.5739 73.5353C91.2949 74.2011 90.8873 74.8053 90.3744 75.3133C89.8614 75.8213 89.2532 76.223 88.5847 76.4954C87.9162 76.7679 87.2005 76.9057 86.4786 76.901H82.1544C80.7057 76.8963 79.3177 76.3187 78.2933 75.2943C77.2689 74.27 76.6914 72.8819 76.6867 71.4332V70.2003H71.88V72.9699C71.8848 74.1507 71.6554 75.3208 71.2052 76.4124C70.7549 77.504 70.0928 78.4955 69.257 79.3296C68.4212 80.1637 67.4284 80.8239 66.3359 81.2719C65.2434 81.72 64.0729 81.947 62.8921 81.9399V81.9399ZM21.9017 36.5717C21.6491 36.567 21.3981 36.6124 21.1632 36.7052C20.9283 36.7981 20.7141 36.9365 20.533 37.1127C20.3519 37.2888 20.2074 37.499 20.1081 37.7313C20.0087 37.9635 19.9564 38.2132 19.954 38.4658V68.8423C19.9564 68.9878 19.9873 69.1314 20.0452 69.2649C20.103 69.3984 20.1866 69.5193 20.2911 69.6205C20.3957 69.7217 20.5191 69.8013 20.6544 69.8548C20.7897 69.9083 20.9343 69.9347 21.0798 69.9323H42.1825C42.6564 69.9323 43.1109 70.1205 43.446 70.4556C43.7811 70.7907 43.9694 71.2452 43.9694 71.7191V72.9163C43.9692 73.6294 44.1113 74.3353 44.3874 74.9928C44.6635 75.6503 45.068 76.246 45.5771 76.7452C46.0863 77.2444 46.69 77.637 47.3528 77.9C48.0156 78.163 48.7242 78.2912 49.4371 78.2769H62.8921C64.3139 78.2769 65.6773 77.7121 66.6826 76.7068C67.6879 75.7015 68.2527 74.338 68.2527 72.9163V68.4135C68.2527 67.9396 68.441 67.4851 68.7761 67.15C69.1112 66.8149 69.5657 66.6266 70.0396 66.6266H78.4199C78.8938 66.6266 79.3483 66.8149 79.6834 67.15C80.0185 67.4851 80.2068 67.9396 80.2068 68.4135V71.4332C80.2091 71.6859 80.2614 71.9355 80.3608 72.1678C80.4602 72.4 80.6046 72.6103 80.7857 72.7864C80.9668 72.9625 81.181 73.101 81.4159 73.1938C81.6508 73.2867 81.9019 73.332 82.1544 73.3273H86.4071C86.6641 73.3393 86.9209 73.2994 87.1621 73.2098C87.4033 73.1203 87.6239 72.9829 87.8108 72.8061C87.9976 72.6292 88.1469 72.4165 88.2496 72.1806C88.3523 71.9447 88.4063 71.6905 88.4084 71.4332V38.6981C88.4061 38.4455 88.3537 38.1958 88.2544 37.9636C88.155 37.7313 88.0106 37.5211 87.8295 37.3449C87.6484 37.1688 87.4342 37.0303 87.1993 36.9375C86.9643 36.8447 86.7133 36.7993 86.4607 36.804H82.1544C81.9019 36.7993 81.6508 36.8447 81.4159 36.9375C81.181 37.0303 80.9668 37.1688 80.7857 37.3449C80.6046 37.5211 80.4602 37.7313 80.3608 37.9636C80.2614 38.1958 80.2091 38.4455 80.2068 38.6981V41.7536C80.2068 42.2275 80.0185 42.682 79.6834 43.0171C79.3483 43.3522 78.8938 43.5405 78.4199 43.5405H70.1468C69.6729 43.5405 69.2184 43.3522 68.8833 43.0171C68.5482 42.682 68.3599 42.2275 68.3599 41.7536V38.4658C68.3576 38.2132 68.3052 37.9635 68.2059 37.7313C68.1065 37.499 67.9621 37.2888 67.781 37.1127C67.5999 36.9365 67.3857 36.7981 67.1508 36.7052C66.9158 36.6124 66.6648 36.567 66.4122 36.5717H56.6918C56.2179 36.5717 55.7634 36.3835 55.4283 36.0484C55.0932 35.7133 54.9049 35.2588 54.9049 34.7849V31.0682C54.9026 30.9251 54.8721 30.7838 54.8151 30.6524C54.7582 30.5211 54.6759 30.4022 54.5731 30.3027C54.4702 30.2031 54.3487 30.1248 54.2156 30.0722C54.0824 30.0196 53.9402 29.9937 53.7971 29.9961H36.0536C35.9113 29.9937 35.77 30.0197 35.6378 30.0725C35.5057 30.1253 35.3854 30.2039 35.2839 30.3037C35.1825 30.4035 35.1019 30.5225 35.0469 30.6538C34.9919 30.785 34.9636 30.9259 34.9636 31.0682V34.7849C34.9636 35.2588 34.7754 35.7133 34.4403 36.0484C34.1052 36.3835 33.6507 36.5717 33.1768 36.5717H21.9017Z" fill="#A166FF"/>
<path d="M11.5737 34.9099H8V71.7727H11.5737V34.9099Z" fill="#A166FF"/>
<path d="M18.1672 51.5634H9.78685V55.1371H18.1672V51.5634Z" fill="#A166FF"/>
<path d="M56.7097 18.0599H33.2483V21.6336H56.7097V18.0599Z" fill="#A166FF"/>
<path d="M46.7569 19.8468H43.1832V28.2271H46.7569V19.8468Z" fill="#A166FF"/>
</svg>
