<svg width="100" height="100" viewBox="0 0 100 100" fill="none" xmlns="http://www.w3.org/2000/svg">
<path d="M50 92C36.1568 92 21.44 87.9848 21.44 80.5424V19.4576H24.8V80.5424C24.8 83.9024 34.3928 88.64 50 88.64C65.6072 88.64 75.2 83.936 75.2 80.5424V19.4576H78.56V80.5424C78.56 87.9848 63.8432 92 50 92Z" fill="white"/>
<path d="M50 92C36.1568 92 21.44 87.9848 21.44 80.5424V19.4576H24.8V80.5424C24.8 83.9024 34.3928 88.64 50 88.64C65.6072 88.64 75.2 83.936 75.2 80.5424V19.4576H78.56V80.5424C78.56 87.9848 63.8432 92 50 92Z" fill="white"/>
<path d="M50 30.8984C36.1568 30.8984 21.44 26.8832 21.44 19.4576C21.44 12.032 36.1568 8 50 8C63.8432 8 78.56 12.0152 78.56 19.4576C78.56 26.9 63.8432 30.8984 50 30.8984ZM50 11.36C34.3928 11.36 24.8 16.064 24.8 19.4576C24.8 22.8512 34.3928 27.5384 50 27.5384C65.6072 27.5384 75.2 22.8344 75.2 19.4576C75.2 16.0808 65.6072 11.36 50 11.36V11.36Z" fill="white"/>
<path d="M45.238 53.2886L44.493 56.5649L54.6825 58.8818L55.4275 55.6054L45.238 53.2886Z" fill="white"/>
<path d="M63.3105 43.252L59.4246 53.0968L62.5499 54.3304L66.4358 44.4856L63.3105 43.252Z" fill="white"/>
<path d="M37.5805 57.2325L34.1517 65.2675L37.242 66.5862L40.6709 58.5513L37.5805 57.2325Z" fill="white"/>
<path d="M34.04 75.6536C32.877 75.6536 31.7402 75.3087 30.7732 74.6626C29.8063 74.0165 29.0526 73.0982 28.6076 72.0237C28.1625 70.9493 28.0461 69.767 28.273 68.6264C28.4999 67.4858 29.0599 66.4381 29.8822 65.6158C30.7045 64.7934 31.7523 64.2334 32.8929 64.0065C34.0335 63.7797 35.2157 63.8961 36.2902 64.3411C37.3646 64.7862 38.2829 65.5398 38.929 66.5068C39.5751 67.4738 39.92 68.6106 39.92 69.7736C39.92 71.333 39.3005 72.8286 38.1978 73.9314C37.0951 75.0341 35.5995 75.6536 34.04 75.6536V75.6536ZM34.04 67.2536C33.5416 67.2536 33.0544 67.4014 32.64 67.6783C32.2255 67.9552 31.9026 68.3487 31.7118 68.8092C31.5211 69.2697 31.4712 69.7764 31.5684 70.2652C31.6657 70.754 31.9057 71.203 32.2581 71.5555C32.6105 71.9079 33.0595 72.1479 33.5484 72.2451C34.0372 72.3424 34.5439 72.2925 35.0044 72.1017C35.4648 71.911 35.8584 71.588 36.1353 71.1736C36.4122 70.7592 36.56 70.272 36.56 69.7736C36.56 69.1052 36.2945 68.4642 35.8219 67.9917C35.3493 67.5191 34.7083 67.2536 34.04 67.2536V67.2536Z" fill="white"/>
<path d="M40.76 59.8952C39.5971 59.8952 38.4602 59.5503 37.4933 58.9042C36.5263 58.2581 35.7726 57.3398 35.3276 56.2654C34.8826 55.1909 34.7661 54.0087 34.993 52.8681C35.2199 51.7275 35.7799 50.6797 36.6022 49.8574C37.4246 49.0351 38.4723 48.4751 39.6129 48.2482C40.7535 48.0213 41.9358 48.1377 43.0102 48.5828C44.0846 49.0278 45.003 49.7815 45.6491 50.7484C46.2952 51.7154 46.64 52.8522 46.64 54.0152C46.64 55.5747 46.0205 57.0703 44.9178 58.173C43.8151 59.2757 42.3195 59.8952 40.76 59.8952ZM40.76 51.4952C40.2616 51.4952 39.7744 51.643 39.36 51.9199C38.9456 52.1968 38.6226 52.5904 38.4318 53.0508C38.2411 53.5113 38.1912 54.018 38.2884 54.5068C38.3857 54.9957 38.6257 55.4447 38.9781 55.7971C39.3305 56.1495 39.7796 56.3895 40.2684 56.4868C40.7572 56.584 41.2639 56.5341 41.7244 56.3434C42.1848 56.1526 42.5784 55.8296 42.8553 55.4152C43.1322 55.0008 43.28 54.5136 43.28 54.0152C43.28 53.3468 43.0145 52.7059 42.5419 52.2333C42.0693 51.7607 41.4284 51.4952 40.76 51.4952V51.4952Z" fill="white"/>
<path d="M59.24 63.44C58.077 63.44 56.9402 63.0951 55.9732 62.449C55.0063 61.8029 54.2526 60.8846 53.8076 59.8102C53.3625 58.7357 53.2461 57.5535 53.473 56.4129C53.6999 55.2723 54.2599 54.2245 55.0822 53.4022C55.9045 52.5799 56.9523 52.0199 58.0929 51.793C59.2335 51.5661 60.4158 51.6825 61.4902 52.1276C62.5646 52.5726 63.4829 53.3263 64.129 54.2932C64.7752 55.2602 65.12 56.397 65.12 57.56C65.12 59.1195 64.5005 60.6151 63.3978 61.7178C62.2951 62.8205 60.7995 63.44 59.24 63.44V63.44ZM59.24 55.04C58.7416 55.04 58.2544 55.1878 57.84 55.4647C57.4256 55.7416 57.1026 56.1352 56.9118 56.5956C56.7211 57.0561 56.6712 57.5628 56.7684 58.0516C56.8657 58.5405 57.1057 58.9895 57.4581 59.3419C57.8105 59.6943 58.2595 59.9343 58.7484 60.0316C59.2372 60.1288 59.7439 60.0789 60.2044 59.8882C60.6648 59.6974 61.0584 59.3744 61.3353 58.96C61.6122 58.5456 61.76 58.0584 61.76 57.56C61.76 56.8916 61.4945 56.2507 61.0219 55.7781C60.5493 55.3055 59.9083 55.04 59.24 55.04Z" fill="white"/>
<path d="M65.96 45.8C64.7971 45.8 63.6602 45.4552 62.6933 44.8091C61.7263 44.163 60.9726 43.2447 60.5276 42.1702C60.0826 41.0958 59.9661 39.9135 60.193 38.7729C60.4199 37.6323 60.9799 36.5846 61.8022 35.7623C62.6246 34.9399 63.6723 34.3799 64.8129 34.153C65.9535 33.9261 67.1358 34.0426 68.2102 34.4876C69.2846 34.9327 70.203 35.6863 70.8491 36.6533C71.4952 37.6203 71.84 38.7571 71.84 39.92V40.004C71.8136 41.5475 71.183 43.0191 70.0836 44.1028C68.9842 45.1865 67.5037 45.7959 65.96 45.8ZM65.96 37.4C65.4652 37.4003 64.9815 37.5462 64.5691 37.8196C64.1567 38.093 63.8339 38.4817 63.6409 38.9373C63.448 39.3929 63.3934 39.8952 63.484 40.3816C63.5747 40.868 63.8065 41.317 64.1505 41.6725C64.4946 42.0281 64.9357 42.2744 65.4189 42.381C65.9021 42.4875 66.4059 42.4494 66.8676 42.2715C67.3293 42.0936 67.7284 41.7837 68.0151 41.3805C68.3018 40.9772 68.4635 40.4985 68.48 40.004C68.4913 39.6661 68.4344 39.3294 68.3129 39.0139C68.1913 38.6984 68.0074 38.4106 67.7723 38.1676C67.5372 37.9246 67.2555 37.7314 66.9442 37.5996C66.6328 37.4677 66.2981 37.3999 65.96 37.4Z" fill="white"/>
</svg>
