<svg width="100" height="100" viewBox="0 0 100 100" fill="none" xmlns="http://www.w3.org/2000/svg">
<path d="M11.3266 10.1168C11.3241 9.40777 11.3802 8.69975 11.4946 8H8.13462C8.03965 8.70152 7.99474 9.40891 8.00022 10.1168C8.00022 29.672 38.3914 44.9768 77.1826 44.96H92.0002V41.6H77.1826C40.8778 41.6 11.3266 27.4712 11.3266 10.1168Z" fill="white"/>
<path d="M8.00012 33.788V38.6768C15.3417 45.0104 28.9329 48.3032 42.2553 49.9832C28.9329 51.6632 15.3753 55.0232 8.01692 61.424V65.96C12.6033 60.0464 24.5313 55.6952 41.6169 53.444H41.9361C51.7294 52.2546 61.5887 51.6935 71.4537 51.764H92.0001V48.404H71.4369C38.5593 48.2696 14.9217 42.86 8.00012 33.788Z" fill="white"/>
<path d="M85.0619 34.88C53.8811 34.88 30.3779 24.5816 30.3779 11.0744C30.3779 10.4696 30.3779 8.8064 30.3779 8H26.8835C26.8835 9.1424 26.8835 11.0408 26.8835 11.0744C26.8835 26.816 51.3611 38.24 85.0787 38.24H92.0003V34.88H85.0619Z" fill="white"/>
<path d="M8.00025 89.9336C7.99427 90.6248 8.03919 91.3155 8.13465 92H11.4947C11.3936 91.3159 11.343 90.6252 11.3435 89.9336C11.3435 78.8288 23.4395 69.0512 41.5835 63.44V59.912C21.3227 65.96 8.00025 76.9976 8.00025 89.9336Z" fill="white"/>
<path d="M26.9339 88.7576C26.9339 88.7576 26.9339 90.8912 26.9339 92H30.2939C30.2939 91.3112 30.2939 89.4128 30.2939 88.7576C30.2939 83.096 34.4603 78.0056 41.6003 74.024V70.2608C32.3603 74.9816 26.9339 81.3992 26.9339 88.7576Z" fill="white"/>
<path d="M85.2467 55.04H51.6467C49.8644 55.04 48.1552 55.748 46.8949 57.0083C45.6347 58.2685 44.9267 59.9778 44.9267 61.76V85.28C44.9267 87.0623 45.6347 88.7715 46.8949 90.0318C48.1552 91.292 49.8644 92 51.6467 92H85.2467C87.0289 92 88.7382 91.292 89.9984 90.0318C91.2587 88.7715 91.9667 87.0623 91.9667 85.28V61.76C91.9667 59.9778 91.2587 58.2685 89.9984 57.0083C88.7382 55.748 87.0289 55.04 85.2467 55.04ZM88.6067 85.28C88.6067 86.1711 88.2527 87.0258 87.6226 87.6559C86.9924 88.286 86.1378 88.64 85.2467 88.64H51.6467C50.7555 88.64 49.9009 88.286 49.2708 87.6559C48.6407 87.0258 48.2867 86.1711 48.2867 85.28V61.76C48.2867 60.8689 48.6407 60.0142 49.2708 59.3841C49.9009 58.754 50.7555 58.4 51.6467 58.4H85.2467C86.1378 58.4 86.9924 58.754 87.6226 59.3841C88.2527 60.0142 88.6067 60.8689 88.6067 61.76V85.28Z" fill="white"/>
<path d="M79.2827 71.9744L60.8027 63.5744C60.5371 63.4444 60.2419 63.3869 59.9469 63.4075C59.6519 63.4282 59.3676 63.5263 59.1227 63.692C58.8861 63.8438 58.6914 64.0525 58.5564 64.2991C58.4213 64.5456 58.3504 64.8221 58.3499 65.1032V81.9032C58.3504 82.1843 58.4213 82.4608 58.5564 82.7074C58.6914 82.9539 58.8861 83.1626 59.1227 83.3144C59.3931 83.4891 59.708 83.5824 60.0299 83.5832C60.2729 83.5815 60.5131 83.5301 60.7355 83.432L79.2155 75.032C79.5102 74.8995 79.7605 74.6848 79.9363 74.4137C80.1121 74.1425 80.206 73.8264 80.2067 73.5032C80.212 73.1873 80.1282 72.8763 79.9647 72.6058C79.8013 72.3354 79.5649 72.1166 79.2827 71.9744ZM61.7603 79.2992V67.724L74.5619 73.5032L61.7603 79.2992Z" fill="white"/>
</svg>
