<svg width="100" height="100" viewBox="0 0 100 100" fill="none" xmlns="http://www.w3.org/2000/svg">
<path d="M20.3468 68.52C19.294 68.2625 18.3586 67.6582 17.691 66.8045C17.0235 65.9507 16.6627 64.8971 16.6668 63.8133V29.52C16.6668 28.2328 17.1781 26.9983 18.0883 26.0882C18.9985 25.178 20.2329 24.6667 21.5201 24.6667H73.1468C74.2306 24.6626 75.2842 25.0234 76.1379 25.6909C76.9917 26.3584 77.596 27.2939 77.8535 28.3467L75.2668 28.9867C75.1501 28.5132 74.8776 28.0927 74.4931 27.7929C74.1086 27.493 73.6344 27.3311 73.1468 27.3333H21.5201C20.9413 27.3368 20.3871 27.5683 19.9778 27.9777C19.5685 28.387 19.3369 28.9411 19.3334 29.52V63.8133C19.3313 64.3009 19.4931 64.7751 19.793 65.1596C20.0929 65.5442 20.5133 65.8167 20.9868 65.9333L20.3468 68.52Z" fill="white"/>
<path d="M42.0001 54H28.6667V56.6667H42.0001V54Z" fill="white"/>
<path d="M38.0001 60.6666H28.6667V63.3333H38.0001V60.6666Z" fill="white"/>
<path d="M43.3335 60.6666H39.3335V63.3333H43.3335V60.6666Z" fill="white"/>
<path d="M78.5202 31.3333H28.1468C26.8703 31.3333 25.646 31.8404 24.7433 32.7431C23.8406 33.6458 23.3335 34.8701 23.3335 36.1466V70.52C23.3335 71.7966 23.8406 73.0208 24.7433 73.9235C25.646 74.8262 26.8703 75.3333 28.1468 75.3333H78.5202C79.7967 75.3333 81.021 74.8262 81.9237 73.9235C82.8264 73.0208 83.3335 71.7966 83.3335 70.52V36.1466C83.3335 34.8701 82.8264 33.6458 81.9237 32.7431C81.021 31.8404 79.7967 31.3333 78.5202 31.3333ZM80.6668 70.52C80.6668 71.0893 80.4407 71.6353 80.0381 72.0379C79.6355 72.4405 79.0895 72.6666 78.5202 72.6666H28.1468C27.5775 72.6666 27.0315 72.4405 26.6289 72.0379C26.2263 71.6353 26.0002 71.0893 26.0002 70.52V47.3333H48.6668V67.3333C48.6668 67.6869 48.8073 68.0261 49.0573 68.2761C49.3074 68.5262 49.6465 68.6666 50.0002 68.6666H75.3335C75.6871 68.6666 76.0262 68.5262 76.2763 68.2761C76.5263 68.0261 76.6668 67.6869 76.6668 67.3333V47.3333H80.6668V70.52ZM64.8402 53.1866C64.1482 53.5612 63.3737 53.7574 62.5868 53.7574C61.7999 53.7574 61.0255 53.5612 60.3335 53.1866C59.427 52.6868 58.7124 51.8998 58.3022 50.9494C57.892 49.999 57.8094 48.9391 58.0675 47.9367C58.3256 46.9342 58.9096 46.046 59.7278 45.4118C60.5459 44.7776 61.5517 44.4334 62.5868 44.4334C63.622 44.4334 64.6278 44.7776 65.4459 45.4118C66.264 46.046 66.8481 46.9342 67.1061 47.9367C67.3642 48.9391 67.2816 49.999 66.8714 50.9494C66.4612 51.8998 65.7466 52.6868 64.8402 53.1866ZM59.3735 55.7466C60.4028 56.2178 61.5215 56.4617 62.6535 56.4617C63.7855 56.4617 64.9042 56.2178 65.9335 55.7466C68.0747 56.376 69.9537 57.6834 71.2882 59.4723C72.6226 61.2612 73.3403 63.4349 73.3335 65.6666V66H52.0002V65.6666C51.9966 63.4411 52.7127 61.274 54.0415 59.4887C55.3703 57.7034 57.2406 56.3954 59.3735 55.76V55.7466ZM68.2668 53.7733C69.1529 52.7008 69.7157 51.3984 69.8894 50.0181C70.0631 48.6378 69.8407 47.2365 69.2479 45.9779C68.6552 44.7193 67.7167 43.6553 66.5419 42.91C65.3672 42.1648 64.0047 41.769 62.6135 41.769C61.2223 41.769 59.8598 42.1648 58.6851 42.91C57.5103 43.6553 56.5718 44.7193 55.9791 45.9779C55.3863 47.2365 55.1638 48.6378 55.3376 50.0181C55.5113 51.3984 56.074 52.7008 56.9602 53.7733C54.6347 54.8072 52.6742 56.5168 51.3335 58.68V40.6666H74.0002V58.7333C72.631 56.5445 70.6326 54.8203 68.2668 53.7866V53.7733ZM80.6668 44.6533H76.6668V39.32C76.6668 38.9664 76.5263 38.6272 76.2763 38.3772C76.0262 38.1271 75.6871 37.9866 75.3335 37.9866H50.0002C49.6465 37.9866 49.3074 38.1271 49.0573 38.3772C48.8073 38.6272 48.6668 38.9664 48.6668 39.32V44.6533H26.0002V36.1466C26.0002 35.5773 26.2263 35.0313 26.6289 34.6287C27.0315 34.2261 27.5775 34 28.1468 34H78.5202C79.0895 34 79.6355 34.2261 80.0381 34.6287C80.4407 35.0313 80.6668 35.5773 80.6668 36.1466V44.6533Z" fill="white"/>
</svg>
