<svg width="67" height="67" viewBox="0 0 67 67" fill="none" xmlns="http://www.w3.org/2000/svg">
<path d="M49.2933 17.8533C49.2661 17.6773 49.226 17.5035 49.1733 17.3333C47.9867 13.7067 40.6133 11.8267 33.3334 11.8267C26.0534 11.8267 18.6667 13.7067 17.4934 17.3333C17.4407 17.5035 17.4006 17.6773 17.3734 17.8533C17.3601 18.022 17.3601 18.1914 17.3734 18.36V48.1333C17.3734 52.4267 25.3733 54.6667 33.3733 54.6667C41.3733 54.6667 49.3733 52.4267 49.3733 48.1333V18.36C49.3601 18.1893 49.3334 18.0198 49.2933 17.8533V17.8533ZM33.2934 14.4933C40.92 14.4933 45.48 16.4933 46.44 17.8533C45.4533 19.1867 40.8934 21.2 33.2934 21.2C25.6934 21.2 21.1334 19.2267 20.1467 17.8533C21.1467 16.4933 25.7067 14.4933 33.3334 14.4933H33.2934ZM46.6267 48.1333C46.6267 49.4667 41.92 52 33.2934 52C24.6667 52 19.96 49.44 19.96 48.1333V21.12C22.9867 22.9333 28.16 23.8667 33.2934 23.8667C38.4267 23.8667 43.6 22.9333 46.6267 21.12V48.1333Z" fill="white"/>
<path d="M17.4934 17.3334C17.4407 17.5036 17.4006 17.6773 17.3734 17.8534C17.3601 17.6803 17.3601 17.5065 17.3734 17.3334H17.4934Z" fill="white"/>
<path d="M49.3333 17.3334C49.3465 17.5065 49.3465 17.6803 49.3333 17.8534C49.3061 17.6773 49.2659 17.5036 49.2133 17.3334H49.3333Z" fill="white"/>
<path d="M14.28 12.3867L12.3867 14.28L2.66667 4.56V12H0V1.33333C0 0.979711 0.140476 0.640573 0.390525 0.390525C0.640573 0.140476 0.979711 0 1.33333 0H12V2.66667H4.56L14.28 12.3867Z" fill="white"/>
<path d="M66.6666 1.33333V12H64V4.56L54.28 14.28L52.3867 12.3867L62.1067 2.66667H54.6667V0H65.3333C65.6869 0 66.0261 0.140476 66.2761 0.390525C66.5262 0.640573 66.6666 0.979711 66.6666 1.33333Z" fill="white"/>
<path d="M4.56 64H12V66.6667H1.33333C0.979711 66.6667 0.640573 66.5262 0.390525 66.2762C0.140476 66.0261 0 65.687 0 65.3334V54.6667H2.66667V62.1067L12.3867 52.3867L14.28 54.28L4.56 64Z" fill="white"/>
<path d="M66.6666 54.6667V65.3334C66.6666 65.687 66.5262 66.0261 66.2761 66.2762C66.0261 66.5262 65.6869 66.6667 65.3333 66.6667H54.6667V64H62.1067L52.3867 54.28L54.28 52.3867L64 62.1067V54.6667H66.6666Z" fill="white"/>
</svg>
