<svg width="100" height="100" viewBox="0 0 100 100" fill="none" xmlns="http://www.w3.org/2000/svg">
<path d="M62.6666 58.6666C62.0073 58.6666 61.3628 58.8621 60.8147 59.2284C60.2665 59.5947 59.8393 60.1153 59.587 60.7243C59.3347 61.3334 59.2687 62.0037 59.3973 62.6503C59.5259 63.2969 59.8434 63.8908 60.3096 64.357C60.7757 64.8232 61.3697 65.1406 62.0163 65.2692C62.6629 65.3979 63.3331 65.3318 63.9422 65.0796C64.5513 64.8273 65.0719 64.4 65.4381 63.8519C65.8044 63.3037 65.9999 62.6592 65.9999 62C65.9999 61.1159 65.6487 60.2681 65.0236 59.6429C64.3985 59.0178 63.5506 58.6666 62.6666 58.6666ZM62.6666 62.8666C62.4952 62.8666 62.3276 62.8158 62.1851 62.7206C62.0426 62.6253 61.9315 62.49 61.8659 62.3316C61.8003 62.1733 61.7831 61.999 61.8166 61.8309C61.85 61.6628 61.9326 61.5083 62.0538 61.3871C62.175 61.2659 62.3294 61.1834 62.4975 61.1499C62.6656 61.1165 62.8399 61.1337 62.9982 61.1993C63.1566 61.2649 63.292 61.3759 63.3872 61.5185C63.4824 61.661 63.5333 61.8285 63.5333 62C63.5333 62.2298 63.4419 62.4502 63.2794 62.6128C63.1169 62.7753 62.8964 62.8666 62.6666 62.8666Z" fill="white"/>
<path d="M82.9466 76.3467L72.96 66.3734C73.3477 65.319 73.542 64.2034 73.5333 63.08C73.5263 60.4949 72.4953 58.0179 70.6661 56.1912C68.8369 54.3645 66.3584 53.3369 63.7733 53.3334C63.5469 53.3191 63.3198 53.3191 63.0933 53.3334H62.6666H62.4533C62.1888 53.3563 61.926 53.3964 61.6666 53.4534C61.1629 53.5567 60.6681 53.6993 60.1866 53.88C59.88 54 59.5866 54.1334 59.2533 54.2934C58.92 54.4534 58.72 54.5867 58.4666 54.76C57.0836 55.6345 55.9449 56.8454 55.1567 58.2794C54.3686 59.7134 53.9569 61.3237 53.96 62.96C53.967 65.5475 54.9998 68.0265 56.8319 69.8536C58.664 71.6807 61.1459 72.7067 63.7333 72.7067C64.8369 72.715 65.9335 72.53 66.9733 72.16L67.2933 72.4534V74.6667C67.2933 75.0203 67.4338 75.3595 67.6838 75.6095C67.9339 75.8596 68.273 76 68.6266 76H70.7466L71.2933 76.5467V78.6667C71.2933 79.0203 71.4338 79.3595 71.6838 79.6095C71.9339 79.8596 72.273 80 72.6266 80H76.0666L78.3066 82.2667C78.4301 82.3927 78.5774 82.4929 78.7399 82.5616C78.9024 82.6302 79.0769 82.666 79.2533 82.6667H81.92C82.2736 82.6667 82.6127 82.5262 82.8628 82.2762C83.1128 82.0261 83.2533 81.687 83.2533 81.3334V77.3334C83.2704 77.1568 83.2521 76.9786 83.1994 76.8091C83.1468 76.6397 83.0608 76.4825 82.9466 76.3467ZM80.6666 80H79.8533L77.6133 77.7334C77.4898 77.6074 77.3426 77.5072 77.1801 77.4385C77.0176 77.3698 76.8431 77.3341 76.6666 77.3334H74V76C74.001 75.8246 73.9674 75.6506 73.901 75.4882C73.8347 75.3257 73.7369 75.178 73.6133 75.0534L72.28 73.72C72.1554 73.5965 72.0076 73.4987 71.8452 73.4324C71.6827 73.366 71.5088 73.3324 71.3333 73.3334H70V72C70.0011 71.8182 69.965 71.638 69.8939 71.4707C69.8228 71.3033 69.7183 71.1522 69.5866 71.0267L68.2533 69.6934C68.0591 69.5096 67.8142 69.3884 67.5502 69.3456C67.2863 69.3028 67.0156 69.3404 66.7733 69.4534C65.8431 69.8896 64.8273 70.1128 63.8 70.1067C62.2821 70.0941 60.8086 69.5931 59.5976 68.6779C58.3866 67.7626 57.5025 66.4817 57.0763 65.0248C56.65 63.568 56.7041 62.0126 57.2307 60.5889C57.7573 59.1652 58.7283 57.9489 60 57.12L60.56 56.7867L61.24 56.48C61.5868 56.3529 61.9436 56.2548 62.3066 56.1867L62.8666 56.0934H63.3333H63.52H63.8266C65.7056 56.0934 67.5078 56.8389 68.8377 58.1663C70.1676 59.4936 70.9164 61.2944 70.92 63.1734C70.9294 64.2169 70.6966 65.2484 70.24 66.1867C70.1166 66.4367 70.0747 66.7191 70.1201 66.9941C70.1656 67.2691 70.2961 67.523 70.4933 67.72L80.72 77.9334L80.6666 80Z" fill="white"/>
<path d="M24.6666 64.9066V20.4266C24.663 20.3741 24.6698 20.3213 24.6866 20.2714C24.7034 20.2215 24.73 20.1754 24.7646 20.1357C24.7993 20.0961 24.8415 20.0637 24.8888 20.0404C24.936 20.0171 24.9874 20.0034 25.04 20H69.6266C69.6792 20.0034 69.7306 20.0171 69.7778 20.0404C69.8251 20.0637 69.8672 20.0961 69.9019 20.1357C69.9366 20.1754 69.9631 20.2215 69.98 20.2714C69.9968 20.3213 70.0036 20.3741 70 20.4266V52H72.6666V20.4266C72.6701 20.0239 72.5943 19.6244 72.4434 19.251C72.2925 18.8776 72.0696 18.5376 71.7873 18.2503C71.505 17.9631 71.1689 17.7343 70.7982 17.5769C70.4274 17.4196 70.0293 17.3368 69.6266 17.3333H25.04C24.6372 17.3368 24.2391 17.4196 23.8684 17.5769C23.4977 17.7343 23.1616 17.9631 22.8793 18.2503C22.597 18.5376 22.374 18.8776 22.2232 19.251C22.0723 19.6244 21.9964 20.0239 22 20.4266V26.6666H18C17.6463 26.6666 17.3072 26.8071 17.0572 27.0572C16.8071 27.3072 16.6666 27.6464 16.6666 28V36C16.6666 36.3536 16.8071 36.6927 17.0572 36.9428C17.3072 37.1928 17.6463 37.3333 18 37.3333H22V48H18C17.6463 48 17.3072 48.1405 17.0572 48.3905C16.8071 48.6405 16.6666 48.9797 16.6666 49.3333V57.3333C16.6666 57.6869 16.8071 58.0261 17.0572 58.2761C17.3072 58.5262 17.6463 58.6666 18 58.6666H22V64.9066C21.9964 65.3094 22.0723 65.7088 22.2232 66.0823C22.374 66.4557 22.597 66.7957 22.8793 67.083C23.1616 67.3702 23.4977 67.599 23.8684 67.7564C24.2391 67.9137 24.6372 67.9965 25.04 68H51.3333V65.3333H25.04C24.9874 65.3299 24.936 65.3162 24.8888 65.2929C24.8415 65.2696 24.7993 65.2372 24.7646 65.1975C24.73 65.1579 24.7034 65.1118 24.6866 65.0619C24.6698 65.0119 24.663 64.9592 24.6666 64.9066ZM19.3333 34.6666V29.3333H22V34.6666H19.3333ZM19.3333 56V50.6666H22V56H19.3333Z" fill="white"/>
<path d="M46 30.6665C48.5059 30.6749 50.9464 31.4677 52.979 32.9335C55.0115 34.3993 56.5342 36.4647 57.3333 38.8399L59.8666 37.9865C58.7594 34.6874 56.5151 31.8894 53.5348 30.0927C50.5545 28.2959 47.0324 27.6174 43.5979 28.1784C40.1634 28.7393 37.0403 30.5032 34.7866 33.1549C32.5329 35.8066 31.2955 39.1732 31.2955 42.6532C31.2955 46.1332 32.5329 49.4998 34.7866 52.1515C37.0403 54.8032 40.1634 56.5671 43.5979 57.1281C47.0324 57.689 50.5545 57.0105 53.5348 55.2137C56.5151 53.417 58.7594 50.619 59.8666 47.3199L57.3333 46.4932C56.6287 48.5873 55.3596 50.4463 53.666 51.8651C51.9723 53.284 49.9197 54.2077 47.7346 54.5345C45.5494 54.8613 43.3164 54.5784 41.2818 53.7171C39.2471 52.8557 37.4897 51.4494 36.2034 49.653C34.917 47.8566 34.1515 45.7399 33.9914 43.5363C33.8312 41.3326 34.2826 39.1275 35.2957 37.164C36.3088 35.2005 37.8444 33.5548 39.7331 32.4084C41.6219 31.2619 43.7905 30.6592 46 30.6665Z" fill="white"/>
<path d="M64.6666 41.3333H53.8799C53.5456 39.3554 52.4805 37.5753 50.8956 36.3458C49.3107 35.1162 47.3217 34.5269 45.3228 34.6947C43.3239 34.8624 41.461 35.775 40.1032 37.2515C38.7454 38.728 37.9918 40.6607 37.9918 42.6666C37.9918 44.6726 38.7454 46.6053 40.1032 48.0818C41.461 49.5583 43.3239 50.4709 45.3228 50.6386C47.3217 50.8064 49.3107 50.2171 50.8956 48.9875C52.4805 47.7579 53.5456 45.9778 53.8799 44H64.6666V41.3333ZM45.9999 48C44.9451 48 43.9139 47.6872 43.0369 47.1011C42.1598 46.5151 41.4762 45.6822 41.0726 44.7076C40.6689 43.7331 40.5633 42.6607 40.7691 41.6262C40.9749 40.5916 41.4828 39.6413 42.2287 38.8954C42.9746 38.1495 43.9249 37.6416 44.9594 37.4358C45.994 37.23 47.0664 37.3356 48.0409 37.7393C49.0154 38.143 49.8484 38.8265 50.4344 39.7036C51.0205 40.5807 51.3333 41.6118 51.3333 42.6666C51.3333 44.0811 50.7714 45.4377 49.7712 46.4379C48.771 47.4381 47.4144 48 45.9999 48Z" fill="white"/>
</svg>
