<svg width="100" height="100" viewBox="0 0 100 100" fill="none" xmlns="http://www.w3.org/2000/svg">
<path d="M77.2953 88H22.7047C22.2758 88 21.8645 87.8296 21.5613 87.5264C21.258 87.2231 21.0876 86.8118 21.0876 86.383V13.617C21.0876 13.1882 21.258 12.7769 21.5613 12.4736C21.8645 12.1704 22.2758 12 22.7047 12H77.2953C77.7242 12 78.1355 12.1704 78.4387 12.4736C78.742 12.7769 78.9123 13.1882 78.9123 13.617V86.383C78.9123 86.8118 78.742 87.2231 78.4387 87.5264C78.1355 87.8296 77.7242 88 77.2953 88ZM24.3217 84.766H75.6783V15.234H24.3217V84.766Z" fill="#D86613"/>
<path d="M39.3601 33.4418H30.2724C29.8436 33.4418 29.4323 33.2714 29.129 32.9681C28.8258 32.6649 28.6554 32.2536 28.6554 31.8247V22.7209C28.6554 22.292 28.8258 21.8807 29.129 21.5775C29.4323 21.2742 29.8436 21.1039 30.2724 21.1039H39.3601C39.7889 21.1039 40.2002 21.2742 40.5035 21.5775C40.8067 21.8807 40.9771 22.292 40.9771 22.7209V31.8247C40.9771 32.2536 40.8067 32.6649 40.5035 32.9681C40.2002 33.2714 39.7889 33.4418 39.3601 33.4418V33.4418ZM31.8894 30.2077H37.7431V24.3379H31.8894V30.2077Z" fill="#D86613"/>
<path d="M39.3601 54.657H30.2724C29.8436 54.657 29.4323 54.4866 29.129 54.1833C28.8258 53.8801 28.6554 53.4688 28.6554 53.0399V43.9361C28.6554 43.5073 28.8258 43.096 29.129 42.7927C29.4323 42.4895 29.8436 42.3191 30.2724 42.3191H39.3601C39.7889 42.3191 40.2002 42.4895 40.5035 42.7927C40.8067 43.096 40.9771 43.5073 40.9771 43.9361V53.0399C40.9771 53.4688 40.8067 53.8801 40.5035 54.1833C40.2002 54.4866 39.7889 54.657 39.3601 54.657ZM31.8894 51.4229H37.7431V45.5531H31.8894V51.4229Z" fill="#D86613"/>
<path d="M39.3601 75.8724H30.2724C29.8436 75.8724 29.4323 75.702 29.129 75.3987C28.8258 75.0955 28.6554 74.6842 28.6554 74.2553V65.1677C28.6554 64.7388 28.8258 64.3275 29.129 64.0243C29.4323 63.721 29.8436 63.5507 30.2724 63.5507H39.3601C39.7889 63.5507 40.2002 63.721 40.5035 64.0243C40.8067 64.3275 40.9771 64.7388 40.9771 65.1677V74.2553C40.9771 74.6842 40.8067 75.0955 40.5035 75.3987C40.2002 75.702 39.7889 75.8724 39.3601 75.8724ZM31.8894 72.6383H37.7431V66.7847H31.8894V72.6383Z" fill="#D86613"/>
<path d="M71.2315 25.6476H43.9362V28.8816H71.2315V25.6476Z" fill="#D86613"/>
<path d="M71.2315 46.863H43.9362V50.0971H71.2315V46.863Z" fill="#D86613"/>
<path d="M71.2315 68.0944H43.9362V71.3284H71.2315V68.0944Z" fill="#D86613"/>
</svg>
