<svg width="100" height="100" viewBox="0 0 100 100" fill="none" xmlns="http://www.w3.org/2000/svg">
<path d="M42 64.0001H27.3333C25.8497 63.9715 24.402 63.5381 23.1467 62.7468C21.1257 61.5087 19.4642 59.7631 18.3273 57.6835C17.1905 55.604 16.6179 53.263 16.6667 50.8935C16.5311 48.1788 17.3119 45.4974 18.8837 43.28C20.4555 41.0626 22.727 39.4378 25.3333 38.6668C25.3333 38.3201 25.3333 37.9735 25.3333 37.6268C25.4064 34.2392 26.4203 30.9387 28.2616 28.0942C30.103 25.2498 32.6992 22.9736 35.76 21.5201C39.0498 20.0646 42.7084 19.6588 46.2372 20.3579C49.7661 21.0569 52.9936 22.827 55.48 25.4268C57.1515 27.129 58.506 29.1157 59.48 31.2935C60.8695 30.172 62.6011 29.5603 64.3867 29.5601C68.0133 29.5601 72.0933 32.3068 72.84 38.3335C76.2667 39.1468 83.3067 41.9468 83.3067 51.0135C83.4231 53.284 82.8922 55.5409 81.7757 57.5214C80.6591 59.5019 79.003 61.1244 77 62.2001L75.6667 59.8668C77.2457 59.0129 78.5484 57.7264 79.4222 56.1583C80.296 54.5902 80.7046 52.8055 80.6 51.0135C80.6 43.1735 74.1067 41.2268 71.2667 40.7468C71.0923 40.7157 70.9258 40.6502 70.777 40.554C70.6282 40.4579 70.5 40.333 70.4 40.1868C70.2045 39.9075 70.1234 39.564 70.1733 39.2268C69.7867 34.3868 66.96 32.2268 64.3067 32.2268C63.4616 32.2343 62.6305 32.4426 61.8817 32.8343C61.133 33.2261 60.488 33.7902 60 34.4801C59.8572 34.6757 59.6638 34.8286 59.4407 34.9226C59.2175 35.0165 58.973 35.048 58.7333 35.0135C58.4945 34.9761 58.2703 34.8744 58.0847 34.7194C57.8992 34.5644 57.7593 34.3619 57.68 34.1335C56.8106 31.5743 55.3802 29.2419 53.4933 27.3068C51.3838 25.1177 48.6543 23.6273 45.6722 23.0361C42.6901 22.4449 39.5985 22.7813 36.8133 24.0001C34.245 25.2494 32.0667 27.1765 30.5134 29.5732C28.9602 31.97 28.0911 34.7455 28 37.6001C28.0012 38.215 28.0368 38.8293 28.1067 39.4401C28.1498 39.7781 28.062 40.1198 27.8611 40.395C27.6603 40.6702 27.3617 40.8581 27.0267 40.9201C24.7602 41.3833 22.7355 42.645 21.321 44.4755C19.9066 46.3059 19.1965 48.5835 19.32 50.8935C19.264 52.8145 19.7198 54.7159 20.6405 56.4028C21.5613 58.0897 22.914 59.5014 24.56 60.4935C25.3892 61.024 26.3491 61.3148 27.3333 61.3335H42V64.0001Z" fill="white"/>
<path d="M81.8533 72.0003L72.3867 62.4936C73.7442 59.4446 73.9799 56.0138 73.0523 52.8078C72.1247 49.6017 70.0934 46.8269 67.3176 44.9738C64.5417 43.1208 61.2001 42.3088 57.8834 42.6815C54.5667 43.0541 51.4886 44.5875 49.1932 47.0104C46.8979 49.4333 45.533 52.5897 45.34 55.9217C45.1471 59.2536 46.1383 62.5465 48.1386 65.2182C50.139 67.8899 53.0195 69.7684 56.2709 70.5215C59.5224 71.2746 62.9354 70.8538 65.9067 69.3336L75.24 78.6669C76.1305 79.5356 77.3294 80.0152 78.5733 80.0003C79.1874 80.0088 79.7971 79.8953 80.367 79.6665C80.9369 79.4376 81.4557 79.0979 81.8933 78.6669C82.3309 78.228 82.6773 77.7067 82.9123 77.1331C83.1473 76.5595 83.2664 75.9451 83.2627 75.3253C83.259 74.7054 83.1325 74.0925 82.8906 73.5218C82.6487 72.9511 82.2962 72.434 81.8533 72.0003ZM59.4667 68.2269C57.2014 68.2269 54.987 67.5552 53.1035 66.2967C51.22 65.0382 49.752 63.2494 48.8852 61.1566C48.0183 59.0638 47.7915 56.7609 48.2334 54.5392C48.6753 52.3175 49.7662 50.2767 51.3679 48.6749C52.9697 47.0731 55.0105 45.9823 57.2322 45.5404C59.454 45.0984 61.7568 45.3252 63.8497 46.1921C65.9425 47.059 67.7313 48.527 68.9898 50.4105C70.2483 52.294 70.92 54.5084 70.92 56.7736C70.92 59.8112 69.7133 62.7244 67.5654 64.8723C65.4175 67.0203 62.5043 68.2269 59.4667 68.2269ZM80 76.7336C79.6111 77.1022 79.0958 77.3076 78.56 77.3076C78.0242 77.3076 77.5089 77.1022 77.12 76.7336L68.24 67.8536C69.3244 67.0029 70.2769 65.9965 71.0667 64.8669L80 73.8536C80.3778 74.2377 80.5896 74.7549 80.5896 75.2936C80.5896 75.8324 80.3778 76.3495 80 76.7336Z" fill="white"/>
<path d="M63.1333 50.5734L61.5467 52.72C60.833 52.1913 59.9785 51.8859 59.0914 51.8425C58.2042 51.7991 57.3241 52.0196 56.5621 52.4762C55.8002 52.9328 55.1907 53.6049 54.8107 54.4077C54.4306 55.2106 54.2969 56.108 54.4267 56.9867C54.5006 57.5835 54.6962 58.1588 55.0012 58.6771C55.3062 59.1954 55.7142 59.6456 56.2 60L54.6667 62.0801C53.1794 60.9361 52.2007 59.2542 51.9409 57.396C51.6811 55.5378 52.1611 53.6518 53.2776 52.1439C54.3942 50.636 56.0579 49.6267 57.9111 49.3329C59.7642 49.0392 61.6586 49.4846 63.1867 50.5734H63.1333Z" fill="white"/>
</svg>
