<svg width="100" height="100" viewBox="0 0 100 100" fill="none" xmlns="http://www.w3.org/2000/svg">
<path d="M69.2 23.3333C68.8 18.1333 59.1067 15.3333 49.96 15.3333C40.8133 15.3333 31.1067 18.1333 30.6667 23.3333V63.3333C30.6667 68.7333 40.6267 71.6533 50 71.6533C59.3733 71.6533 69.3333 68.7467 69.3333 63.3467V23.3467L69.2 23.3333ZM49.96 18C60.2533 18 66.5733 21.2933 66.5733 23.6667C66.5733 26.04 60.2533 29.3333 49.96 29.3333C39.6667 29.3333 33.3333 26.0267 33.3333 23.6667C33.3333 21.3067 39.6533 18 49.96 18ZM49.96 69C39.6533 69 33.3333 65.7067 33.3333 63.3467V55.6533C36.8933 58.32 43.6133 59.6533 50.04 59.6533C56.4667 59.6533 63.08 58.32 66.6667 55.6533V63.2933C66.5733 65.7067 60.2533 69 49.96 69ZM50.04 57C39.7467 57 33.4267 53.6933 33.4267 51.3333H33.3333V42.32C36.8933 44.9867 43.6133 46.32 50.04 46.32C56.4667 46.32 63.08 44.9867 66.6667 42.32V51.3333C66.6667 53.6933 60.3467 57 50.04 57ZM50.04 43.6667C39.7467 43.6667 33.4267 40.36 33.4267 38H33.3333V28C36.92 30.5867 43.5733 32 49.96 32C56.3467 32 63.1067 30.6667 66.6667 28V38C66.6667 40.36 60.3467 43.6667 50.04 43.6667Z" fill="white"/>
<path d="M34.6667 74H32V82H34.6667V74Z" fill="white"/>
<path d="M68 74H65.3333V82H68V74Z" fill="white"/>
<path d="M45.3333 76.6667H42.6667V84.6667H45.3333V76.6667Z" fill="white"/>
<path d="M57.3333 76.6667H54.6667V84.6667H57.3333V76.6667Z" fill="white"/>
</svg>
