<svg width="100" height="100" viewBox="0 0 100 100" fill="none" xmlns="http://www.w3.org/2000/svg">
<path d="M48.6667 21.3334V33.9334H51.3333V21.3334L57.5467 27.5334L59.4267 25.6534L50.9467 17.16C50.8227 17.0351 50.6752 16.9359 50.5128 16.8682C50.3503 16.8005 50.176 16.7656 50 16.7656C49.824 16.7656 49.6497 16.8005 49.4872 16.8682C49.3248 16.9359 49.1773 17.0351 49.0533 17.16L40.5733 25.6534L42.4533 27.5334L48.6667 21.3334Z" fill="white"/>
<path d="M51.3333 78.6666V65.9066H48.6667V78.6666L42.4533 72.4532L40.5733 74.3466L49.0533 82.8266C49.1773 82.9515 49.3248 83.0507 49.4872 83.1184C49.6497 83.1861 49.824 83.221 50 83.221C50.176 83.221 50.3503 83.1861 50.5128 83.1184C50.6752 83.0507 50.8227 82.9515 50.9467 82.8266L59.4267 74.3466L57.5467 72.4532L51.3333 78.6666Z" fill="white"/>
<path d="M25.0267 40.56L23.1467 42.4533L29.3333 48.5733H16.6667V51.24H29.4533L23.1467 57.5333L25.0267 59.4133L33.52 50.9333C33.7683 50.6835 33.9077 50.3456 33.9077 49.9933C33.9077 49.6411 33.7683 49.3031 33.52 49.0533L25.0267 40.56Z" fill="white"/>
<path d="M83.3333 48.5733H70.7333L76.8533 42.4533L74.96 40.56L66.48 49.0533C66.2317 49.3031 66.0923 49.6411 66.0923 49.9933C66.0923 50.3456 66.2317 50.6835 66.48 50.9333L74.96 59.4133L76.8533 57.5333L70.5467 51.24H83.3333V48.5733Z" fill="white"/>
<path d="M61.3333 42.7334L50.6667 36.7334C50.464 36.6163 50.2341 36.5547 50 36.5547C49.766 36.5547 49.536 36.6163 49.3333 36.7334L38.6667 42.7334C38.4607 42.8491 38.2892 43.0175 38.1697 43.2214C38.0503 43.4252 37.9871 43.6571 37.9867 43.8933V55.8933C37.9871 56.1296 38.0503 56.3615 38.1697 56.5653C38.2892 56.7692 38.4607 56.9376 38.6667 57.0534L49.3333 63.04C49.5272 63.1542 49.7483 63.2141 49.9733 63.2134C50.1986 63.2161 50.4202 63.1561 50.6133 63.04L61.28 57.0534C61.486 56.9376 61.6575 56.7692 61.7769 56.5653C61.8964 56.3615 61.9596 56.1296 61.96 55.8933V43.8933C61.9651 43.6623 61.9099 43.4338 61.8001 43.2305C61.6902 43.0271 61.5294 42.8558 61.3333 42.7334ZM50 39.4534L58 43.96L50 48.6L42 43.96L50 39.4534ZM40.6667 46.28L48.6667 50.9067V59.5734L40.6667 55.08V46.28ZM51.3333 59.6133V50.92L59.3333 46.28V55.08L51.3333 59.6133Z" fill="white"/>
</svg>
