<svg width="100" height="100" viewBox="0 0 100 100" fill="none" xmlns="http://www.w3.org/2000/svg">
<path d="M70.46 78.2H29.6C28.5785 78.208 27.5656 78.0136 26.6196 77.6282C25.6736 77.2428 24.8132 76.6739 24.0881 75.9544C23.363 75.2349 22.7875 74.3789 22.3948 73.4359C22.0021 72.4929 21.7999 71.4815 21.8 70.46V29.6C21.792 28.5735 21.9883 27.5556 22.3774 26.6057C22.7666 25.6557 23.3408 24.7927 24.0667 24.0668C24.7926 23.3409 25.6557 22.7667 26.6056 22.3775C27.5556 21.9883 28.5734 21.7921 29.6 21.8H70.52C71.5364 21.8079 72.5414 22.0159 73.4774 22.4121C74.4135 22.8084 75.2623 23.3851 75.9755 24.1094C76.6886 24.8337 77.2521 25.6914 77.6338 26.6335C78.0155 27.5756 78.2079 28.5836 78.2 29.6V70.52C78.1841 72.5624 77.3617 74.5157 75.9119 75.9543C74.4621 77.3929 72.5024 78.2001 70.46 78.2ZM29.6 24.2C28.8891 24.1936 28.184 24.3289 27.5259 24.598C26.8679 24.8672 26.27 25.2647 25.7673 25.7674C25.2646 26.2701 24.8671 26.8679 24.598 27.526C24.3289 28.184 24.1936 28.8891 24.2 29.6V70.52C24.219 71.9353 24.7978 73.2854 25.8098 74.275C26.8218 75.2645 28.1846 75.8129 29.6 75.8H70.52C71.9353 75.7969 73.2917 75.2332 74.2924 74.2325C75.2932 73.2317 75.8568 71.8753 75.86 70.46V29.6C75.8664 28.8891 75.7311 28.184 75.462 27.526C75.1929 26.8679 74.7953 26.2701 74.2926 25.7674C73.7899 25.2647 73.1921 24.8672 72.534 24.598C71.876 24.3289 71.1709 24.1936 70.46 24.2H29.6Z" fill="#D86613"/>
<path d="M70.256 46.7H29.744C29.4257 46.7 29.1205 46.5736 28.8955 46.3485C28.6704 46.1235 28.544 45.8182 28.544 45.5V32C28.544 31.6817 28.6704 31.3765 28.8955 31.1515C29.1205 30.9264 29.4257 30.8 29.744 30.8H70.256C70.5743 30.8 70.8795 30.9264 71.1045 31.1515C71.3296 31.3765 71.456 31.6817 71.456 32V45.5C71.456 45.8182 71.3296 46.1235 71.1045 46.3485C70.8795 46.5736 70.5743 46.7 70.256 46.7ZM30.944 44.3H69.056V33.2H30.944V44.3Z" fill="#D86613"/>
<path d="M70.256 70.328H29.744C29.4257 70.328 29.1205 70.2016 28.8955 69.9765C28.6704 69.7515 28.544 69.4463 28.544 69.128V52.256C28.544 51.9377 28.6704 51.6325 28.8955 51.4075C29.1205 51.1824 29.4257 51.056 29.744 51.056H70.256C70.5743 51.056 70.8795 51.1824 71.1045 51.4075C71.3296 51.6325 71.456 51.9377 71.456 52.256V69.128C71.456 69.4463 71.3296 69.7515 71.1045 69.9765C70.8795 70.2016 70.5743 70.328 70.256 70.328ZM30.944 67.928H69.056V53.456H30.944V67.928Z" fill="#D86613"/>
<path d="M44.456 32H42.056V45.5H44.456V32Z" fill="#D86613"/>
<path d="M57.956 32H55.556V45.5H57.956V32Z" fill="#D86613"/>
<path d="M44.456 52.256H42.056V69.128H44.456V52.256Z" fill="#D86613"/>
<path d="M57.956 52.256H55.556V69.128H57.956V52.256Z" fill="#D86613"/>
</svg>
