<svg width="100" height="100" viewBox="0 0 100 100" fill="none" xmlns="http://www.w3.org/2000/svg">
<path d="M91.9918 41.6101V44.9694H77.1772C38.3937 44.9694 8.00863 29.6845 8.00863 10.1332C8.00315 9.42547 8.04805 8.71822 8.143 8.01685H11.5023C11.388 8.71645 11.3318 9.42434 11.3344 10.1332C11.3344 27.4841 40.8796 41.6101 77.1772 41.6101H91.9918Z" fill="white"/>
<path d="M41.6018 46.5651V49.9244C28.5004 48.2447 15.2311 45.003 8.00851 38.8722V34.0516C12.594 39.9472 24.5196 44.2975 41.6018 46.5651Z" fill="white"/>
<path d="M41.6018 50.0756V53.4349C24.5196 55.6856 12.594 60.036 8.00851 65.9484V61.0942C15.2311 54.9634 28.4836 51.7384 41.6018 50.0756Z" fill="white"/>
<path d="M91.9918 34.8746V38.2339H85.0212C51.3104 38.2339 26.8377 26.8122 26.8377 11.0738C26.8377 11.0738 26.8377 9.14217 26.8377 8H30.3818C30.3818 8.80624 30.3818 10.4691 30.3818 11.0738C30.3818 24.5111 53.897 34.8746 85.0548 34.8746H91.9918Z" fill="white"/>
<path d="M41.6019 59.9184V63.4457C23.3943 69.0558 11.368 78.8314 11.368 89.934C11.3675 90.6254 11.4181 91.316 11.5191 92H8.15979C8.06435 91.3156 8.01943 90.625 8.02542 89.934C8.00862 77.0006 21.3284 65.9652 41.6019 59.9184Z" fill="white"/>
<path d="M41.6019 70.2651V74.0276C34.4633 78.0084 30.2978 83.0978 30.2978 88.7582C30.2978 89.4133 30.2978 91.3113 30.2978 92H26.9384C26.9384 90.8914 26.9384 88.7918 26.9384 88.7582C26.9384 81.4013 32.3638 74.985 41.6019 70.2651Z" fill="white"/>
<path d="M73.5155 90.3203H70.1562V70.1644H66.7969V90.3203H63.4375V68.4847C63.4375 68.0392 63.6145 67.612 63.9295 67.297C64.2445 66.982 64.6717 66.805 65.1172 66.805H71.8359C72.2813 66.805 72.7086 66.982 73.0236 67.297C73.3386 67.612 73.5155 68.0392 73.5155 68.4847V90.3203Z" fill="white"/>
<path d="M60.0782 90.3203H56.7189V75.2034H53.3596V90.3203H50.0002V73.5237C50.0002 73.0782 50.1772 72.651 50.4922 72.336C50.8072 72.021 51.2344 71.844 51.6799 71.844H58.3985C58.844 71.844 59.2712 72.021 59.5862 72.336C59.9012 72.651 60.0782 73.0782 60.0782 73.5237V90.3203Z" fill="white"/>
<path d="M86.9528 90.3203H83.5935V63.4457H80.2342V90.3203H76.8748V61.7661C76.8748 61.3206 77.0518 60.8934 77.3668 60.5784C77.6818 60.2634 78.109 60.0864 78.5545 60.0864H85.2732C85.7186 60.0864 86.1459 60.2634 86.4609 60.5784C86.7759 60.8934 86.9528 61.3206 86.9528 61.7661V90.3203Z" fill="white"/>
<path d="M90.3122 88.6407H46.6409V92H90.3122V88.6407Z" fill="white"/>
<path d="M91.9918 92H88.6325V55.0474H48.3206V92H44.9612V53.3677C44.9612 52.9222 45.1382 52.495 45.4532 52.18C45.7682 51.865 46.1954 51.688 46.6409 51.688H90.3121C90.7576 51.688 91.1849 51.865 91.4998 52.18C91.8148 52.495 91.9918 52.9222 91.9918 53.3677V92Z" fill="white"/>
</svg>
