<svg width="100" height="100" viewBox="0 0 100 100" fill="none" xmlns="http://www.w3.org/2000/svg">
<path d="M76 38.56V36.48H71.84V31.9768C71.84 30.9645 71.4379 29.9937 70.7221 29.2779C70.0063 28.5621 69.0355 28.16 68.0232 28.16H63.52V24H61.44V28.16H57.28V24H55.2V28.16H51.04V24H48.96V28.16H44.8V24H42.72V28.16H38.56V24H36.48V28.16H31.9768C30.9645 28.16 29.9937 28.5621 29.2779 29.2779C28.5621 29.9937 28.16 30.9645 28.16 31.9768V36.48H24V38.56H28.16V42.72H24V44.8H28.16V48.96H24V51.04H28.16V55.2H24V57.28H28.16V61.44H24V63.52H28.16V68.0232C28.16 69.0355 28.5621 70.0063 29.2779 70.7221C29.9937 71.4379 30.9645 71.84 31.9768 71.84H36.48V76H38.56V71.84H42.72V76H44.8V71.84H48.96V76H51.04V71.84H55.2V76H57.28V71.84H61.44V76H63.52V71.84H68.0232C69.0355 71.84 70.0063 71.4379 70.7221 70.7221C71.4379 70.0063 71.84 69.0355 71.84 68.0232V63.52H76V61.44H71.84V57.28H76V55.2H71.84V51.04H76V48.96H71.84V44.8H76V42.72H71.84V38.56H76ZM69.76 68.0232C69.76 68.4838 69.577 68.9256 69.2513 69.2513C68.9256 69.577 68.4838 69.76 68.0232 69.76H31.9768C31.7487 69.76 31.5229 69.7151 31.3122 69.6278C31.1014 69.5405 30.91 69.4126 30.7487 69.2513C30.5874 69.09 30.4595 68.8986 30.3722 68.6878C30.2849 68.4771 30.24 68.2513 30.24 68.0232V31.9768C30.24 31.7487 30.2849 31.5229 30.3722 31.3122C30.4595 31.1014 30.5874 30.91 30.7487 30.7487C30.91 30.5874 31.1014 30.4595 31.3122 30.3722C31.5229 30.2849 31.7487 30.24 31.9768 30.24H68.0232C68.2513 30.24 68.4771 30.2849 68.6878 30.3722C68.8986 30.4595 69.09 30.5874 69.2513 30.7487C69.4126 30.91 69.5405 31.1014 69.6278 31.3122C69.7151 31.5229 69.76 31.7487 69.76 31.9768V68.0232Z" fill="white"/>
<path d="M60.0048 37.52H39.9952C39.3404 37.5255 38.714 37.788 38.251 38.251C37.7879 38.714 37.5254 39.3404 37.52 39.9952V60.0048C37.5254 60.6596 37.7879 61.286 38.251 61.749C38.714 62.2121 39.3404 62.4746 39.9952 62.48H60.0048C60.6596 62.4746 61.286 62.2121 61.749 61.749C62.212 61.286 62.4746 60.6596 62.48 60.0048V39.9952C62.4746 39.3404 62.212 38.714 61.749 38.251C61.286 37.788 60.6596 37.5255 60.0048 37.52ZM60.4 60.0048C60.4 60.1096 60.3584 60.2102 60.2842 60.2843C60.2101 60.3584 60.1096 60.4 60.0048 60.4H39.9952C39.8904 60.4 39.7899 60.3584 39.7157 60.2843C39.6416 60.2102 39.6 60.1096 39.6 60.0048V39.9952C39.6 39.8904 39.6416 39.7899 39.7157 39.7158C39.7899 39.6417 39.8904 39.6 39.9952 39.6H60.0048C60.1096 39.6 60.2101 39.6417 60.2842 39.7158C60.3584 39.7899 60.4 39.8904 60.4 39.9952V60.0048Z" fill="white"/>
</svg>
