<svg width="100" height="100" viewBox="0 0 100 100" fill="none" xmlns="http://www.w3.org/2000/svg">
<path d="M82 82H72.6666V79.3333H80.6666V20.6667H19.3333V79.3333H56.6666V82H18C17.6464 82 17.3072 81.8595 17.0572 81.6095C16.8071 81.3594 16.6667 81.0203 16.6667 80.6667V19.3333C16.6667 18.9797 16.8071 18.6406 17.0572 18.3905C17.3072 18.1405 17.6464 18 18 18H82C82.3536 18 82.6927 18.1405 82.9428 18.3905C83.1928 18.6406 83.3333 18.9797 83.3333 19.3333V80.6667C83.3333 81.0203 83.1928 81.3594 82.9428 81.6095C82.6927 81.8595 82.3536 82 82 82Z" fill="white"/>
<path d="M82 28.6667H18V31.3333H82V28.6667Z" fill="white"/>
<path d="M24.6667 23.3333H22V26H24.6667V23.3333Z" fill="white"/>
<path d="M30 23.3333H27.3333V26H30V23.3333Z" fill="white"/>
<path d="M35.3333 23.3333H32.6667V26H35.3333V23.3333Z" fill="white"/>
<path d="M32 67.7467L30.12 65.8534L41.9733 54.0134L30.12 42.1601L32 40.2667L44.8 53.0667C44.9236 53.1913 45.0213 53.3391 45.0877 53.5015C45.154 53.664 45.1877 53.8379 45.1867 54.0134C45.1852 54.3632 45.0463 54.6984 44.8 54.9467L32 67.7467Z" fill="white"/>
<path d="M67.3333 60.6667H47.3333V63.3333H67.3333V60.6667Z" fill="white"/>
</svg>
