<svg width="100" height="100" viewBox="0 0 100 100" fill="none" xmlns="http://www.w3.org/2000/svg">
<path d="M22 23.88H3V3H22V23.88ZM7 19.88H18V7H7V19.88Z" fill="#3B48CC"/>
<path d="M22 48.2399H3V27.3799H22V48.2399ZM7 44.2399H18V31.3799H7V44.2399Z" fill="#3B48CC"/>
<path d="M22 72.6199H3V51.7599H22V72.6199ZM7 68.6199H18V55.7599H7V68.6199Z" fill="#3B48CC"/>
<path d="M22 97.0001H3V76.1201H22V97.0001ZM7 93.0001H18V80.1201H7V93.0001Z" fill="#3B48CC"/>
<path d="M44.5 23.88H25.5V3H44.5V23.88ZM29.5 19.88H40.5V7H29.5V19.88Z" fill="#3B48CC"/>
<path d="M44.5 48.2399H25.5V27.3799H44.5V48.2399ZM29.5 44.2399H40.5V31.3799H29.5V44.2399Z" fill="#3B48CC"/>
<path d="M44.5 72.6199H25.5V51.7599H44.5V72.6199ZM29.5 68.6199H40.5V55.7599H29.5V68.6199Z" fill="#3B48CC"/>
<path d="M44.5 97.0001H25.5V76.1201H44.5V97.0001ZM29.5 93.0001H40.5V80.1201H29.5V93.0001Z" fill="#3B48CC"/>
<path d="M97 23.88H48V3H97V23.88ZM52 19.88H93V7H52V19.88Z" fill="#3B48CC"/>
<path d="M97 48.2399H48V27.3799H97V48.2399ZM52 44.2399H93V31.3799H52V44.2399Z" fill="#3B48CC"/>
<path d="M97 72.6199H48V51.7599H97V72.6199ZM52 68.6199H93V55.7599H52V68.6199Z" fill="#3B48CC"/>
<path d="M97 97.0001H48V76.1201H97V97.0001ZM52 93.0001H93V80.1201H52V93.0001Z" fill="#3B48CC"/>
</svg>
