<svg width="100" height="100" viewBox="0 0 100 100" fill="none" xmlns="http://www.w3.org/2000/svg">
<g clip-path="url(#clip0_5767_4705)">
<path d="M89.0096 8H10.0496C9.60401 8 9.1767 8.177 8.86164 8.49206C8.54657 8.80712 8.36958 9.23444 8.36958 9.68V63.44C8.36958 63.8856 8.54657 64.3129 8.86164 64.6279C9.1767 64.943 9.60401 65.12 10.0496 65.12H41.9696V61.76H36.9296V51.68H45.3296V48.32H36.9296V36.56H87.3296V44.96H90.6896V9.68C90.6896 9.23444 90.5126 8.80712 90.1975 8.49206C89.8824 8.177 89.4551 8 89.0096 8V8ZM16.7696 61.76H11.7296V23.12H16.7696V61.76ZM16.7696 19.76H11.7296V11.36H16.7696V19.76ZM33.5696 61.76H20.1296V51.68H33.5696V61.76ZM33.5696 48.32H20.1296V36.56H33.5696V48.32ZM33.5696 33.2H20.1296V23.12H33.5696V33.2ZM20.1296 19.76V11.36H87.3296V19.76H20.1296ZM36.9296 33.2V23.12H87.3296V33.2H36.9296Z" fill="#A166FF"/>
<path d="M87.3128 80.24C86.0935 79.3615 84.6826 78.7857 83.1968 78.56C83.7385 76.5212 84.0096 74.42 84.0032 72.3104C84.0032 72.0752 84.0032 71.84 84.0032 71.6216C85.3118 71.4576 86.553 70.9472 87.5984 70.1432C88.766 69.2005 89.7277 68.0283 90.4241 66.699C91.1205 65.3698 91.5368 63.9118 91.6472 62.4152L88.2872 62.0624C88.2228 63.0988 87.9483 64.1113 87.4804 65.0384C87.0125 65.9654 86.3611 66.7877 85.5656 67.4552C85.011 67.883 84.3586 68.1659 83.6672 68.2784C83.2591 65.5915 82.3654 63.0013 81.0296 60.6344C82.9596 59.829 84.5872 58.4366 85.6818 56.6546C86.7763 54.8725 87.2823 52.7912 87.128 50.7056L83.768 50.8232C83.8856 54.4184 81.7352 57.4592 78.9296 57.6776C78.4177 57.0972 77.8555 56.5631 77.2496 56.0816C77.1786 54.2186 76.6967 52.3943 75.8384 50.7392C77.145 48.5936 77.8689 46.144 77.9384 43.6328C78.4474 43.3389 78.8704 42.9165 79.1651 42.408C79.4599 41.8994 79.6161 41.3225 79.6181 40.7347C79.6201 40.1469 79.4679 39.5689 79.1766 39.0583C78.8854 38.5477 78.4653 38.1225 77.9583 37.8251C77.4513 37.5277 76.8752 37.3684 76.2874 37.3633C75.6996 37.3582 75.1208 37.5073 74.6087 37.7958C74.0966 38.0844 73.6692 38.5022 73.3691 39.0076C73.0689 39.513 72.9067 40.0883 72.8984 40.676C72.9078 41.2567 73.0674 41.825 73.3619 42.3255C73.6563 42.826 74.0755 43.2417 74.5784 43.532C74.4743 44.991 74.1632 46.4278 73.6544 47.7992C73.0269 47.141 72.2722 46.617 71.4362 46.259C70.6002 45.901 69.7003 45.7164 68.7908 45.7164C67.8814 45.7164 66.9814 45.901 66.1454 46.259C65.3094 46.617 64.5548 47.141 63.9272 47.7992C63.4037 46.4313 63.0867 44.9932 62.9864 43.532C63.485 43.2245 63.8945 42.7919 64.1743 42.2772C64.4542 41.7626 64.5945 41.1837 64.5816 40.598C64.5686 40.0124 64.4028 39.4402 64.1005 38.9385C63.7982 38.4367 63.37 38.0226 62.8583 37.7374C62.3466 37.4522 61.7692 37.3057 61.1834 37.3125C60.5976 37.3193 60.0238 37.4792 59.5189 37.7762C59.0139 38.0732 58.5954 38.4971 58.3049 39.0057C58.0143 39.5144 57.8618 40.0902 57.8624 40.676C57.861 41.2867 58.026 41.8862 58.3398 42.4102C58.6536 42.9341 59.1042 43.3626 59.6432 43.6496C59.6916 46.1876 60.4228 48.6656 61.76 50.8232C60.9093 52.4812 60.4279 54.3038 60.3488 56.1656C59.7403 56.6749 59.1781 57.2371 58.6688 57.8456C55.88 57.5432 53.7632 54.4856 53.9312 50.8736L50.5712 50.7224C50.3827 52.8264 50.8666 54.936 51.9535 56.7475C53.0403 58.5589 54.674 59.9787 56.6192 60.8024C55.2921 63.1416 54.4038 65.7037 53.9984 68.3624C53.3114 68.263 52.6626 67.9849 52.1168 67.556C51.3214 66.8885 50.6699 66.0662 50.202 65.1392C49.7342 64.2121 49.4597 63.1996 49.3952 62.1632L46.0352 62.516C46.1457 64.0126 46.5619 65.4706 47.2584 66.7998C47.9548 68.1291 48.9165 69.3013 50.084 70.244C51.1251 71.0446 52.3599 71.5547 53.6624 71.7224C53.6624 71.9408 53.6624 72.176 53.6624 72.4112C53.6577 74.5671 53.9402 76.714 54.5024 78.7952C52.5904 78.9893 50.7922 79.7957 49.3755 81.0944C47.9588 82.393 46.9994 84.1145 46.64 86.0024L50 86.456C50.3142 85.2005 51.0384 84.0858 52.0579 83.2884C53.0774 82.4911 54.3338 82.0568 55.628 82.0544C55.88 82.6424 56.1656 83.2304 56.468 83.7344C59.3408 88.9424 63.776 91.9328 68.6144 91.9328C71.2487 91.8067 73.8018 90.9806 76.0106 89.5395C78.2194 88.0985 80.0041 86.0946 81.1808 83.7344C81.5218 83.1497 81.8248 82.5436 82.088 81.92C83.294 81.9728 84.4598 82.3692 85.448 83.0624C86.0412 83.4332 86.5507 83.9235 86.944 84.502C87.3374 85.0804 87.606 85.7345 87.7328 86.4224L91.0928 85.9688C90.9016 84.8016 90.466 83.688 89.8146 82.7007C89.1632 81.7135 88.3107 80.875 87.3128 80.24V80.24ZM68.8328 49.16C70.7984 49.16 72.6464 51.1256 73.4864 53.7464C73.1999 53.6044 72.9021 53.4864 72.596 53.3936C72.0519 53.2677 71.4862 53.2673 70.9419 53.3924C70.3976 53.5176 69.8889 53.765 69.4544 54.116C69.2612 54.2323 69.076 54.3614 68.9 54.5024C68.6593 54.3946 68.4287 54.2653 68.2112 54.116C67.7773 53.7833 67.2751 53.5505 66.7408 53.4343C66.2064 53.3182 65.653 53.3215 65.12 53.444C64.8194 53.5368 64.5272 53.6549 64.2464 53.7968C65.12 51.176 66.884 49.2104 68.8496 49.2104L68.8328 49.16ZM57.0728 72.3608C57.0728 65.036 60.8024 58.484 65.96 56.6528L66.4808 56.972C66.6992 57.1064 66.9344 57.2576 67.2032 57.392V74.9648C66.8865 75.0644 66.5822 75.1997 66.296 75.368L58.4 79.9208C57.4803 77.5249 57.0187 74.9775 57.0392 72.4112L57.0728 72.3608ZM68.6312 88.64C65.2712 88.64 62.1632 86.624 59.8784 82.9616L67.9424 78.2912C68.2177 78.1303 68.5308 78.0455 68.8496 78.0455C69.1685 78.0455 69.4816 78.1303 69.7568 78.2912L77.7872 82.928C76.8628 84.5718 75.5397 85.9566 73.9396 86.9548C72.3396 87.953 70.514 88.5325 68.6312 88.64V88.64ZM79.2824 79.9376L71.4368 75.4016C71.1507 75.2333 70.8463 75.098 70.5296 74.9984V57.4592L71.2688 57.0224L71.84 56.72C76.9976 58.5512 80.7104 65.12 80.7104 72.428C80.7075 74.993 80.2231 77.5346 79.2824 79.9208V79.9376Z" fill="#A166FF"/>
</g>
<defs>
<clipPath id="clip0_5767_4705">
<rect width="84" height="84" fill="white" transform="translate(8 8)"/>
</clipPath>
</defs>
</svg>
