<svg width="100" height="100" viewBox="0 0 100 100" fill="none" xmlns="http://www.w3.org/2000/svg">
<path d="M92 41.6135V44.9714H77.1914C72.2732 44.9796 67.3581 44.7274 62.4667 44.2159V44.2159C31.0026 40.8579 8.06768 27.1238 8.06768 10.1493C8.0622 9.44187 8.10709 8.73491 8.202 8.03381H11.56C11.4457 8.73314 11.3895 9.44073 11.3921 10.1493C11.3921 27.51 40.9253 41.6302 77.2417 41.6302L92 41.6135Z" fill="white"/>
<path d="M92 48.3294V51.6873H88.4406C87.324 50.4541 86.0928 49.3298 84.7636 48.3294H92Z" fill="white"/>
<path d="M54.6426 47.7921C54.1054 48.1614 53.6353 48.5308 53.1316 48.9338C52.3809 49.5263 51.6635 50.1597 50.9825 50.831C50.4452 51.3683 49.9247 51.9391 49.4378 52.51C28.1819 54.4073 13.3061 59.1084 8.0509 65.9419V61.0728C15.388 54.8438 28.9542 51.6201 42.2685 49.9747C28.9542 48.2958 15.4048 45.0721 8.0509 38.8431V34.0412C13.7259 41.3448 30.6164 46.2474 54.6426 47.7921Z" fill="white"/>
<path d="M92 48.3462V51.7041H88.4406C87.324 50.4709 86.0928 49.3466 84.7636 48.3462H92Z" fill="white"/>
<path d="M92 34.8975V38.2555H85.049C51.4694 38.2555 26.973 26.8552 26.973 11.1567C26.973 11.1567 26.973 9.22587 26.973 8.08417H30.331C30.331 8.89008 30.331 10.5523 30.331 11.1567C30.331 24.5886 53.8367 34.9815 85.049 34.9815L92 34.8975Z" fill="white"/>
<path d="M45.509 58.8398C44.9492 60.0795 44.4997 61.3661 44.1658 62.6847C24.5553 68.1414 11.3417 78.2992 11.3417 89.901C11.3413 90.5921 11.3918 91.2824 11.4928 91.9661H8.13485C8.03944 91.282 7.99454 90.5917 8.00053 89.901C8.0509 76.1669 23.0946 64.5148 45.509 58.8398Z" fill="white"/>
<path d="M30.331 88.7257C30.331 89.3805 30.331 91.2777 30.331 91.9661H26.973C26.973 90.858 26.973 88.7593 26.973 88.7257C26.973 80.9352 33.0509 74.2025 43.3095 69.4174C43.3135 70.6088 43.4033 71.7983 43.5781 72.9768C35.2504 77.0903 30.331 82.5638 30.331 88.7257Z" fill="white"/>
<path d="M69.3337 46.6336C64.8508 46.6336 60.4685 47.9629 56.741 50.4535C53.0136 52.9441 50.1084 56.4841 48.3928 60.6258C46.6773 64.7676 46.2284 69.325 47.103 73.7218C47.9776 78.1186 50.1363 82.1574 53.3063 85.3273C56.4762 88.4972 60.5149 90.656 64.9118 91.5306C69.3086 92.4051 73.866 91.9563 78.0077 90.2407C82.1494 88.5252 85.6894 85.62 88.18 81.8925C90.6706 78.1651 92 73.7828 92 69.2998C91.9911 63.2911 89.6002 57.531 85.3514 53.2822C81.1026 49.0334 75.3425 46.6425 69.3337 46.6336ZM87.8025 75.1763C87.2383 76.9731 86.4002 78.6721 85.3176 80.2132H76.9227V83.5712H82.3626C78.8112 86.8133 74.1761 88.6109 69.3673 88.6109C64.5585 88.6109 59.9234 86.8133 56.372 83.5712H58.4203V80.2132H53.3834C52.3009 78.6721 51.4627 76.9731 50.8985 75.1763H58.4203V71.8183H50.1933C49.9695 70.1468 49.9695 68.4529 50.1933 66.7814H60.0993V63.4234H50.9489C51.5131 61.6266 52.3512 59.9276 53.4338 58.3864H71.9026V55.0285H56.3384C59.8899 51.7863 64.525 49.9888 69.3337 49.9888C74.1425 49.9888 78.7776 51.7863 82.3291 55.0285H76.8891C76.4439 55.0285 76.0168 55.2054 75.7019 55.5202C75.3871 55.8351 75.2102 56.2622 75.2102 56.7075V65.1024C75.2102 65.5477 75.3871 65.9747 75.7019 66.2896C76.0168 66.6045 76.4439 66.7814 76.8891 66.7814H85.2841C85.7294 66.7814 86.1564 66.6045 86.4713 66.2896C86.7861 65.9747 86.963 65.5477 86.963 65.1024V61.4422C88.0714 63.9134 88.6436 66.5914 88.642 69.2998C88.6457 70.1422 88.5896 70.9838 88.4741 71.8183H76.8891V75.1763H87.8025ZM83.689 58.3864V63.4234H78.6521V58.3864H83.689Z" fill="white"/>
<path d="M71.8522 63.4234H63.4573V66.7814H71.8522V63.4234Z" fill="white"/>
<path d="M71.8522 83.5712H63.4573C63.012 83.5712 62.585 83.3943 62.2701 83.0794C61.9552 82.7645 61.7783 82.3375 61.7783 81.8922V73.4973C61.7783 73.052 61.9552 72.6249 62.2701 72.3101C62.585 71.9952 63.012 71.8183 63.4573 71.8183H71.8522C72.2975 71.8183 72.7246 71.9952 73.0394 72.3101C73.3543 72.6249 73.5312 73.052 73.5312 73.4973V81.8922C73.5312 82.3375 73.3543 82.7645 73.0394 83.0794C72.7246 83.3943 72.2975 83.5712 71.8522 83.5712ZM65.1363 80.2132H70.1732V75.1763H65.1363V80.2132Z" fill="white"/>
</svg>
