<svg width="100" height="100" viewBox="0 0 100 100" fill="none" xmlns="http://www.w3.org/2000/svg">
<g opacity="0.8">
<path d="M50.5546 21.5862L33.8023 35.2053L36.0571 37.9788L52.8094 24.3597L50.5546 21.5862Z" fill="#A166FF"/>
<path d="M36.0473 62.0104L33.7925 64.7839L50.5448 78.403L52.7996 75.6295L36.0473 62.0104Z" fill="#A166FF"/>
<path d="M48.9006 54.4461L47.7688 57.8366L74.571 66.7837L75.7029 63.3932L48.9006 54.4461Z" fill="#A166FF"/>
<path d="M74.5773 33.2264L47.7766 42.1782L48.9091 45.5686L75.7097 36.6168L74.5773 33.2264Z" fill="#A166FF"/>
<path d="M58.1668 23.8544L55.2167 25.8729L76.9955 57.7039L79.9456 55.6854L58.1668 23.8544Z" fill="#A166FF"/>
<path d="M81.2587 29.6255C75.2536 24.9072 65.7991 18.0085 65.7098 17.937L67.8723 15.0417C67.9796 15.0417 77.4876 22.0476 83.5464 26.8196L81.2587 29.6255Z" fill="#A166FF"/>
<path d="M66.7643 26.6587H51.68C51.206 26.6587 50.7514 26.4704 50.4162 26.1353C50.0811 25.8001 49.8928 25.3455 49.8928 24.8715V9.78723C49.8928 9.31323 50.0811 8.85864 50.4162 8.52347C50.7514 8.1883 51.206 8 51.68 8H66.7643C67.2383 8 67.6929 8.1883 68.028 8.52347C68.3632 8.85864 68.5515 9.31323 68.5515 9.78723V24.8715C68.5515 25.3455 68.3632 25.8001 68.028 26.1353C67.6929 26.4704 67.2383 26.6587 66.7643 26.6587ZM53.4672 23.0843H64.977V11.5745H53.4672V23.0843Z" fill="#A166FF"/>
<path d="M77.0027 42.2942L55.2295 74.129L58.1799 76.1469L79.9531 44.3121L77.0027 42.2942Z" fill="#A166FF"/>
<path d="M67.8724 84.9583L65.7813 82.063C65.8707 82.063 75.3251 75.0928 81.3302 70.3745L83.4749 73.2341C77.4162 77.9524 67.8724 84.8869 67.8724 84.9583Z" fill="#A166FF"/>
<path d="M66.7643 92H51.68C51.206 92 50.7514 91.8117 50.4162 91.4765C50.0811 91.1413 49.8928 90.6867 49.8928 90.2127V75.1285C49.8928 74.6545 50.0811 74.1999 50.4162 73.8647C50.7514 73.5295 51.206 73.3412 51.68 73.3412H66.7643C67.2383 73.3412 67.6929 73.5295 68.028 73.8647C68.3632 74.1999 68.5515 74.6545 68.5515 75.1285V90.2127C68.5515 90.6867 68.3632 91.1413 68.028 91.4765C67.6929 91.8117 67.2383 92 66.7643 92ZM53.4672 88.4255H64.977V76.9157H53.4672V88.4255Z" fill="#A166FF"/>
<path d="M90.2128 73.5736H75.1285C74.6545 73.5736 74.1999 73.3853 73.8647 73.0502C73.5296 72.715 73.3413 72.2604 73.3413 71.7864V56.7022C73.3413 56.2281 73.5296 55.7736 73.8647 55.4384C74.1999 55.1032 74.6545 54.9149 75.1285 54.9149H90.2128C90.6868 54.9149 91.1414 55.1032 91.4765 55.4384C91.8117 55.7736 92 56.2281 92 56.7022V71.7864C92 72.2604 91.8117 72.715 91.4765 73.0502C91.1414 73.3853 90.6868 73.5736 90.2128 73.5736ZM76.9157 69.9992H88.4255V58.4894H76.9157V69.9992Z" fill="#A166FF"/>
<path d="M90.2128 45.0851H75.1285C74.6545 45.0851 74.1999 44.8968 73.8647 44.5616C73.5296 44.2265 73.3413 43.7719 73.3413 43.2979V28.2136C73.3413 27.7396 73.5296 27.285 73.8647 26.9499C74.1999 26.6147 74.6545 26.4264 75.1285 26.4264H90.2128C90.6868 26.4264 91.1414 26.6147 91.4765 26.9499C91.8117 27.285 92 27.7396 92 28.2136V43.2979C92 43.7719 91.8117 44.2265 91.4765 44.5616C91.1414 44.8968 90.6868 45.0851 90.2128 45.0851ZM76.9157 41.5106H88.4255V30.0009H76.9157V41.5106Z" fill="#A166FF"/>
<path d="M48.32 65.1915H9.78723C9.31323 65.1915 8.85864 65.0032 8.52347 64.668C8.1883 64.3329 8 63.8783 8 63.4043V36.5958C8 36.1218 8.1883 35.6672 8.52347 35.332C8.85864 34.9968 9.31323 34.8085 9.78723 34.8085H48.32C48.794 34.8085 49.2486 34.9968 49.5838 35.332C49.9189 35.6672 50.1072 36.1218 50.1072 36.5958V63.4043C50.1072 63.8783 49.9189 64.3329 49.5838 64.668C49.2486 65.0032 48.794 65.1915 48.32 65.1915ZM11.5745 61.617H46.5328V38.383H11.5745V61.617Z" fill="#A166FF"/>
<path d="M18.5268 57.2562V42.1719H23.0843C23.898 42.12 24.7122 42.267 25.4564 42.6001C26.2006 42.9333 26.8525 43.4427 27.3558 44.0843C28.4312 45.7497 28.9391 47.7184 28.8034 49.6962C28.9432 51.6832 28.442 53.6627 27.3736 55.3439C26.8864 55.9806 26.2502 56.488 25.521 56.8215C24.7918 57.1549 23.9919 57.3042 23.1915 57.2562H18.5268ZM21.583 44.4954V54.9328H22.8698C23.3019 54.9476 23.7294 54.8395 24.1027 54.6213C24.4759 54.403 24.7797 54.0835 24.9787 53.6996C25.5058 52.5406 25.745 51.2714 25.6758 50V49.5532C25.7734 48.234 25.5335 46.9116 24.9787 45.7107C24.7746 45.3245 24.4641 45.0048 24.0841 44.7894C23.704 44.5741 23.2703 44.472 22.8341 44.4954H21.583Z" fill="#A166FF"/>
<path d="M33.5575 50.5362C32.6585 50.0906 31.8707 49.4494 31.2519 48.6596C30.7697 47.9362 30.526 47.08 30.5549 46.2111C30.5345 45.4004 30.7453 44.6008 31.1626 43.9055C31.564 43.2495 32.1393 42.7175 32.8247 42.3685C33.5816 42.0016 34.4143 41.8179 35.2553 41.8323C36.4368 41.8434 37.6017 42.1117 38.6689 42.6187V44.9242C37.6775 44.5312 36.6252 44.3135 35.5592 44.2808C35.0435 44.2464 34.5336 44.4057 34.1294 44.7276C33.9516 44.8863 33.8113 45.0824 33.7186 45.3018C33.6259 45.5213 33.583 45.7586 33.5932 45.9966C33.5802 46.3934 33.6996 46.7833 33.9328 47.1047C34.302 47.5068 34.7449 47.8344 35.2375 48.0698L36.417 48.6953C37.06 49.0334 37.66 49.4474 38.2043 49.9285C38.6297 50.3018 38.9657 50.766 39.1872 51.2868C39.4124 51.8552 39.5217 52.4628 39.5089 53.074C39.5393 53.6868 39.435 54.2988 39.2034 54.8669C38.9718 55.4351 38.6186 55.9456 38.1685 56.3625C37.1312 57.217 35.8109 57.6507 34.4689 57.5779C33.7824 57.574 33.0986 57.49 32.4315 57.3277C31.81 57.2018 31.2086 56.9914 30.6443 56.7021V54.4323C31.2251 54.6485 31.8229 54.8159 32.4315 54.9328C33.0181 55.0666 33.6171 55.1385 34.2187 55.1472C34.7903 55.188 35.3568 55.0162 35.8094 54.6647C35.9964 54.4827 36.1413 54.2621 36.2339 54.0181C36.3266 53.7742 36.3647 53.513 36.3455 53.2528C36.3565 52.8395 36.2238 52.4353 35.9702 52.1089C35.6083 51.7187 35.1783 51.3977 34.7013 51.1617L33.5575 50.5362Z" fill="#A166FF"/>
</g>
</svg>
