<svg width="100" height="100" viewBox="0 0 100 100" fill="none" xmlns="http://www.w3.org/2000/svg">
<path d="M85.6643 33.8569H85.4706V85.5148H14.441V78.8477H14.2472C13.2083 78.8288 12.181 78.6266 11.2123 78.2504V87.1292C11.2123 87.5573 11.3824 87.9679 11.6852 88.2706C11.9879 88.5734 12.3985 88.7435 12.8267 88.7435H87.0849C87.513 88.7435 87.9237 88.5734 88.2264 88.2706C88.5291 87.9679 88.6992 87.5573 88.6992 87.1292V33.3081C87.7296 33.6747 86.701 33.8608 85.6643 33.8569V33.8569ZM87.0849 11.2566H12.8267C12.3985 11.2566 11.9879 11.4267 11.6852 11.7294C11.3824 12.0322 11.2123 12.4428 11.2123 12.8709V62.1074C12.182 61.7407 13.2106 61.5546 14.2472 61.5585H14.441V14.4852H85.4706V16.487H85.6643C86.7018 16.4731 87.7323 16.6595 88.6992 17.0358V12.8709C88.6992 12.4428 88.5291 12.0322 88.2264 11.7294C87.9237 11.4267 87.513 11.2566 87.0849 11.2566Z" fill="white"/>
<path d="M85.6645 18.8906C83.999 18.8906 82.4017 19.5522 81.2241 20.7299C80.0464 21.9076 79.3848 23.5048 79.3848 25.1703C79.3677 26.1368 79.5954 27.092 80.0467 27.9469L53.0393 55.3902C52.5747 55.1459 52.0811 54.9615 51.5702 54.8413V42.0883C52.7 41.7869 53.7229 41.1753 54.5231 40.3227C55.3233 39.4701 55.8688 38.4105 56.098 37.2639C56.3271 36.1173 56.2308 34.9294 55.8198 33.8347C55.4088 32.7401 54.6996 31.7823 53.7724 31.0698C52.8452 30.3574 51.7372 29.9186 50.5736 29.8033C49.41 29.688 48.2373 29.9008 47.1884 30.4174C46.1394 30.934 45.256 31.734 44.6382 32.7267C44.0204 33.7195 43.6927 34.8653 43.6924 36.0346C43.6881 36.7284 43.8084 37.4173 44.0475 38.0686L17.2177 64.6563C16.0095 64.0101 14.6227 63.7778 13.2698 63.9952C11.9169 64.2126 10.6727 64.8676 9.72775 65.8599C8.78281 66.8521 8.1893 68.1268 8.03821 69.4887C7.88711 70.8506 8.18676 72.2244 8.89122 73.3996C9.59568 74.5749 10.6661 75.4867 11.9384 75.9954C13.2107 76.504 14.6147 76.5814 15.9352 76.2157C17.2557 75.85 18.4199 75.0614 19.2493 73.9707C20.0787 72.88 20.5275 71.5475 20.5271 70.1772C20.5143 69.0337 20.1846 67.916 19.5746 66.9486L45.9363 40.8614C46.6459 41.4582 47.4868 41.8786 48.39 42.0883V54.8413C47.1263 55.1824 46.0017 55.9119 45.1749 56.9267C44.3481 57.9414 43.8609 59.1903 43.7822 60.4969C43.7034 61.8034 44.037 63.1017 44.7359 64.2085C45.4348 65.3152 46.4637 66.1745 47.6773 66.665C48.8909 67.1555 50.2278 67.2524 51.4995 66.942C52.7711 66.6317 53.9131 65.9298 54.7643 64.9354C55.6155 63.941 56.1329 62.7043 56.2433 61.4001C56.3538 60.0958 56.0518 58.7897 55.38 57.6663L82.2905 30.3845C83.105 30.9211 84.0334 31.26 85.002 31.3744C85.9706 31.4888 86.9525 31.3754 87.8695 31.0433C88.7865 30.7111 89.6132 30.1694 90.2839 29.4614C90.9546 28.7533 91.4507 27.8984 91.7326 26.9647C92.0145 26.0311 92.0745 25.0445 91.9078 24.0835C91.7411 23.1226 91.3523 22.2139 90.7724 21.4297C90.1925 20.6456 89.4375 20.0077 88.5675 19.5669C87.6975 19.1261 86.7366 18.8945 85.7613 18.8906H85.6645ZM14.2474 73.2122C13.6478 73.209 13.0627 73.0283 12.5657 72.6928C12.0687 72.3574 11.6823 71.8823 11.455 71.3275C11.2278 70.7727 11.17 70.163 11.2889 69.5753C11.4078 68.9877 11.6982 68.4484 12.1232 68.0256C12.5483 67.6028 13.0891 67.3153 13.6774 67.1995C14.2656 67.0837 14.875 67.1448 15.4286 67.3749C15.9823 67.6051 16.4553 67.9941 16.7881 68.4928C17.1208 68.9916 17.2984 69.5777 17.2984 70.1772C17.2984 70.5772 17.2194 70.9731 17.0659 71.3424C16.9124 71.7117 16.6874 72.0469 16.4038 72.329C16.1203 72.611 15.7838 72.8342 15.4138 72.9858C15.0437 73.1373 14.6473 73.2143 14.2474 73.2122V73.2122ZM46.921 36.083C46.9115 35.4829 47.0802 34.8934 47.4057 34.3891C47.7312 33.8848 48.1989 33.4884 48.7497 33.2499C49.3005 33.0114 49.9097 32.9416 50.5001 33.0494C51.0906 33.1571 51.6359 33.4374 52.067 33.855C52.4982 34.2726 52.7958 34.8087 52.9223 35.3954C53.0488 35.9821 52.9985 36.5932 52.7777 37.1513C52.5569 37.7095 52.1756 38.1896 51.6819 38.531C51.1883 38.8725 50.6045 39.0598 50.0044 39.0695V39.0695C49.1994 39.0695 48.4275 38.7498 47.8584 38.1806C47.2892 37.6114 46.9694 36.8395 46.9694 36.0346L46.921 36.083ZM49.9559 63.9137C49.3525 63.9169 48.7617 63.7411 48.2582 63.4085C47.7547 63.0759 47.3611 62.6015 47.1272 62.0452C46.8934 61.4889 46.8297 60.8758 46.9443 60.2833C47.0589 59.6909 47.3466 59.1457 47.771 58.7168C48.1955 58.2878 48.7375 57.9943 49.3288 57.8735C49.92 57.7526 50.5337 57.8098 51.0925 58.0378C51.6512 58.2657 52.1297 58.6543 52.4676 59.1542C52.8056 59.6542 52.9876 60.2431 52.9908 60.8465V60.8465C52.9929 61.2472 52.9161 61.6444 52.7648 62.0154C52.6134 62.3863 52.3904 62.7239 52.1086 63.0087C51.8268 63.2935 51.4916 63.52 51.1223 63.6753C50.7529 63.8306 50.3566 63.9116 49.9559 63.9137V63.9137ZM85.6645 28.2052C85.061 28.2084 84.4702 28.0326 83.9667 27.7C83.4632 27.3674 83.0696 26.8929 82.8358 26.3367C82.6019 25.7804 82.5382 25.1672 82.6528 24.5748C82.7674 23.9823 83.0551 23.4372 83.4795 23.0082C83.904 22.5793 84.4461 22.2858 85.0373 22.165C85.6285 22.0441 86.2423 22.1013 86.801 22.3292C87.3597 22.5572 87.8383 22.9457 88.1762 23.4457C88.5141 23.9456 88.6962 24.5346 88.6994 25.138V25.138C88.6994 25.9459 88.3807 26.7212 87.8124 27.2955C87.2442 27.8698 86.4723 28.1967 85.6645 28.2052V28.2052Z" fill="white"/>
</svg>
