<svg width="100" height="100" viewBox="0 0 100 100" fill="none" xmlns="http://www.w3.org/2000/svg">
<path d="M50.5546 21.5862L33.8023 35.2053L36.0571 37.9788L52.8094 24.3597L50.5546 21.5862Z" fill="#A166FF"/>
<path d="M36.0473 62.0104L33.7925 64.7839L50.5448 78.403L52.7996 75.6295L36.0473 62.0104Z" fill="#A166FF"/>
<path d="M37.1726 50.534L36.0419 53.925L74.5799 66.7747L75.7106 63.3838L37.1726 50.534Z" fill="#A166FF"/>
<path d="M74.8045 33.0105L36.2118 46.0102L37.3557 49.4059L75.9483 36.4063L74.8045 33.0105Z" fill="#A166FF"/>
<path d="M58.1667 23.8545L55.2167 25.8729L76.9955 57.7039L79.9455 55.6855L58.1667 23.8545Z" fill="#A166FF"/>
<path d="M81.2587 29.6255C75.2536 24.9072 65.7992 18.0085 65.7098 17.937L67.8724 15.0417C67.9796 15.0417 77.4877 22.0477 83.5464 26.8196L81.2587 29.6255Z" fill="#A166FF"/>
<path d="M66.7642 26.6587H51.68C51.206 26.6587 50.7514 26.4704 50.4162 26.1353C50.0811 25.8001 49.8928 25.3455 49.8928 24.8715V9.78723C49.8928 9.31323 50.0811 8.85864 50.4162 8.52347C50.7514 8.1883 51.206 8 51.68 8H66.7642C67.2383 8 67.6928 8.1883 68.028 8.52347C68.3632 8.85864 68.5515 9.31323 68.5515 9.78723V24.8715C68.5515 25.3455 68.3632 25.8001 68.028 26.1353C67.6928 26.4704 67.2383 26.6587 66.7642 26.6587ZM53.4672 23.0843H64.977V11.5745H53.4672V23.0843Z" fill="#A166FF"/>
<path d="M77.0027 42.2942L55.2294 74.129L58.1798 76.1469L79.9531 44.3121L77.0027 42.2942Z" fill="#A166FF"/>
<path d="M67.8724 84.9583L65.7813 82.063C65.8707 82.063 75.3251 75.0928 81.3302 70.3745L83.4749 73.2341C77.4162 77.9524 67.8724 84.8868 67.8724 84.9583Z" fill="#A166FF"/>
<path d="M66.7642 92H51.68C51.206 92 50.7514 91.8117 50.4162 91.4765C50.0811 91.1414 49.8928 90.6868 49.8928 90.2128V75.1285C49.8928 74.6545 50.0811 74.1999 50.4162 73.8647C50.7514 73.5296 51.206 73.3413 51.68 73.3413H66.7642C67.2383 73.3413 67.6928 73.5296 68.028 73.8647C68.3632 74.1999 68.5515 74.6545 68.5515 75.1285V90.2128C68.5515 90.6868 68.3632 91.1414 68.028 91.4765C67.6928 91.8117 67.2383 92 66.7642 92ZM53.4672 88.4255H64.977V76.9157H53.4672V88.4255Z" fill="#A166FF"/>
<path d="M90.2128 73.5736H75.1285C74.6545 73.5736 74.1999 73.3853 73.8647 73.0501C73.5296 72.715 73.3413 72.2604 73.3413 71.7864V56.7021C73.3413 56.2281 73.5296 55.7735 73.8647 55.4384C74.1999 55.1032 74.6545 54.9149 75.1285 54.9149H90.2128C90.6868 54.9149 91.1414 55.1032 91.4765 55.4384C91.8117 55.7735 92 56.2281 92 56.7021V71.7864C92 72.2604 91.8117 72.715 91.4765 73.0501C91.1414 73.3853 90.6868 73.5736 90.2128 73.5736ZM76.9157 69.9991H88.4255V58.4894H76.9157V69.9991Z" fill="#A166FF"/>
<path d="M90.2128 45.0851H75.1285C74.6545 45.0851 74.1999 44.8968 73.8647 44.5616C73.5296 44.2265 73.3413 43.7719 73.3413 43.2979V28.2136C73.3413 27.7396 73.5296 27.285 73.8647 26.9499C74.1999 26.6147 74.6545 26.4264 75.1285 26.4264H90.2128C90.6868 26.4264 91.1414 26.6147 91.4765 26.9499C91.8117 27.285 92 27.7396 92 28.2136V43.2979C92 43.7719 91.8117 44.2265 91.4765 44.5616C91.1414 44.8968 90.6868 45.0851 90.2128 45.0851ZM76.9157 41.5106H88.4255V30.0009H76.9157V41.5106Z" fill="#A166FF"/>
<path d="M36.5957 65.1915H9.78723C9.31323 65.1915 8.85864 65.0032 8.52347 64.668C8.1883 64.3328 8 63.8783 8 63.4042V36.5957C8 36.1217 8.1883 35.6671 8.52347 35.332C8.85864 34.9968 9.31323 34.8085 9.78723 34.8085H36.5957C37.0697 34.8085 37.5243 34.9968 37.8595 35.332C38.1947 35.6671 38.383 36.1217 38.383 36.5957V63.4042C38.383 63.8783 38.1947 64.3328 37.8595 64.668C37.5243 65.0032 37.0697 65.1915 36.5957 65.1915ZM11.5745 61.617H34.8085V38.383H11.5745V61.617Z" fill="#A166FF"/>
</svg>
