<svg width="100" height="100" viewBox="0 0 100 100" fill="none" xmlns="http://www.w3.org/2000/svg">
<path d="M81.28 54.08H74.48V51.36H81.28V18.72H48.64V25.52H45.92V18.72C45.92 17.9986 46.2066 17.3068 46.7167 16.7967C47.2268 16.2866 47.9186 16 48.64 16H81.28C82.0014 16 82.6932 16.2866 83.2033 16.7967C83.7134 17.3068 84 17.9986 84 18.72V51.36C84 52.0814 83.7134 52.7732 83.2033 53.2833C82.6932 53.7934 82.0014 54.08 81.28 54.08Z" fill="white"/>
<path d="M51.36 84H18.72C17.9986 84 17.3068 83.7134 16.7967 83.2033C16.2866 82.6932 16 82.0014 16 81.28V48.64C16 47.9186 16.2866 47.2267 16.7967 46.7167C17.3068 46.2066 17.9986 45.92 18.72 45.92H25.52V48.64H18.72V81.28H51.36V74.48H54.08V81.28C54.08 82.0014 53.7934 82.6932 53.2833 83.2033C52.7732 83.7134 52.0814 84 51.36 84Z" fill="white"/>
<path d="M71.7736 37.76V35.04H67.6936C67.6376 34.3373 67.3331 33.6775 66.8346 33.179C66.3361 32.6805 65.6763 32.376 64.9736 32.32V28.24H62.2536V32.32H58.1736V28.24H55.4536V32.32H51.3736V28.24H48.6536V32.32H44.5736V28.24H41.8536V32.32H37.7736V28.24H35.0536V32.32C34.3509 32.376 33.6911 32.6805 33.1926 33.179C32.6941 33.6775 32.3896 34.3373 32.3336 35.04H28.2536V37.76H32.3336V41.84H28.2536V44.56H32.3336V48.64H28.2536V51.36H32.3336V55.44H28.2536V58.16H32.3336V62.24H28.2536V64.96H32.3336C32.3896 65.6627 32.6941 66.3225 33.1926 66.821C33.6911 67.3195 34.3509 67.624 35.0536 67.68V71.76H37.7736V67.68H41.8536V71.76H44.5736V67.68H48.6536V71.76H51.3736V67.68H55.4536V71.76H58.1736V67.68H62.2536V71.76H64.9736V67.68C65.6763 67.624 66.3361 67.3195 66.8346 66.821C67.3331 66.3225 67.6376 65.6627 67.6936 64.96H71.7736V62.24H67.6936V58.16H71.7736V55.44H67.6936V51.36H71.7736V48.64H67.6936V44.56H71.7736V41.84H67.6936V37.76H71.7736ZM64.9736 64.7152C64.9736 64.7801 64.9478 64.8424 64.9019 64.8883C64.856 64.9342 64.7937 64.96 64.7288 64.96H35.2984C35.2335 64.96 35.1712 64.9342 35.1253 64.8883C35.0794 64.8424 35.0536 64.7801 35.0536 64.7152V35.2848C35.0536 35.2199 35.0794 35.1576 35.1253 35.1117C35.1712 35.0658 35.2335 35.04 35.2984 35.04H64.7288C64.7937 35.04 64.856 35.0658 64.9019 35.1117C64.9478 35.1576 64.9736 35.2199 64.9736 35.2848V64.7152Z" fill="white"/>
</svg>
