<svg width="100" height="100" viewBox="0 0 100 100" fill="none" xmlns="http://www.w3.org/2000/svg">
<path d="M38.741 57.2499C37.0243 57.2499 35.72 57.1496 35.0735 57.0827H34.8505C34.6019 57.0546 34.37 56.9437 34.192 56.7677C34.0141 56.5918 33.9005 56.3612 33.8696 56.1129C33.7915 55.4552 32.0748 39.8709 40.6472 31.1313C49.2197 22.3916 64.4918 24.1084 65.1606 24.1864C65.4089 24.2173 65.6396 24.3309 65.8155 24.5089C65.9914 24.6868 66.1023 24.9187 66.1304 25.1674C66.2085 25.8251 67.9252 41.3982 59.3528 50.1489C53.3443 56.2912 44.0584 57.2499 38.741 57.2499ZM36.0099 54.9201C39.2092 55.143 51.0256 55.4329 57.7587 48.566C64.4918 41.6991 64.2131 29.671 63.9901 26.271C60.6682 26.1038 48.8852 25.8474 42.1967 32.7254C35.5082 39.6034 35.7869 51.587 36.0099 54.9424V54.9201Z" fill="#D86613"/>
<path d="M35.185 57.1049H35.04H34.8505C34.6019 57.0768 34.37 56.9659 34.192 56.79C34.0141 56.6141 33.9005 56.3834 33.8696 56.1351C33.7915 55.4774 32.0748 39.8932 40.6472 31.1535C49.2197 22.4139 64.4918 24.1083 65.1606 24.1864C65.3499 24.2093 65.5301 24.2804 65.6841 24.3929C65.838 24.5053 65.9606 24.6554 66.04 24.8288C66.1194 25.0021 66.153 25.1929 66.1376 25.383C66.1222 25.573 66.0583 25.7559 65.9521 25.9142C61.7801 32.0372 57.0601 37.7683 51.8505 43.0368C46.9268 48.119 41.5666 52.7593 35.8315 56.9043C35.642 57.0366 35.4161 57.1067 35.185 57.1049ZM61.4373 26.2486C56.5882 26.2486 47.7705 27.0847 42.1967 32.7253C35.9764 39.0683 35.7423 49.8591 35.9207 54.0951C41.0231 50.2717 45.8165 46.0523 50.2564 41.4761C54.9096 36.7623 59.1709 31.6771 62.998 26.2709L61.4373 26.2486Z" fill="#D86613"/>
<path d="M35.9207 54.0505H33.6912V76H35.9207V54.0505Z" fill="#D86613"/>
</svg>
