<svg width="101" height="100" viewBox="0 0 101 100" fill="none" xmlns="http://www.w3.org/2000/svg">
<path d="M50.28 83.88C40.28 83.88 32.76 78.66 28.74 68.8C27.0946 64.6326 26.1159 60.232 25.84 55.76L29.84 55.5C30.0911 59.5377 30.9683 63.5118 32.44 67.28C35.84 75.64 41.84 79.88 50.28 79.88C70.48 79.88 70.78 56.84 70.78 55.88V28.54L50.28 20.28L29.78 28.54V44.38H25.78V27.18C25.7796 26.7795 25.8995 26.388 26.1242 26.0564C26.3488 25.7248 26.6679 25.4682 27.04 25.32L49.54 16.26C50.0152 16.0708 50.5448 16.0708 51.02 16.26L73.52 25.32C73.8922 25.4682 74.2112 25.7248 74.4359 26.0564C74.6605 26.388 74.7804 26.7795 74.78 27.18V55.86C74.78 56.14 74.5 83.88 50.28 83.88Z" fill="#693CC5"/>
<path d="M50.28 75.24C36.76 75.24 33.44 57.7 33.32 56.96C33.3102 56.8402 33.3102 56.7198 33.32 56.6V55.62H37.32V56.4C37.66 58.02 40.72 71.24 50.32 71.24C59.92 71.24 62.94 58 63.28 56.4V35.28L50.28 30L37.28 35.22V44.32H33.28V34C33.2796 33.5994 33.3995 33.208 33.6242 32.8764C33.8488 32.5447 34.1679 32.2882 34.54 32.14L49.54 26.14C50.0152 25.9507 50.5448 25.9507 51.02 26.14L66.02 32.14C66.3922 32.2882 66.7112 32.5447 66.9359 32.8764C67.1605 33.208 67.2804 33.5994 67.28 34V56.6C67.2899 56.7198 67.2899 56.8402 67.28 56.96C67.12 57.7 63.8 75.24 50.28 75.24Z" fill="#693CC5"/>
<path d="M50.2801 97C40.9843 97 31.8974 94.2435 24.1682 89.0791C16.4391 83.9147 10.415 76.5743 6.85771 67.9861C3.30039 59.398 2.36964 49.9479 4.18314 40.8308C5.99665 31.7137 10.473 23.3391 17.046 16.766C23.6191 10.1929 31.9937 5.71662 41.1108 3.90311C50.2279 2.08961 59.678 3.02036 68.2662 6.57768C76.8543 10.135 84.1947 16.1591 89.3591 23.8882C94.5235 31.6173 97.2801 40.7043 97.2801 50C97.2695 62.4619 92.3143 74.4104 83.5024 83.2223C74.6905 92.0343 62.742 96.9894 50.2801 97V97ZM50.2801 7.00002C41.7755 7.00002 33.4618 9.52193 26.3905 14.2468C19.3192 18.9717 13.8078 25.6874 10.5532 33.5446C7.29866 41.4019 6.44712 50.0477 8.10628 58.3889C9.76545 66.7301 13.8608 74.392 19.8745 80.4056C25.8881 86.4193 33.55 90.5146 41.8912 92.1738C50.2323 93.833 58.8782 92.9814 66.7354 89.7268C74.5927 86.4723 81.3083 80.9609 86.0332 73.8895C90.7581 66.8182 93.2801 58.5046 93.2801 50C93.2695 38.599 88.7357 27.6679 80.674 19.6061C72.6122 11.5444 61.6811 7.01061 50.2801 7.00002V7.00002Z" fill="#693CC5"/>
<path d="M46.06 60.7801L43.24 58.0001L51.24 50.0001L43.24 42.0001L46.06 39.1801L55.44 48.5401C55.6274 48.726 55.7762 48.9472 55.8778 49.191C55.9793 49.4347 56.0316 49.6961 56.0316 49.9601C56.0316 50.2241 55.9793 50.4855 55.8778 50.7293C55.7762 50.973 55.6274 51.1942 55.44 51.3801L46.06 60.7801Z" fill="#693CC5"/>
<path d="M54.04 48H12.78V52H54.04V48Z" fill="#693CC5"/>
</svg>
