<svg width="100" height="100" viewBox="0 0 100 100" fill="none" xmlns="http://www.w3.org/2000/svg">
<path d="M81.3007 84H64.5455C64.2891 83.9993 64.0382 83.9261 63.8216 83.789C63.6051 83.6518 63.4317 83.4562 63.3215 83.2248L39.6303 33.68H29.6071C29.2464 33.68 28.9005 33.5367 28.6454 33.2817C28.3904 33.0266 28.2471 32.6807 28.2471 32.32V17.36C28.2471 16.9993 28.3904 16.6534 28.6454 16.3983C28.9005 16.1433 29.2464 16 29.6071 16H50.5511C50.8074 16.0007 51.0583 16.0739 51.2749 16.211C51.4915 16.3482 51.6648 16.5438 51.7751 16.7752L75.3575 66.32H81.3007C81.6614 66.32 82.0073 66.4633 82.2623 66.7183C82.5174 66.9734 82.6607 67.3193 82.6607 67.68V82.64C82.6607 83.0007 82.5174 83.3466 82.2623 83.6017C82.0073 83.8567 81.6614 84 81.3007 84ZM65.4023 81.28H79.9407V69.04H74.5007C74.2443 69.0393 73.9934 68.9661 73.7768 68.829C73.5603 68.6918 73.3869 68.4962 73.2767 68.2648L49.6943 18.72H30.9807V30.96H40.5007C40.757 30.9607 41.0079 31.0339 41.2245 31.171C41.4411 31.3082 41.6144 31.5038 41.7247 31.7352L65.4023 81.28Z" fill="white"/>
<path d="M36.3935 84H18.7135C18.4824 84.0005 18.2549 83.942 18.0527 83.8302C17.8504 83.7184 17.68 83.5568 17.5575 83.3608C17.4276 83.1601 17.3529 82.9287 17.341 82.6899C17.3291 82.4512 17.3803 82.2135 17.4895 82.0008L35.9855 43.3632C36.0957 43.1318 36.2691 42.9362 36.4857 42.7991C36.7022 42.6619 36.9531 42.5887 37.2095 42.588C37.4644 42.5875 37.7143 42.6586 37.9307 42.7933C38.1471 42.928 38.3213 43.1207 38.4335 43.3496L47.2871 61.56C47.3762 61.7445 47.4225 61.9467 47.4225 62.1516C47.4225 62.3565 47.3762 62.5587 47.2871 62.7432L37.6311 83.1432C37.5321 83.392 37.3618 83.606 37.1416 83.7585C36.9215 83.9109 36.6612 83.9949 36.3935 84ZM20.8895 81.28H35.5367L44.5535 62.24L37.2231 47.076L20.8895 81.28Z" fill="white"/>
</svg>
