<svg width="100" height="100" viewBox="0 0 100 100" fill="none" xmlns="http://www.w3.org/2000/svg">
<path d="M48.5047 57.3492C46.7267 57.3492 45.4678 57.2387 45.0482 57.1946H44.8052C44.5613 57.1616 44.3353 57.0481 44.1632 56.872C43.9911 56.696 43.8828 56.4674 43.8555 56.2228C43.656 54.0529 43.6265 51.8708 43.7672 49.6963C43.7672 49.4423 43.7672 49.1441 43.7672 48.857L43.8224 48.2386L46.031 48.4816L45.9758 49.0558C45.9758 49.2877 45.9758 49.5527 45.9758 49.8067C45.866 51.5609 45.866 53.3202 45.9758 55.0743C49.2887 55.3062 60.8619 55.5823 67.5209 48.7797C74.1799 41.9772 73.9038 30.0727 73.6829 26.6935C70.4031 26.4837 58.7747 26.2628 52.2151 33.0102C52.0605 33.1648 51.8839 33.3525 51.7292 33.5292C51.6458 33.6119 51.5683 33.7005 51.4973 33.7942L49.7194 32.4138C49.8088 32.2875 49.9046 32.1659 50.0065 32.0494L50.5366 31.4752C59.0619 22.7732 74.1909 24.518 74.8314 24.5953C75.0774 24.626 75.3059 24.7385 75.4802 24.9148C75.6544 25.091 75.7643 25.3208 75.7922 25.5671C75.8915 26.2628 77.6143 41.6459 69.1111 50.3037C63.1147 56.4326 53.6397 57.3492 48.5047 57.3492Z" fill="#D86613"/>
<path d="M45.1697 57.1836H45.0813H44.8053C44.5613 57.1506 44.3353 57.0371 44.1632 56.861C43.9912 56.6849 43.8829 56.4564 43.8555 56.2118C43.6111 53.5634 43.6111 50.8981 43.8555 48.2497L46.0642 48.4485C45.8942 50.3539 45.8462 52.2683 45.9206 54.1798C50.9641 50.4031 55.705 46.2382 60.0999 41.7232C64.7054 37.0497 68.9265 32.0125 72.7222 26.6604C68.5148 26.4948 58.2337 26.804 52.2152 33.0102C51.955 33.2589 51.7115 33.5245 51.4863 33.8053L49.7305 32.4028C49.9963 32.0709 50.2801 31.7538 50.5808 31.4531C59.084 22.7732 74.213 24.5181 74.8756 24.5954C75.0638 24.6183 75.2429 24.6892 75.3957 24.8014C75.5485 24.9136 75.6698 25.0632 75.748 25.2359C75.8319 25.4114 75.8679 25.606 75.8523 25.7999C75.8368 25.9938 75.7704 26.1802 75.6597 26.3402C71.5175 32.3917 66.8383 38.0576 61.6791 43.2692C56.7932 48.296 51.4799 52.8888 45.7991 56.9958C45.6132 57.1208 45.3937 57.1863 45.1697 57.1836Z" fill="#D86613"/>
<path d="M45.8985 54.1798H43.6899V75.9237H45.8985V54.1798Z" fill="#D86613"/>
<path d="M36.5118 49.0779C34.0389 49.0801 31.621 48.3488 29.5638 46.9765C27.5066 45.6042 25.9026 43.6526 24.9547 41.3686C24.0069 39.0846 23.7578 36.5708 24.2389 34.1451C24.72 31.7195 25.9097 29.491 27.6575 27.7416C29.4053 25.9923 31.6327 24.8006 34.0579 24.3173C36.4832 23.8341 38.9972 24.081 41.2821 25.0268C43.5669 25.9727 45.52 27.5749 46.8941 29.6309C48.2681 31.6869 49.0016 34.1042 49.0016 36.5771C48.9987 39.8897 47.6822 43.066 45.3409 45.4094C42.9995 47.7528 39.8244 49.0721 36.5118 49.0779ZM36.5118 26.2629C34.4753 26.2607 32.4839 26.8627 30.7897 27.9928C29.0954 29.1229 27.7745 30.7302 26.9942 32.6113C26.2138 34.4924 26.0091 36.5627 26.4059 38.5602C26.8026 40.5577 27.7831 42.3926 29.2231 43.8327C30.6632 45.2727 32.4981 46.2532 34.4956 46.65C36.4931 47.0467 38.5634 46.842 40.4445 46.0616C42.3256 45.2813 43.9329 43.9604 45.063 42.2662C46.1931 40.5719 46.7951 38.5805 46.793 36.544C46.79 33.8182 45.7059 31.2048 43.7785 29.2774C41.851 27.3499 39.2377 26.2658 36.5118 26.2629Z" fill="#D86613"/>
<path d="M37.6162 29.9402H35.4076V44.6496H37.6162V29.9402Z" fill="#D86613"/>
<path d="M40.0015 34.512L36.5119 31.0224L33.0222 34.512L31.4541 32.9549L35.7278 28.6813C35.9347 28.4756 36.2146 28.3601 36.5063 28.3601C36.7981 28.3601 37.078 28.4756 37.2849 28.6813L41.5586 32.9549L40.0015 34.512Z" fill="#D86613"/>
</svg>
