<?xml version="1.0" encoding="UTF-8" standalone="no"?>
<!-- Created with Inkscape (http://www.inkscape.org/) -->

<svg
   width="31.716333mm"
   height="45.434273mm"
   viewBox="0 0 31.716333 45.434273"
   version="1.1"
   id="svg1"
   xml:space="preserve"
   sodipodi:docname="alembic.svg"
   inkscape:version="1.4.2 (f4327f4, 2025-05-13)"
   xmlns:inkscape="http://www.inkscape.org/namespaces/inkscape"
   xmlns:sodipodi="http://sodipodi.sourceforge.net/DTD/sodipodi-0.dtd"
   xmlns="http://www.w3.org/2000/svg"
   xmlns:svg="http://www.w3.org/2000/svg"><sodipodi:namedview
     id="namedview1"
     pagecolor="#505050"
     bordercolor="#eeeeee"
     borderopacity="1"
     inkscape:showpageshadow="0"
     inkscape:pageopacity="0"
     inkscape:pagecheckerboard="0"
     inkscape:deskcolor="#505050"
     inkscape:document-units="mm"
     inkscape:zoom="1.0396254"
     inkscape:cx="-47.613303"
     inkscape:cy="304.91752"
     inkscape:window-width="2558"
     inkscape:window-height="1360"
     inkscape:window-x="4713"
     inkscape:window-y="0"
     inkscape:window-maximized="0"
     inkscape:current-layer="layer1" /><defs
     id="defs1" /><g
     inkscape:label="Layer 1"
     inkscape:groupmode="layer"
     id="layer1"
     transform="translate(-76.79423,-24.065544)"><g
       id="g15"
       transform="translate(265.44215,47.845758)"><path
         style="fill:#d0d0d0;fill-opacity:1"
         d="m -184.74532,21.520606 c 0.1819,-0.0734 0.47956,-0.0734 0.66146,0 0.1819,0.0734 0.0331,0.133452 -0.33073,0.133452 -0.3638,0 -0.51263,-0.06005 -0.33073,-0.133452 z m 14.42483,-0.0081 c 0.25743,-0.06708 0.61462,-0.06267 0.79375,0.0098 0.17913,0.07248 -0.0315,0.127361 -0.46806,0.121969 -0.43656,-0.0054 -0.58312,-0.06469 -0.32569,-0.131773 z m 2.15531,-4.84373 c 0,-2.692135 0.0393,-3.793464 0.0873,-2.447396 0.048,1.346068 0.048,3.548724 0,4.894792 -0.048,1.346068 -0.0873,0.24474 -0.0873,-2.447396 z m 11.05426,4.101042 c 0.005,-0.436563 0.0647,-0.583125 0.13177,-0.325694 0.0671,0.257431 0.0627,0.614619 -0.01,0.79375 -0.0725,0.179132 -0.12737,-0.03149 -0.12197,-0.468056 z m -18.79522,-4.101042 c 0,-0.363802 0.06,-0.51263 0.13345,-0.330729 0.0734,0.181901 0.0734,0.479557 0,0.661458 -0.0734,0.181901 -0.13345,0.03307 -0.13345,-0.330729 z m 0.53897,-4.365625 c 0.005,-0.436563 0.0647,-0.583125 0.13177,-0.325694 0.0671,0.257431 0.0627,0.614619 -0.01,0.79375 -0.0725,0.179132 -0.12737,-0.03149 -0.12197,-0.468056 z"
         id="path22" /><path
         style="fill:#b9b9b9;fill-opacity:1"
         d="m -167.81198,21.520606 c 0.1819,-0.0734 0.47955,-0.0734 0.66146,0 0.1819,0.0734 0.0331,0.133452 -0.33073,0.133452 -0.36381,0 -0.51263,-0.06005 -0.33073,-0.133452 z m -3.01222,-2.602897 c 6.9e-4,-1.455208 0.0451,-2.016764 0.0987,-1.247901 0.0536,0.768862 0.0531,1.959487 -10e-4,2.645833 -0.0543,0.686346 -0.0982,0.05728 -0.0975,-1.397932 z m 13.71328,-6.614583 c 0.005,-0.436563 0.0647,-0.583125 0.13177,-0.325694 0.0671,0.257431 0.0627,0.614619 -0.01,0.79375 -0.0725,0.179132 -0.12737,-0.03149 -0.12197,-0.468056 z M -179.6312,0.11024373 c 0.0127,-0.30822451 0.0754,-0.37091922 0.15985,-0.15985244 0.0764,0.1909961 0.067,0.41919923 -0.0209,0.50711807 -0.0879,0.0879188 -0.15046,-0.0683507 -0.13897,-0.34726563 z m 6.90006,-2.22690973 c 0,-0.3638021 0.0601,-0.5126303 0.13345,-0.3307292 0.0734,0.181901 0.0734,0.4795573 0,0.6614583 -0.0734,0.1819011 -0.13345,0.033073 -0.13345,-0.3307291 z m 7.05236,0.348426 c 0.191,-0.07643 0.4192,-0.067031 0.50712,0.020888 0.0879,0.087919 -0.0684,0.1504528 -0.34727,0.1389643 -0.30822,-0.012696 -0.37092,-0.07539 -0.15985,-0.1598523 z"
         id="path21" /><path
         style="fill:#a3a3a3;fill-opacity:1"
         d="m -188.44948,21.520606 c 0.1819,-0.0734 0.47955,-0.0734 0.66146,0 0.1819,0.0734 0.0331,0.133452 -0.33073,0.133452 -0.36381,0 -0.51263,-0.06005 -0.33073,-0.133452 z m 5.74004,-0.164396 c -0.0717,-0.186793 -0.0948,-2.478746 -0.0513,-5.093229 l 0.079,-4.753605 0.0596,4.947734 0.0596,4.947734 1.52135,0.09547 1.52135,0.09547 -1.52965,0.05003 c -1.03955,0.034 -1.57142,-0.05879 -1.65999,-0.289596 z m 5.11261,0.147873 c 0.47555,-0.05889 1.18993,-0.05767 1.5875,0.0027 0.39758,0.06037 0.008,0.10855 -0.86463,0.107065 -0.87313,-0.0015 -1.19842,-0.05088 -0.72287,-0.109765 z m 3.69943,0.01652 c 0.1819,-0.0734 0.47956,-0.0734 0.66146,0 0.1819,0.0734 0.0331,0.133452 -0.33073,0.133452 -0.3638,0 -0.51263,-0.06005 -0.33073,-0.133452 z m 11.24983,-0.0081 c 0.25743,-0.06708 0.61462,-0.06267 0.79375,0.0098 0.17913,0.07248 -0.0315,0.127361 -0.46806,0.121969 -0.43656,-0.0054 -0.58312,-0.06469 -0.32569,-0.131773 z m -9.91038,-16.4015541 c 0.191,-0.07643 0.4192,-0.067031 0.50712,0.020888 0.0879,0.087919 -0.0684,0.1504528 -0.34726,0.1389643 -0.30823,-0.012696 -0.37092,-0.075391 -0.15986,-0.1598523 z"
         id="path20" /><path
         style="fill:#8c8c8c;fill-opacity:1"
         d="m -173.0375,18.785418 c 0,-1.503716 0.076,-2.658036 0.16887,-2.565156 0.18385,0.183853 0.13386,4.996453 -0.0539,5.184166 -0.0633,0.06326 -0.11501,-1.115295 -0.11501,-2.61901 z m -3.77032,-2.821062 c 0.18191,-0.0734 0.47956,-0.0734 0.66146,0 0.1819,0.0734 0.0331,0.133452 -0.33073,0.133452 -0.3638,0 -0.51263,-0.06005 -0.33073,-0.133452 z m 3.57188,-7.9446558 c 0.25466,-0.06655 0.67138,-0.06655 0.92604,0 0.25466,0.06655 0.0463,0.1209999 -0.46302,0.1209999 -0.50932,0 -0.71768,-0.05445 -0.46302,-0.1209999 z m -0.11576,-2.9087733 c 0.191,-0.07643 0.4192,-0.067031 0.50712,0.020888 0.0879,0.087919 -0.0683,0.1504528 -0.34726,0.1389643 -0.30823,-0.012696 -0.37092,-0.075391 -0.15986,-0.1598523 z"
         id="path19" /><path
         style="fill:#767676;fill-opacity:1"
         d="m -181.39646,15.875001 c 0,-2.401094 0.0401,-3.383359 0.0891,-2.182813 0.049,1.200547 0.049,3.165079 0,4.365626 -0.049,1.200547 -0.0891,0.218281 -0.0891,-2.182813 z m 4.20491,2.910417 c 0,-0.800365 0.0496,-1.127787 0.11022,-0.727604 0.0606,0.400182 0.0606,1.055026 0,1.455208 -0.0606,0.400182 -0.11022,0.07276 -0.11022,-0.727604 z m 0.003,-4.365625 c 0.001,-0.873125 0.0509,-1.198415 0.10976,-0.722866 0.0589,0.475549 0.0577,1.189924 -0.003,1.5875 -0.0604,0.397576 -0.10855,0.0085 -0.10706,-0.864634 z m 12.6389,0.507118 c 0.0127,-0.308225 0.0754,-0.370919 0.15985,-0.159853 0.0764,0.190996 0.067,0.4192 -0.0209,0.507118 -0.0879,0.08792 -0.15046,-0.06835 -0.13897,-0.347265 z m -1.11297,-2.425348 c -0.32911,-0.419643 -0.31975,-0.429002 0.0999,-0.09989 0.25466,0.199719 0.46302,0.408078 0.46302,0.46302 0,0.217762 -0.21728,0.0776 -0.56292,-0.363126 z M -181.74787,0.37482707 c 0.0127,-0.30822451 0.0754,-0.37091922 0.15986,-0.15985244 0.0764,0.1909961 0.067,0.41919923 -0.0209,0.50711807 -0.0879,0.0879188 -0.15045,-0.0683507 -0.13897,-0.34726563 z m -3.70416,-3.43958347 c 0.0127,-0.3082245 0.0754,-0.3709192 0.15985,-0.1598524 0.0764,0.1909961 0.067,0.4191992 -0.0209,0.5071181 -0.0879,0.087919 -0.15045,-0.068351 -0.13896,-0.3472657 z"
         id="path18" /><path
         style="fill:#606060;fill-opacity:1"
         d="m -178.48347,16.536459 c 2.6e-4,-2.764896 0.0395,-3.860039 0.0871,-2.433653 0.0477,1.426387 0.0475,3.688575 -4.6e-4,5.027084 -0.0479,1.338509 -0.0869,0.171465 -0.0867,-2.593431 z m 12.87519,2.094619 c 0.0127,-0.308225 0.0754,-0.37092 0.15985,-0.159853 0.0764,0.190996 0.067,0.419199 -0.0209,0.507118 -0.0879,0.08792 -0.15045,-0.06835 -0.13896,-0.347265 z m -11.19954,-1.343805 c 0.18191,-0.0734 0.47956,-0.0734 0.66146,0 0.1819,0.0734 0.0331,0.133452 -0.33073,0.133452 -0.3638,0 -0.51263,-0.06005 -0.33073,-0.133452 z m 14.61823,-13.4184171 c 0,-0.054942 0.20836,-0.2633015 0.46302,-0.4630208 0.41965,-0.3291075 0.42901,-0.3197491 0.0999,0.099895 -0.34564,0.4407292 -0.56292,0.5808872 -0.56292,0.3631258 z m -15.41198,-7.7482504 c 0.1819,-0.073399 0.47956,-0.073399 0.66146,0 0.1819,0.073399 0.0331,0.1334521 -0.33073,0.1334521 -0.3638,0 -0.51263,-0.060053 -0.33073,-0.1334521 z m 0.6665,-2.1247921 c 0.25743,-0.067083 0.61462,-0.062672 0.79375,0.0098 0.17913,0.072476 -0.0315,0.1273618 -0.46806,0.1219697 -0.43656,-0.00539 -0.58312,-0.06469 -0.32569,-0.1317736 z m 9.66879,-1.5848868 c 0.191,-0.07643 0.4192,-0.067031 0.50712,0.020888 0.0879,0.087919 -0.0683,0.1504528 -0.34727,0.1389643 -0.30822,-0.012696 -0.37092,-0.075391 -0.15985,-0.1598523 z m -5.96966,-16.1412276 c 0.25466,-0.06655 0.67138,-0.06655 0.92604,0 0.25466,0.06655 0.0463,0.121 -0.46302,0.121 -0.50932,0 -0.71768,-0.05445 -0.46302,-0.121 z"
         id="path17" /><path
         style="fill:#494949;fill-opacity:1"
         d="m -175.36717,20.769793 c 0.005,-0.436563 0.0647,-0.583125 0.13177,-0.325694 0.0671,0.257431 0.0627,0.614619 -0.01,0.79375 -0.0725,0.179132 -0.12737,-0.03149 -0.12197,-0.468056 z m 1.11657,-4.101042 c 0,-2.692135 0.0393,-3.793464 0.0873,-2.447396 0.048,1.346068 0.048,3.548724 0,4.894792 -0.048,1.346068 -0.0873,0.24474 -0.0873,-2.447396 z m 14.70685,-3.804062 c 0,-0.05494 0.20836,-0.263301 0.46302,-0.46302 0.41964,-0.329108 0.429,-0.319749 0.0999,0.09989 -0.34564,0.44073 -0.56291,0.580888 -0.56291,0.363126 z m -11.64167,-18.5208333 c 0,-0.054942 0.20836,-0.2633015 0.46302,-0.4630208 0.41964,-0.3291075 0.429,-0.3197491 0.0999,0.099895 -0.34565,0.4407292 -0.56292,0.5808871 -0.56292,0.3631258 z"
         id="path16" /><path
         style="fill:#333333;fill-opacity:1"
         d="m -188.64792,21.144007 c 0,-0.295712 1.14244,-5.696116 1.70235,-8.047131 0.56814,-2.385579 0.97111,-1.760941 2.04827,3.175 0.53987,2.473854 0.98839,4.655026 0.99673,4.847048 0.0274,0.630518 -1.16742,0.236742 -1.26002,-0.415277 -0.0708,-0.498775 -0.24854,-0.595313 -1.0958,-0.595313 -0.858,0 -1.03641,0.100237 -1.17726,0.661459 -0.16542,0.659065 -1.21427,0.982302 -1.21427,0.374214 z m 2.77415,-3.483068 c -0.26621,-1.637787 -0.51674,-1.698296 -0.82387,-0.198991 -0.26583,1.29769 -0.25866,1.32347 0.36777,1.32347 0.6039,0 0.62887,-0.06156 0.4561,-1.124479 z m 3.31127,-1.12448 c 0,-4.718402 0.0191,-4.894791 0.52916,-4.894791 0.50712,0 0.52917,0.176389 0.52917,4.233333 v 4.233333 h 1.05833 c 0.9525,0 1.05834,0.06615 1.05834,0.661459 0,0.63206 -0.0706,0.661458 -1.5875,0.661458 h -1.5875 z m 4.23333,0 v -4.894791 h 1.45521 c 1.37583,0 1.45521,0.03608 1.45521,0.661458 0,0.579563 -0.11466,0.661458 -0.92605,0.661458 h -0.92604 v 1.5875 c 0,1.516945 0.0294,1.5875 0.66146,1.5875 0.87925,0 0.93799,0.982256 0.0661,1.106078 -0.51863,0.07366 -0.60562,0.263486 -0.67529,1.47361 l -0.08,1.389062 h 0.93987 c 0.82614,0 0.93987,0.08004 0.93987,0.661459 0,0.625379 -0.0794,0.661458 -1.45521,0.661458 h -1.45521 z m 4.23333,0 c 0,-3.260528 0.0933,-4.894791 0.27946,-4.894791 0.15371,0 0.51667,0.565547 0.80658,1.25677 0.28991,0.691224 0.67931,1.606167 0.86533,2.033205 l 0.33821,0.776434 0.82122,-1.967059 c 1.2994,-3.112439 1.5079,-2.737537 1.59153,2.861587 l 0.0721,4.828646 h -0.66743 -0.66742 l -0.012,-2.844271 -0.012,-2.844271 -0.59316,1.13317 -0.59317,1.133169 -0.56909,-1.133169 -0.56909,-1.13317 -0.0164,2.844271 c -0.0154,2.662411 -0.0503,2.844271 -0.54558,2.844271 -0.5101,0 -0.52917,-0.176389 -0.52917,-4.894792 z m 6.08542,0 c 0,-3.188353 0.0952,-4.894791 0.27308,-4.894791 0.55645,0 1.99115,0.737872 2.46132,1.265864 0.58359,0.655363 0.87094,2.453675 0.49844,3.119306 -0.19386,0.346398 -0.16099,0.64233 0.11876,1.069283 0.809,1.234686 0.32304,3.493371 -0.86839,4.036225 -0.36081,0.164398 -1.06714,0.298905 -1.56962,0.298905 h -0.91359 z m 2.45035,2.703502 c 0.18387,-0.551902 0.13818,-0.89947 -0.18262,-1.389063 -0.66807,-1.019612 -0.94481,-0.778953 -0.94481,0.821628 0,1.234287 0.0719,1.460667 0.44109,1.389063 0.24261,-0.04705 0.55146,-0.416783 0.68634,-0.821628 z m -0.3866,-3.417877 c 0.39005,-0.390053 0.4111,-1.394479 0.0436,-2.081144 -0.48556,-0.907267 -0.78444,-0.547801 -0.78444,0.943436 0,1.469397 0.16135,1.717189 0.74083,1.137708 z m 2.96333,0.714375 v -4.894791 h 0.66146 0.66146 v 4.894791 4.894792 h -0.66146 -0.66146 z m 4.11668,4.079276 c -1.03937,-0.91258 -1.46789,-2.103438 -1.46789,-4.079276 0,-2.507981 0.94981,-4.259106 2.57673,-4.750605 0.92711,-0.280082 0.76881,0.766589 -0.25418,1.68063 -0.77425,0.691794 -0.85872,0.922256 -0.95363,2.601899 -0.1126,1.992869 0.29975,3.228368 1.28228,3.841969 0.60901,0.380333 0.70889,1.520899 0.13318,1.520899 -0.21322,0 -0.80564,-0.366982 -1.31649,-0.815516 z M -177.27959,7.318913 c -5.05529,-1.497043 -8.83997,-5.2059516 -10.59063,-10.3785959 -0.87935,-2.5982154 -0.89942,-6.5973773 -0.0417,-8.3174001 0.32654,-0.654844 0.52197,-0.9525 0.43431,-0.661458 -0.58735,1.949935 -0.3584,6.2530952 0.43639,8.2020832 l 0.32369,0.7937501 0.23337,-1.0858004 c 0.12836,-0.5971903 0.52649,-1.3611747 0.88476,-1.6977431 0.72374,-0.6799232 2.07014,-0.8177813 2.58273,-0.2644466 0.22216,0.2398096 0.2263,0.2938847 0.0134,0.174496 -0.61009,-0.3420924 -1.69712,0.3462379 -2.11096,1.3366971 -0.96514,2.3099075 1.08884,6.4461779 3.93083,7.9158284 l 0.74911,0.3873787 -0.53491,-0.9980368 c -0.70695,-1.3190021 -0.71019,-3.36098942 -0.007,-4.5140208 0.77844,-1.2767507 1.99576,-1.9136542 3.6598,-1.9148219 1.20569,-8.46e-4 1.5212,0.1107997 2.18281,0.7724085 0.76058,0.7605793 0.98923,1.7958816 0.6131,2.77606344 -0.11657,0.3037659 -0.31508,0.11123151 -0.72761,-0.70568036 -0.7526,-1.49037328 -1.69085,-1.83600138 -3.02875,-1.11572138 -1.76612,0.950817 -1.81091,3.0513111 -0.10532,4.9391936 1.53849,1.7029274 2.85504,2.1695677 6.13865,2.1757936 2.51962,0.00478 2.92584,-0.06539 4.36562,-0.754096 l 1.5875,-0.7593634 -1.40431,-0.3324327 c -1.99807,-0.4729892 -3.35937,-1.4643478 -4.14809,-3.02081877 -1.44292,-2.84744933 -0.46032,-5.59350463 2.5653,-7.16925753 0.59964,-0.3122966 1.51267,-0.5112447 2.34623,-0.5112447 1.23235,0 1.46413,0.099544 2.39179,1.0272059 0.88498,0.8849801 1.02721,1.1899825 1.02721,2.2028378 0,0.8867763 -0.15046,1.3169813 -0.61237,1.7509191 -0.74382,0.698787 -2.02351,0.7498766 -2.81204,0.1122664 -0.56695,-0.4584363 -0.56166,-0.4630208 0.5343,-0.4630208 1.28507,0 1.73609,-0.4816746 1.46444,-1.5639841 -0.12424,-0.4950111 -0.47962,-0.844755 -1.13781,-1.1197657 -2.55374,-1.0670201 -4.99065,2.0837824 -3.63669,4.70205579 0.83578,1.61620514 3.72682,2.27406341 5.80329,1.32054231 1.89167,-0.86865545 2.77877,-2.4606984 2.77714,-4.9839961 -0.002,-3.0423545 -2.238,-5.1017274 -5.53937,-5.1017274 -1.87254,0 -3.14077,0.4581166 -5.81673,2.101161 -1.93425,1.187631 -1.99918,1.206037 -4.23333,1.200016 -1.91759,-0.00517 -2.49431,-0.1162481 -3.72417,-0.717298 -2.99394,-1.4631879 -4.28659,-3.3808564 -4.44949,-6.6008924 -0.13552,-2.678816 0.37659,-4.194895 2.0519,-6.07455 2.31799,-2.600727 5.68173,-3.931354 9.93822,-3.931354 5.0926,0 9.44276,2.069864 12.51146,5.953126 2.36182,2.988728 3.33879,5.921041 3.30572,9.9218748 -0.0383,4.6374094 -1.55901,8.10044713 -4.97784,11.3359751 -4.08565,3.8665966 -9.83596,5.2483937 -15.21372,3.6558541 z m 14.81718,-21.752044 c -1.08563,-1.756577 -3.18907,-2.511751 -4.27041,-1.533153 -0.63747,0.576903 -0.612,1.216217 0.0731,1.836215 0.44125,0.399301 0.89479,0.49076 2.18281,0.440174 0.8942,-0.03512 1.80097,0.0477 2.01504,0.184052 0.63507,0.404502 0.63488,0.100914 -5.8e-4,-0.927288 z"
         id="path15" /></g></g></svg>
