<svg width="100" height="100" viewBox="0 0 100 100" fill="none" xmlns="http://www.w3.org/2000/svg">
<path d="M59.0835 9.68262C59.3947 9.51381 78.0392 3.01164 88.8101 16.7598C92.7582 21.7999 88.1839 42.3944 77.2398 58.6182C77.2501 58.6664 78.0243 62.1083 88.3169 59.9873C92.8595 59.0502 90.1271 62.6169 85.52 64.7529C83.3805 65.7464 79.7351 66.3209 76.9497 66.1943L76.0298 66.1133C72.2458 65.2914 72.7989 67.059 72.1411 72.5371L71.5708 74.2471C71.5259 77.8602 70.8147 77.2634 70.5005 81.3047C70.0576 86.9891 66.8744 90.3969 60.7319 91.7119C53.3812 93.2853 52.5203 88.005 51.6568 85.6582C50.7932 83.3114 50.8793 80.3069 51.0083 75.9307C51.1373 71.5547 50.3679 66.727 49.272 65.8496L49.4361 65.1934C45.3233 70.9452 39.236 70.0138 36.605 69.3564C34.4347 68.8144 31.1109 66.7402 36.7691 65.5752C42.361 64.4252 41.5392 63.8772 44.3364 60.7549C44.2307 60.0694 44.2045 59.4904 44.2622 58.8984L44.0767 59.0557C41.6865 59.2872 39.4061 58.6428 37.5015 57.3789C37.4848 57.3965 33.6578 61.4207 29.6978 66.1787C18.8393 79.2192 9.73583 36.0456 9.40675 29.4707C7.86132 -1.40644 41.0602 12.2291 41.1206 12.2539C43.8202 10.2088 47.3779 8.9037 52.0679 8.98047C54.6437 9.02247 56.9361 9.2755 58.9839 9.7002L59.0835 9.68262ZM43.0073 32.834C41.9282 32.6835 41.0048 32.9026 40.9478 33.3213C40.8884 33.741 41.7163 34.8608 42.7964 35.0107C43.8749 35.161 44.7984 34.2856 44.8569 33.8662C44.9153 33.4465 44.0879 32.9843 43.0073 32.834ZM73.8003 32.4668C73.7418 32.0479 72.8193 31.8282 71.7398 31.9785C70.6603 32.1288 69.8331 32.592 69.8902 33.0117C69.9499 33.4312 70.8728 34.3055 71.9517 34.1553C73.0315 34.0054 73.8581 32.8869 73.8003 32.4668Z" fill="#336791"/>
</svg>
